<svg width="119" height="101" viewBox="0 0 119 101" fill="none" xmlns="http://www.w3.org/2000/svg">
<path fill-rule="evenodd" clip-rule="evenodd" d="M24.2666 10.6152C24.2666 4.98371 28.8307 0.419678 34.4622 0.419678H85.1773C90.8089 0.419678 95.3729 4.98371 95.3729 10.6152V61.3325C95.3729 66.9619 90.8089 71.5281 85.1773 71.5281H34.4622C28.8307 71.5281 24.2666 66.9619 24.2666 61.3325V10.6152ZM36.6702 64.56C33.6678 64.56 31.2326 62.1248 31.2326 59.1224V12.842C31.2326 9.83964 33.6678 7.40437 36.6702 7.40437H42.873C51.0462 7.40437 57.0989 15.6859 51.8718 20.9213L36.7056 36.1063L49.7222 49.7421C56.0314 56.3535 48.6422 64.56 41.6408 64.56H36.6702ZM56.3524 7.40437H61.5941C69.7672 7.40437 75.8199 15.6859 70.5929 20.9213L55.4267 36.1063L83.3071 64.5496L53.8859 64.5434C60.2076 64.5434 64.1982 53.9079 57.4325 46.8648L47.0993 36.1063L59.1276 23.7089C65.6035 17.0307 60.904 8.4427 56.3524 7.40437ZM88.3986 59.1224L65.8204 36.1063L77.8486 23.7089C84.3246 17.0307 79.625 8.4427 75.0735 7.40437H82.9506C85.955 7.40437 88.3882 9.83964 88.3882 12.842L88.3986 59.1224ZM5.48926 93.0201V97.165H7.34072C8.29981 97.165 9.02956 96.9857 9.5237 96.625C10.022 96.2664 10.2701 95.7431 10.2701 95.055C10.2701 94.3774 10.0429 93.8687 9.58625 93.5288C9.13172 93.191 8.4541 93.0201 7.5513 93.0201H5.48926ZM5.48926 85.952V89.8926H6.91747C7.91201 89.8926 8.65635 89.7258 9.1484 89.3901C9.64046 89.0544 9.88857 88.5415 9.88857 87.8556C9.88857 87.2322 9.65714 86.761 9.19219 86.4378C8.72932 86.1146 8.04545 85.952 7.14265 85.952H5.48926ZM0.887695 82.7745H8.11008C10.2472 82.7745 11.8505 83.156 12.9264 83.9233C14.0022 84.6885 14.5402 85.829 14.5402 87.3447C14.5402 88.3643 14.2587 89.2108 13.6958 89.8863C13.1328 90.5598 12.3134 91.0477 11.2376 91.3458C12.4468 91.5689 13.3747 92.0422 14.0252 92.7657C14.6736 93.4913 14.9989 94.4149 14.9989 95.5408C14.9989 97.1963 14.4067 98.4223 13.2225 99.2208C12.0403 100.019 10.2159 100.42 7.75146 100.42H0.887695L0.887695 82.7745ZM25.0735 86.7088L22.7905 93.3266H27.2836L25.0735 86.7088ZM22.3297 82.7745H28.005L34.6832 100.42H29.6563L28.4011 96.6813H21.6104L20.2947 100.42H15.641L22.3297 82.7745ZM35.7007 82.7745H41.572L46.6823 93.3537C46.8553 93.7102 47.0597 94.2043 47.2911 94.8382C47.5225 95.4699 47.779 96.2476 48.0605 97.1671C47.9103 96.2977 47.8019 95.497 47.731 94.7694C47.6601 94.0417 47.6247 93.3745 47.6247 92.7699V82.7745H51.8718V100.42H46.0255L40.7151 89.4548C40.4669 88.9502 40.2397 88.4018 40.0333 87.8097C39.8269 87.2176 39.6371 86.5733 39.4641 85.879C39.6288 86.9298 39.7497 87.8973 39.8289 88.7771C39.9082 89.6591 39.9478 90.4347 39.9478 91.1061V100.42H35.7007V82.7745ZM55.212 82.7745H59.9157V90.3992L65.3783 82.7745H70.645L64.1628 90.883L71.3059 100.42H65.4617L59.9157 92.2361V100.42H55.212V82.7745ZM84.9939 93.0201V97.165H86.8432C87.8044 97.165 88.5321 96.9857 89.0283 96.625C89.5245 96.2664 89.7726 95.7431 89.7726 95.055C89.7726 94.3774 89.5454 93.8687 89.0909 93.5288C88.6363 93.191 87.9566 93.0201 87.0559 93.0201H84.9939ZM84.9939 85.952V89.8926H86.4221C87.4166 89.8926 88.1589 89.7258 88.6509 89.3901C89.1451 89.0544 89.3911 88.5415 89.3911 87.8556C89.3911 87.2322 89.1597 86.761 88.6947 86.4378C88.2318 86.1146 87.548 85.952 86.6452 85.952H84.9939ZM80.3902 82.7745H87.6147C89.7497 82.7745 91.3552 83.156 92.431 83.9233C93.5069 84.6885 94.0448 85.829 94.0448 87.3447C94.0448 88.3643 93.7633 89.2108 93.2004 89.8863C92.6374 90.5598 91.818 91.0477 90.7422 91.3458C91.9494 91.5689 92.8772 92.0422 93.5277 92.7657C94.1761 93.4913 94.5014 94.4149 94.5014 95.5408C94.5014 97.1963 93.9093 98.4223 92.7271 99.2208C91.5449 100.019 89.7184 100.42 87.254 100.42H80.3902V82.7745ZM101.882 85.8769V90.4013H103.531C104.549 90.4013 105.312 90.2179 105.823 89.8488C106.332 89.4798 106.586 88.9272 106.586 88.1892C106.586 87.3927 106.302 86.8089 105.735 86.4357C105.168 86.0625 104.272 85.8769 103.048 85.8769H101.882ZM97.2807 82.7745H104.288C106.626 82.7745 108.36 83.1539 109.49 83.9108C110.62 84.6676 111.188 85.8206 111.188 87.3698C111.188 88.5123 110.889 89.4527 110.291 90.1887C109.695 90.9267 108.831 91.4188 107.706 91.6669C108.633 92.0068 109.38 92.97 109.943 94.5588L112.051 100.42H107.145L105.591 95.5909C105.343 94.8111 105.006 94.2731 104.574 93.9771C104.144 93.6768 103.473 93.5288 102.564 93.5288H101.882V100.42H97.2807V82.7745ZM113.986 82.7745H118.689V100.42H113.986V82.7745Z" fill="#1F4396"/>
</svg>
