<svg width="354" height="179" viewBox="0 0 354 179" fill="none" xmlns="http://www.w3.org/2000/svg">
<path d="M247.19 76.728C249.854 76.728 252.182 77.256 254.174 78.312C256.166 79.368 257.702 80.856 258.782 82.776C259.886 84.672 260.438 86.868 260.438 89.364C260.438 91.836 259.886 94.032 258.782 95.952C257.702 97.872 256.154 99.36 254.138 100.416C252.146 101.472 249.83 102 247.19 102H237.722V76.728H247.19ZM246.794 96.672C249.122 96.672 250.934 96.036 252.23 94.764C253.526 93.492 254.174 91.692 254.174 89.364C254.174 87.036 253.526 85.224 252.23 83.928C250.934 82.632 249.122 81.984 246.794 81.984H243.878V96.672H246.794ZM262.654 91.92C262.654 89.856 263.038 88.044 263.806 86.484C264.598 84.924 265.666 83.724 267.01 82.884C268.354 82.044 269.854 81.624 271.51 81.624C272.926 81.624 274.162 81.912 275.218 82.488C276.298 83.064 277.126 83.82 277.702 84.756V81.912H283.858V102H277.702V99.156C277.102 100.092 276.262 100.848 275.182 101.424C274.126 102 272.89 102.288 271.474 102.288C269.842 102.288 268.354 101.868 267.01 101.028C265.666 100.164 264.598 98.952 263.806 97.392C263.038 95.808 262.654 93.984 262.654 91.92ZM277.702 91.956C277.702 90.42 277.27 89.208 276.406 88.32C275.566 87.432 274.534 86.988 273.31 86.988C272.086 86.988 271.042 87.432 270.178 88.32C269.338 89.184 268.918 90.384 268.918 91.92C268.918 93.456 269.338 94.68 270.178 95.592C271.042 96.48 272.086 96.924 273.31 96.924C274.534 96.924 275.566 96.48 276.406 95.592C277.27 94.704 277.702 93.492 277.702 91.956ZM298.392 87.024H295.08V102H288.924V87.024H286.692V81.912H288.924V81.336C288.924 78.864 289.632 76.992 291.048 75.72C292.464 74.424 294.54 73.776 297.276 73.776C297.732 73.776 298.068 73.788 298.284 73.812V79.032C297.108 78.96 296.28 79.128 295.8 79.536C295.32 79.944 295.08 80.676 295.08 81.732V81.912H298.392V87.024ZM312.481 96.78V102H309.349C307.117 102 305.377 101.46 304.129 100.38C302.881 99.276 302.257 97.488 302.257 95.016V87.024H299.809V81.912H302.257V77.016H308.413V81.912H312.445V87.024H308.413V95.088C308.413 95.688 308.557 96.12 308.845 96.384C309.133 96.648 309.613 96.78 310.285 96.78H312.481ZM314.686 91.92C314.686 89.856 315.07 88.044 315.838 86.484C316.63 84.924 317.698 83.724 319.042 82.884C320.386 82.044 321.886 81.624 323.542 81.624C324.958 81.624 326.194 81.912 327.25 82.488C328.33 83.064 329.158 83.82 329.734 84.756V81.912H335.89V102H329.734V99.156C329.134 100.092 328.294 100.848 327.214 101.424C326.158 102 324.922 102.288 323.506 102.288C321.874 102.288 320.386 101.868 319.042 101.028C317.698 100.164 316.63 98.952 315.838 97.392C315.07 95.808 314.686 93.984 314.686 91.92ZM329.734 91.956C329.734 90.42 329.302 89.208 328.438 88.32C327.598 87.432 326.566 86.988 325.342 86.988C324.118 86.988 323.074 87.432 322.21 88.32C321.37 89.184 320.95 90.384 320.95 91.92C320.95 93.456 321.37 94.68 322.21 95.592C323.074 96.48 324.118 96.924 325.342 96.924C326.566 96.924 327.598 96.48 328.438 95.592C329.302 94.704 329.734 93.492 329.734 91.956ZM346.499 85.26C347.219 84.156 348.119 83.292 349.199 82.668C350.279 82.02 351.479 81.696 352.799 81.696V88.212H351.107C349.571 88.212 348.419 88.548 347.651 89.22C346.883 89.868 346.499 91.02 346.499 92.676V102H340.343V81.912H346.499V85.26Z" fill="url(#paint0_linear_381_858)"/>
<g clip-path="url(#clip0_381_858)">
<path d="M249 179C236.17 177.122 223.831 175.504 211.983 174.144L216.668 166.569C215.089 166.103 208.149 170.421 208.149 170.421L214.299 148.398C206.356 149.163 202.314 171.66 202.314 171.66L193.44 164.006L197.736 172.585C161.475 168.845 130.158 167.376 103.817 167.206L107.827 160.723C106.248 160.256 99.3082 164.575 99.3082 164.575L105.458 142.552C97.5148 143.316 93.4729 165.814 93.4729 165.814L84.5994 158.16L89.1487 167.246C67.0661 167.513 49.0579 168.691 35.1582 170.064C39.2144 159.954 52.99 150.384 52.99 150.384C42.4704 152.953 36.9518 157.313 34.0679 161.388C33.8475 148.881 35.3304 125.701 46.3482 100.081C46.3482 100.081 24.5995 139.561 27.37 166.142L27.7011 170.861C9.26768 172.984 0 175.238 0 175.238L249 179Z" fill="#3F3D56"/>
<path d="M132.402 7.16963V166.705C132.4 168.606 131.643 170.428 130.298 171.771C128.953 173.114 127.129 173.869 125.227 173.87H60.4084C59.4661 173.872 58.5327 173.687 57.6617 173.328C56.7908 172.969 55.9993 172.441 55.3328 171.775C54.6662 171.11 54.1377 170.319 53.7774 169.449C53.4171 168.579 53.2322 167.647 53.2332 166.705V7.16963C53.2331 6.22809 53.4186 5.29576 53.7792 4.42588C54.1397 3.556 54.6683 2.76561 55.3346 2.09984C56.0008 1.43407 56.7919 0.905975 57.6624 0.545702C58.533 0.18543 59.4661 4.0945e-05 60.4084 0.000122407H70.1084V1.24303C70.1082 2.80862 70.7303 4.31018 71.838 5.41745C72.9457 6.52472 74.4482 7.14702 76.015 7.14748H108.982C110.243 7.15017 111.472 6.74621 112.485 5.99563C112.69 5.84679 112.884 5.68396 113.066 5.50831C113.643 4.95775 114.102 4.29579 114.416 3.5626C114.729 2.82941 114.89 2.04027 114.889 1.24303V0.000122407H125.227C126.169 -0.000166055 127.102 0.185082 127.973 0.545282C128.844 0.905481 129.635 1.43357 130.301 2.09938C130.967 2.76519 131.496 3.55566 131.856 4.42564C132.217 5.29561 132.402 6.22804 132.402 7.16963V7.16963Z" fill="#3F3D56"/>
<path d="M71.2907 28.304C72.243 28.304 73.015 27.5326 73.015 26.5811C73.015 25.6296 72.243 24.8583 71.2907 24.8583C70.3385 24.8583 69.5665 25.6296 69.5665 26.5811C69.5665 27.5326 70.3385 28.304 71.2907 28.304Z" fill="#F2F2F2"/>
<path d="M113.066 5.5083C112.884 5.68394 112.69 5.84677 112.485 5.99562C114.596 9.7088 117.457 12.943 120.886 15.4932C124.315 18.0433 128.236 19.8537 132.402 20.8097V20.0418C128.349 19.0863 124.538 17.3015 121.21 14.8C117.881 12.2985 115.109 9.1347 113.066 5.5083Z" fill="#CEEE99"/>
<path d="M98.3339 7.14734H97.526C100.394 14.4291 105.125 20.8312 111.245 25.7138C117.365 30.5964 124.66 33.7886 132.402 34.9713V34.2084C124.862 33.0383 117.756 29.9282 111.783 25.1837C105.81 20.4392 101.175 14.2235 98.3339 7.14734V7.14734Z" fill="#CEEE99"/>
<path d="M83.4513 7.14734H82.673C89.1831 29.7265 108.827 46.5341 132.402 49.2636V48.5129C109.236 45.7958 89.9295 29.3081 83.4513 7.14734Z" fill="#CEEE99"/>
<path d="M65.6253 39.3355H65.1765V38.8871H65.0891V39.3355H64.64V39.4231H65.0891V39.8716H65.1765V39.4231H65.6253V39.3355Z" fill="#F2F2F2"/>
<path d="M95.9223 16.9385H95.4735V16.4901H95.386V16.9385H94.937V17.0262H95.386V17.4746H95.4735V17.0262H95.9223V16.9385Z" fill="#F2F2F2"/>
<path d="M70.059 57.0563H69.6102V56.6079H69.5228V57.0563H69.0737V57.144H69.5228V57.5924H69.6102V57.144H70.059V57.0563Z" fill="#F2F2F2"/>
<path d="M90.7497 44.0119H90.3009V43.5635H90.2134V44.0119H89.7644V44.0995H90.2134V44.548H90.3009V44.0995H90.7497V44.0119Z" fill="#F2F2F2"/>
<path d="M120.308 52.1337H119.859V51.6853H119.772V52.1337H119.323V52.2214H119.772V52.6698H119.859V52.2214H120.308V52.1337Z" fill="#F2F2F2"/>
<path d="M115.135 31.7495C115.679 31.7495 116.12 31.3087 116.12 30.765C116.12 30.2213 115.679 29.7805 115.135 29.7805C114.591 29.7805 114.15 30.2213 114.15 30.765C114.15 31.3087 114.591 31.7495 115.135 31.7495Z" fill="#FF6584"/>
<path d="M79.8379 53.8514L79.2788 53.9376C79.4537 55.055 79.5916 56.197 79.6926 57.3267L80.2567 57.2774C80.1557 56.133 80.0153 54.9812 79.8379 53.8514Z" fill="#E6E6E6"/>
<path d="M78.3083 47.1223L77.7664 47.2872C78.094 48.3702 78.3871 49.4802 78.6359 50.5852L79.1901 50.4597C78.9364 49.3423 78.6383 48.22 78.3083 47.1223Z" fill="#E6E6E6"/>
<path d="M75.8673 40.6689L75.3525 40.9052C75.8255 41.9365 76.2688 42.9948 76.6703 44.0531L77.1999 43.8538C76.7935 42.7831 76.3477 41.71 75.8673 40.6689Z" fill="#E6E6E6"/>
<path d="M72.5666 34.6194L72.0887 34.9221C72.6971 35.8771 73.2809 36.8665 73.8228 37.8583L74.3204 37.5876C73.7736 36.5835 73.1824 35.5842 72.5666 34.6194Z" fill="#E6E6E6"/>
<path d="M68.463 29.0742L68.032 29.4409C68.766 30.3024 69.4803 31.2032 70.1552 32.1138L70.6085 31.7766C69.9286 30.8561 69.2069 29.9455 68.463 29.0742Z" fill="#E6E6E6"/>
<path d="M63.64 24.1372L63.2632 24.5581C64.1105 25.3137 64.9406 26.1086 65.7313 26.9184L66.1377 26.5221C65.3372 25.7025 64.4972 24.9002 63.64 24.1372Z" fill="#E6E6E6"/>
<path d="M58.1915 19.8988L57.8738 20.3664C58.8147 20.999 59.7458 21.6733 60.6399 22.3699L60.9897 21.9244C60.0832 21.2205 59.1423 20.5387 58.1915 19.8988Z" fill="#E6E6E6"/>
<path d="M53.2332 16.9553V17.5952C53.8219 17.9029 54.4056 18.2253 54.9771 18.5551L55.2603 18.0653C54.5953 17.6814 53.9196 17.3114 53.2332 16.9553Z" fill="#E6E6E6"/>
<path d="M79.71 107.014C79.8018 106.464 79.8859 105.902 79.9599 105.344L80.5213 105.419C80.4465 105.983 80.3615 106.55 80.2687 107.107L79.71 107.014Z" fill="#E6E6E6"/>
<path d="M78.1312 113.654L78.6725 113.823C79.0121 112.729 79.3194 111.609 79.5857 110.492L79.0341 110.362C78.7703 111.466 78.4683 112.573 78.1312 113.654Z" fill="#E6E6E6"/>
<path d="M75.6578 120.012L76.1717 120.253C76.6603 119.217 77.1177 118.15 77.5325 117.082L77.004 116.876C76.594 117.932 76.1416 118.988 75.6578 120.012Z" fill="#E6E6E6"/>
<path d="M72.3297 125.977L72.8047 126.285C73.4311 125.325 74.0321 124.33 74.5916 123.329L74.0976 123.052C73.5454 124.042 72.9493 125.025 72.3297 125.977Z" fill="#E6E6E6"/>
<path d="M68.2122 131.425L68.6414 131.797C69.395 130.928 70.1255 130.025 70.8179 129.111L70.3644 128.773C69.6817 129.676 68.9584 130.568 68.2122 131.425Z" fill="#E6E6E6"/>
<path d="M63.3905 136.26L63.7635 136.686C64.6296 135.931 65.4766 135.134 66.2859 134.325L65.8853 133.924C65.0851 134.725 64.2455 135.511 63.3905 136.26Z" fill="#E6E6E6"/>
<path d="M57.9585 140.393L58.2714 140.866C59.2277 140.235 60.1775 139.563 61.0888 138.87L60.7463 138.418C59.8438 139.105 58.9057 139.77 57.9585 140.393Z" fill="#E6E6E6"/>
<path d="M55.3244 142.664C54.6396 143.051 53.9401 143.425 53.2332 143.779V143.144C53.844 142.834 54.45 142.507 55.0436 142.174L55.3244 142.664Z" fill="#E6E6E6"/>
<path d="M79.8761 60.818L80.4423 60.8077C80.4527 61.379 80.4535 61.9533 80.4446 62.5149L79.8785 62.506C79.8871 61.9509 79.8863 61.3829 79.8761 60.818Z" fill="#E6E6E6"/>
<path d="M55.7209 74.2379H113.657C117.969 74.2379 122.104 75.9493 125.153 78.9957C128.201 82.042 129.914 86.1737 129.914 90.4819V92.6321H71.9779C67.6663 92.6321 63.5313 90.9207 60.4825 87.8744C57.4337 84.828 55.7209 80.6963 55.7209 76.3881V74.2379V74.2379Z" fill="white"/>
<path d="M94.171 173.644C94.1145 173.551 92.7816 171.328 92.3195 166.71C91.8957 162.474 92.1682 155.333 95.8745 145.372C102.896 126.501 94.2564 111.276 94.1681 111.124L94.5944 110.877C94.6167 110.916 96.8461 114.797 98.1631 120.979C99.9032 129.174 99.2696 137.695 96.3364 145.543C89.3269 164.381 94.5381 173.299 94.5915 173.387L94.171 173.644Z" fill="#F2F2F2"/>
<path d="M91.4255 110.016C93.194 110.016 94.6276 108.584 94.6276 106.817C94.6276 105.05 93.194 103.617 91.4255 103.617C89.657 103.617 88.2234 105.05 88.2234 106.817C88.2234 108.584 89.657 110.016 91.4255 110.016Z" fill="#CEEE99"/>
<path d="M101.525 121.83C103.293 121.83 104.727 120.398 104.727 118.63C104.727 116.863 103.293 115.431 101.525 115.431C99.756 115.431 98.3224 116.863 98.3224 118.63C98.3224 120.398 99.756 121.83 101.525 121.83Z" fill="#F2F2F2"/>
<path d="M94.6277 129.706C96.3961 129.706 97.8298 128.273 97.8298 126.506C97.8298 124.739 96.3961 123.307 94.6277 123.307C92.8592 123.307 91.4255 124.739 91.4255 126.506C91.4255 128.273 92.8592 129.706 94.6277 129.706Z" fill="#CEEE99"/>
<path d="M103.002 136.351C104.771 136.351 106.205 134.919 106.205 133.151C106.205 131.384 104.771 129.952 103.002 129.952C101.234 129.952 99.8003 131.384 99.8003 133.151C99.8003 134.919 101.234 136.351 103.002 136.351Z" fill="#CEEE99"/>
<path d="M92.1644 146.688C93.9329 146.688 95.3665 145.256 95.3665 143.489C95.3665 141.722 93.9329 140.289 92.1644 140.289C90.3959 140.289 88.9623 141.722 88.9623 143.489C88.9623 145.256 90.3959 146.688 92.1644 146.688Z" fill="#F2F2F2"/>
<path d="M96.1055 173.762C96.1055 173.762 92.9034 165.886 102.51 159.979L96.1055 173.762Z" fill="#F2F2F2"/>
<path d="M92.1674 173.619C92.1674 173.619 90.71 165.243 79.4307 165.315L92.1674 173.619Z" fill="#F2F2F2"/>
<path opacity="0.2" d="M79.4191 103.125C90.3021 103.125 99.1245 94.3094 99.1245 83.4351C99.1245 72.5607 90.3021 63.7454 79.4191 63.7454C68.5361 63.7454 59.7137 72.5607 59.7137 83.4351C59.7137 94.3094 68.5361 103.125 79.4191 103.125Z" fill="#CEEE99"/>
<path opacity="0.2" d="M79.4191 97.3011C87.0832 97.3011 93.2962 91.093 93.2962 83.4351C93.2962 75.7771 87.0832 69.5691 79.4191 69.5691C71.7551 69.5691 65.5421 75.7771 65.5421 83.4351C65.5421 91.093 71.7551 97.3011 79.4191 97.3011Z" fill="#CEEE99"/>
<path d="M79.4192 92.5865C84.4775 92.5865 88.578 88.4893 88.578 83.435C88.578 78.3807 84.4775 74.2834 79.4192 74.2834C74.3609 74.2834 70.2604 78.3807 70.2604 83.435C70.2604 88.4893 74.3609 92.5865 79.4192 92.5865Z" fill="#CEEE99"/>
<path d="M81.0844 81.4613C81.0845 81.1804 81.0134 80.9042 80.8779 80.6582C80.7423 80.4122 80.5467 80.2045 80.3091 80.0544C80.0716 79.9044 79.7999 79.8168 79.5194 79.7999C79.2389 79.783 78.9586 79.8373 78.7048 79.9578C78.4509 80.0782 78.2317 80.2609 78.0675 80.4888C77.9034 80.7168 77.7996 80.9825 77.7659 81.2613C77.7322 81.5401 77.7697 81.8228 77.8748 82.0833C77.98 82.3437 78.1493 82.5733 78.3672 82.7507L77.7539 87.0403H81.0844L80.4711 82.7507C80.6629 82.5949 80.8175 82.3983 80.9235 82.1752C81.0296 81.9521 81.0846 81.7082 81.0844 81.4613V81.4613Z" fill="white"/>
<path d="M171.463 13.1183C171.463 13.1183 165.97 8.19715 158.582 17.4716C151.195 26.7461 139.64 31.2887 136.988 34.885C136.988 34.885 147.974 30.3424 151.763 28.4496C155.551 26.5569 155.362 26.9354 155.362 26.9354C155.362 26.9354 150.248 30.5316 149.3 34.1279C148.353 37.7241 149.111 40.7525 147.406 44.3487C145.701 47.945 179.987 46.8093 179.987 46.8093C179.987 46.8093 183.397 40.9418 182.45 34.885C181.503 28.8282 182.071 13.8754 171.463 13.1183Z" fill="#2F2E41"/>
<path d="M161.073 28.5997C161.073 28.5997 162.267 36.9547 157.148 38.8304C152.029 40.706 153.906 43.2636 153.906 43.2636L161.585 47.0149L169.776 44.4572L172.506 40.3649C172.506 40.3649 168.069 39.3419 169.264 36.2727C170.459 33.2035 170.8 32.1804 170.8 32.1804L161.073 28.5997Z" fill="#FFB9B9"/>
<path opacity="0.1" d="M161.073 28.5997C161.073 28.5997 162.267 36.9547 157.148 38.8304C152.029 40.706 153.906 43.2636 153.906 43.2636L161.585 47.0149L169.776 44.4572L172.506 40.3649C172.506 40.3649 168.069 39.3419 169.264 36.2727C170.459 33.2035 170.8 32.1804 170.8 32.1804L161.073 28.5997Z" fill="#1E1E1E"/>
<path d="M182.574 52.4712C182.574 52.4712 181.38 68.1582 181.721 68.8402C182.062 69.5222 181.721 93.2232 181.721 93.2232C181.721 93.2232 184.11 106.011 181.039 106.694C177.967 107.376 178.649 92.3706 178.649 92.3706L175.578 72.5914L175.919 52.9827L182.574 52.4712Z" fill="#FFB9B9"/>
<path opacity="0.1" d="M182.574 52.4712C182.574 52.4712 181.38 68.1582 181.721 68.8402C182.062 69.5222 181.721 93.2232 181.721 93.2232C181.721 93.2232 184.11 106.011 181.039 106.694C177.967 107.376 178.649 92.3706 178.649 92.3706L175.578 72.5914L175.919 52.9827L182.574 52.4712Z" fill="#1E1E1E"/>
<path d="M149.298 99.7028C149.298 99.7028 143.667 121.017 143.838 131.418C144.008 141.819 146.227 156.312 146.227 156.312C146.227 156.312 146.568 162.621 146.056 163.303C145.544 163.985 148.616 166.884 148.616 166.884L151.858 165.008L153.052 163.644V162.451C153.052 162.451 151.175 156.653 152.711 152.049C154.247 147.446 155.1 135.851 153.564 132.27L164.144 100.896L149.298 99.7028Z" fill="#FFB9B9"/>
<path d="M148.957 164.156C148.957 164.156 146.909 161.598 145.544 162.451C144.179 163.303 141.961 169.101 141.961 169.101C141.961 169.101 134.281 176.433 139.742 176.774C145.203 177.115 147.592 175.239 148.274 173.875C148.957 172.511 155.271 168.93 155.271 168.93C155.271 168.93 154.588 162.451 153.564 162.28C152.541 162.11 151.005 164.838 151.005 164.838L148.957 164.156Z" fill="#2F2E41"/>
<path d="M167.899 101.067V122.21C167.919 124.776 168.089 127.338 168.411 129.883C168.923 133.634 165.51 161.598 165.51 161.598L165.851 166.543L170.117 166.202L170.629 161.939L176.772 143.183C176.772 143.183 178.82 131.759 177.796 127.496C176.772 123.233 183.086 95.9514 183.086 95.9514L167.899 101.067Z" fill="#FFB9B9"/>
<path d="M164.486 165.349L165.75 165.075C165.75 165.075 166.704 162.962 167.899 163.474C168.739 163.861 169.536 164.338 170.274 164.896L170.8 165.861C170.8 165.861 171.994 168.418 173.53 170.124C175.066 171.829 176.772 175.58 174.213 175.921C171.653 176.262 168.24 176.432 167.216 175.58C166.192 174.727 166.875 173.363 165.851 173.022C164.827 172.681 163.974 171.658 164.145 171.317C164.315 170.976 164.486 165.349 164.486 165.349Z" fill="#2F2E41"/>
<path d="M167.899 34.4728C172.087 34.4728 175.483 31.0799 175.483 26.8947C175.483 22.7094 172.087 19.3165 167.899 19.3165C163.71 19.3165 160.315 22.7094 160.315 26.8947C160.315 31.0799 163.71 34.4728 167.899 34.4728Z" fill="#FFB9B9"/>
<path d="M153.564 40.1945L155.819 39.4082C155.819 39.4082 154.93 40.8766 159.708 41.7291C164.486 42.5817 169.434 42.8835 171.653 40.0897C171.653 40.0897 172.506 39.683 173.701 40.8766C174.895 42.0701 175.578 41.7291 175.578 41.7291L174.725 46.1624L173.018 54.3469L170.8 60.4853L164.486 59.1212L157.66 54.1764L155.1 47.5265V41.3881L153.564 40.1945Z" fill="#CEEE99"/>
<path d="M174.383 42.5817L176.09 41.3881C176.09 41.3881 181.892 42.4112 182.233 45.1393L177.796 53.6648C178.701 56.0371 178.64 58.6692 177.626 60.9968C175.919 64.9185 176.09 65.7711 176.09 65.7711L174.895 70.8864L153.223 72.5915C153.223 72.5915 152.37 70.5454 152.029 70.2044C151.687 69.8633 151.687 68.6698 152.029 68.6698C152.37 68.6698 152.029 68.1582 151.687 67.6467C151.346 67.1352 151.175 66.9647 151.687 66.2826C152.199 65.6006 150.834 59.4622 150.834 59.4622V52.8123L145.032 45.1393C145.032 45.1393 147.08 42.0701 148.104 41.7291C149.128 41.3881 153.998 40.0432 153.998 40.0432L155.1 41.6647L156.636 54.0059L158.854 61.5083L168.195 59.9225L171.824 53.8353L174.213 46.6739L174.383 42.5817Z" fill="#CEEE99"/>
<path d="M180.868 44.1163L182.233 45.1394C182.233 45.1394 183.428 54.688 183.086 55.37C182.745 56.0521 176.772 56.7341 176.602 56.3931C176.431 56.0521 180.868 44.1163 180.868 44.1163Z" fill="#CEEE99"/>
<path d="M152.711 39.342L154.418 50.5957C154.418 50.5957 152.882 67.3057 153.223 70.7159L153.564 71.739C153.564 71.739 152.882 71.3979 152.711 72.08C152.541 72.762 152.711 74.9787 152.711 74.9787C152.711 74.9787 151.687 76.0017 151.346 81.6286C151.005 87.2554 146.909 100.726 148.445 101.237C149.981 101.749 159.196 104.306 164.145 103.795C169.093 103.283 186.841 97.3155 186.67 95.781C186.499 94.2464 177.967 72.5915 177.967 72.5915C177.967 72.5915 176.431 70.0339 176.431 69.6928C176.431 69.3518 178.479 67.9877 177.967 66.6236C177.455 65.2596 174.725 50.9367 174.725 50.9367L176.602 40.706L174.042 40.024L172.165 49.9136C172.165 49.9136 164.827 53.4943 157.148 50.2546L155.442 38.6599L152.711 39.342Z" fill="#2F2E41"/>
<path d="M160.922 21.4561C160.922 21.4561 173.549 30.1521 176.962 26.2304C180.375 22.3087 170.99 18.8985 170.99 18.8985L163.14 18.0459L160.922 21.4561Z" fill="#2F2E41"/>
<path d="M141.301 113.964C142.601 114.931 144.209 115.391 145.824 115.258C147.439 115.125 148.949 114.408 150.073 113.241C151.197 112.075 151.856 110.539 151.927 108.921C151.999 107.304 151.477 105.716 150.46 104.455C149.444 103.194 148.002 102.347 146.405 102.073C144.808 101.798 143.166 102.115 141.786 102.964C140.406 103.813 139.384 105.135 138.91 106.683C138.436 108.232 138.544 109.899 139.213 111.374L121.796 125.864L119.477 123.114L118.436 123.81L117.276 122.435L118.229 121.633L117.069 120.258L115.587 121.506L116.301 122.352L114.713 123.689L113.999 122.842L111.671 124.803L112.741 126.072L113.588 125.359L114.747 126.734L113.689 127.626L115.829 130.164L113.289 132.303L115.875 135.37L141.301 113.964ZM145.65 104.244C146.518 104.319 147.344 104.648 148.025 105.192C148.705 105.735 149.209 106.468 149.473 107.298C149.736 108.127 149.748 109.016 149.506 109.852C149.264 110.689 148.779 111.434 148.113 111.995C147.447 112.556 146.629 112.907 145.763 113.003C144.897 113.1 144.022 112.938 143.249 112.537C142.475 112.137 141.838 111.516 141.417 110.754C140.997 109.992 140.812 109.122 140.886 108.255C140.986 107.092 141.543 106.016 142.437 105.264C143.33 104.512 144.486 104.145 145.65 104.244V104.244Z" fill="#CEEE99"/>
<path d="M143.838 54.5175C143.838 54.5175 145.032 70.2044 144.691 70.8865C144.35 71.5685 144.691 95.2694 144.691 95.2694C144.691 95.2694 142.302 108.058 145.373 108.74C148.445 109.422 147.762 94.4169 147.762 94.4169L150.834 74.6377L150.493 55.029L143.838 54.5175Z" fill="#FFB9B9"/>
<path d="M146.397 44.6279L145.032 45.1395C145.032 45.1395 142.472 55.8816 143.155 55.8816C143.838 55.8816 152.029 56.9047 152.029 56.5637C152.029 56.2226 150.493 47.8676 150.493 47.8676L146.397 44.6279Z" fill="#CEEE99"/>
</g>
<defs>
<linearGradient id="paint0_linear_381_858" x1="294.5" y1="64" x2="294.5" y2="114" gradientUnits="userSpaceOnUse">
<stop stop-color="#CEEE99"/>
<stop offset="1" stop-color="#6CC166"/>
</linearGradient>
<clipPath id="clip0_381_858">
<rect width="249" height="179" fill="white"/>
</clipPath>
</defs>
</svg>
