<svg width="3780" height="2147" viewBox="0 0 3780 2147" fill="none" xmlns="http://www.w3.org/2000/svg">
<path d="M289.968 2139.56C289.968 2139.56 -158.466 1599.37 60.6939 1043.26C203.547 680.769 739.41 482.142 1041.83 680.769C1170.63 765.37 1583.87 683.622 1804.51 333.382C2233.27 -347.218 3729.65 66.115 3457.23 1111.08C3325.4 1616.77 3858.45 1635.14 3586.84 2140.62L289.968 2139.56Z" fill="#EBF3FA"/>
<path d="M621.908 1250.52C621.908 1250.52 576.681 1197.76 619.119 1164.24C619.119 1164.24 650.117 1145.48 675.393 1147C675.393 1147 639.579 1207.05 651.165 1213.02C662.751 1219 686.248 1143.24 686.248 1143.24C686.248 1143.24 756.79 1136.4 779.48 1147.3C779.48 1147.3 719.177 1196.65 731.879 1199.58C744.58 1202.53 809.71 1154.09 809.71 1154.09C809.71 1154.09 875.37 1165.26 871.87 1205.32C868.37 1245.36 845.75 1257.73 835.8 1256.66C825.86 1255.6 767.7 1233.4 766.43 1241.54C765.16 1249.69 800.17 1276.32 824.69 1277.56C824.69 1277.56 778.4 1328.61 747.64 1313.88C716.877 1299.14 714.251 1275.8 695.075 1267.04C675.899 1258.28 659.529 1258.29 667.445 1267.22C675.363 1276.16 710.069 1284.84 721.035 1304.24C732.001 1323.64 741.84 1336.72 710.013 1331.93C678.185 1327.14 626.449 1303.85 624.179 1277.18C621.908 1250.52 621.908 1250.52 621.908 1250.52Z" fill="#C8DBF4"/>
<path d="M839.61 1206.4C839.61 1206.4 661.288 1199.52 621.908 1250.52C621.908 1250.52 613.199 1276.6 586.399 1300.36L582.223 1311.74C582.223 1311.74 613.123 1279.16 624.179 1277.18C624.179 1277.18 606.888 1214.01 839.61 1206.4Z" fill="#C8DBF4"/>
<path d="M586.399 1300.36C586.399 1300.36 548.124 1328.66 545.465 1379.24L552.412 1379.86C552.412 1379.86 564.637 1327.56 586.732 1307.12C608.827 1286.66 586.399 1300.36 586.399 1300.36Z" fill="#C8DBF4"/>
<path d="M463.781 1184.16C463.781 1184.16 535.724 1143.88 502.151 1089.2C502.151 1089.2 475.292 1055.62 446.515 1047C446.515 1047 461.863 1128.53 446.515 1130.45C431.167 1132.37 435.964 1038.36 435.964 1038.36C435.964 1038.36 360.183 1001.9 330.447 1004.78C330.447 1004.78 377.449 1084.4 362.101 1082.48C346.753 1080.57 293.996 999.98 293.996 999.98C293.996 999.98 216.296 985.6 203.827 1031.65C191.356 1077.69 211.5 1100.7 223.011 1103.58C234.523 1106.46 308.384 1105.5 306.465 1115.1C304.547 1124.69 254.667 1140.04 226.848 1131.41C226.848 1131.41 257.544 1207.18 297.832 1203.34C338.12 1199.52 350.591 1174.57 375.531 1172.65C400.472 1170.73 418.697 1177.45 406.227 1184.16C393.756 1190.88 351.551 1186.37 331.405 1203.49C311.261 1220.61 294.955 1231.17 332.365 1238.84C369.776 1246.52 436.923 1241.72 450.352 1212.94C463.781 1184.16 463.781 1184.16 463.781 1184.16Z" fill="#C8DBF4"/>
<path d="M239.319 1046.04C239.319 1046.04 440.76 1111.26 463.781 1184.16C463.781 1184.16 462.823 1216.78 482.967 1254.18V1268.58C482.967 1268.58 461.863 1219.65 450.352 1212.94C450.352 1212.94 495.436 1149.64 239.319 1046.04Z" fill="#C8DBF4"/>
<path d="M482.967 1254.18C482.967 1254.18 514.032 1301.37 496.321 1358.78L488.329 1356.64C488.329 1356.64 496.087 1293.4 479.833 1261.58C463.581 1229.77 482.967 1254.18 482.967 1254.18Z" fill="#C8DBF4"/>
<path d="M578.237 1128.6C578.237 1128.6 483.403 1075.49 527.659 1003.42C527.659 1003.42 563.064 959.16 600.999 947.78C600.999 947.78 580.767 1055.26 600.999 1057.78C621.229 1060.32 614.907 936.4 614.907 936.4C614.907 936.4 714.8 888.36 754 892.14C754 892.14 692.039 997.09 712.271 994.57C732.501 992.04 802.05 885.82 802.05 885.82C802.05 885.82 904.47 866.85 920.91 927.56C937.35 988.25 910.79 1018.6 895.62 1022.38C880.44 1026.18 783.08 1024.92 785.61 1037.56C788.14 1050.21 853.89 1070.44 890.56 1059.05C890.56 1059.05 850.1 1158.94 796.99 1153.89C743.88 1148.84 727.444 1115.96 694.568 1113.42C661.692 1110.9 637.667 1119.74 654.105 1128.6C670.544 1137.45 726.18 1131.5 752.73 1154.08C779.29 1176.65 800.78 1190.56 751.47 1200.68C702.155 1210.8 613.643 1204.46 595.94 1166.53C578.237 1128.6 578.237 1128.6 578.237 1128.6Z" fill="#D4E4F8"/>
<path d="M874.12 946.52C874.12 946.52 608.584 1032.5 578.238 1128.6C578.238 1128.6 579.502 1171.6 552.948 1220.9V1239.88C552.948 1239.88 580.767 1175.38 595.94 1166.53C595.94 1166.53 536.511 1083.08 874.12 946.52Z" fill="#D4E4F8"/>
<path d="M552.948 1220.9C552.948 1220.9 511.999 1283.09 535.344 1358.78L545.879 1355.96C545.879 1355.96 535.652 1272.58 557.078 1230.65C578.502 1188.72 552.948 1220.9 552.948 1220.9Z" fill="#D4E4F8"/>
<path d="M575.043 1522.94C677.639 1522.94 760.81 1439.77 760.81 1337.17H389.276C389.276 1439.77 472.447 1522.94 575.043 1522.94Z" fill="#D4E4F8"/>
<path d="M763.37 1532.4H386.711C386.711 1519.73 396.972 1509.48 409.63 1509.48H740.45C753.11 1509.48 763.37 1519.73 763.37 1532.4Z" fill="#D4E4F8"/>
<path d="M765.03 1342.86H383.168V1337.17H765.03V1342.86Z" fill="#9FC1F4"/>
<path d="M1533.6 2135.69L1534.52 2135.68C1542.03 2135.54 1547.83 2129.41 1547.12 2122.34L1497.04 1622.25L1453.35 1626.16L1525.25 2128.93C1525.81 2132.86 1529.4 2135.77 1533.6 2135.69Z" fill="#8CB4F4"/>
<path d="M1051.43 2135.69L1050.52 2135.68C1043.01 2135.54 1037.21 2129.41 1037.92 2122.34L1088 1622.25L1131.69 1626.16L1059.79 2128.93C1059.22 2132.86 1055.63 2135.77 1051.43 2135.69Z" fill="#8CB4F4"/>
<path d="M1886.87 2135.69L1887.79 2135.68C1895.29 2135.54 1901.09 2129.41 1900.39 2122.34L1850.31 1622.25L1806.61 1626.16L1878.52 2128.93C1879.08 2132.86 1882.67 2135.77 1886.87 2135.69Z" fill="#8CB4F4"/>
<path d="M1066.35 1549.52L977.46 1110.57C966.05 1051.14 1015.3 996.8 1079.24 998.26L1250.67 1002.17C1309.8 1003.53 1361.21 1043.1 1377.65 1099.93L1507.69 1549.52H1066.35Z" fill="#8CB4F4"/>
<path d="M1120.12 1549.52L1031.24 1110.57C1019.83 1051.14 1069.07 996.8 1133.01 998.26L1304.44 1002.17C1363.57 1003.53 1414.99 1043.1 1431.43 1099.93L1561.47 1549.52H1120.12Z" fill="#8CB4F4"/>
<path d="M1091.12 1629.57H1769.33C1782.96 1629.57 1794.11 1618.42 1794.11 1604.8V1574.29C1794.11 1560.66 1782.96 1549.52 1769.33 1549.52H1066.35V1604.8C1066.35 1618.42 1077.49 1629.57 1091.12 1629.57Z" fill="#8CB4F4"/>
<path d="M1409.39 1629.57H1841.73C1852.71 1629.57 1861.69 1620.58 1861.69 1609.61V1569.46C1861.69 1558.49 1852.71 1549.52 1841.73 1549.52H1409.39C1398.41 1549.52 1389.43 1558.49 1389.43 1569.46V1609.61C1389.43 1620.58 1398.41 1629.57 1409.39 1629.57Z" fill="#8CB4F4"/>
<path d="M863.98 1543.8V1558.77C863.98 1564.01 862.29 1568.29 860.22 1568.29H313.74C311.669 1568.29 309.972 1564.01 309.972 1558.77V1543.8C309.972 1538.56 311.669 1534.28 313.74 1534.28H860.22C862.29 1534.28 863.98 1538.56 863.98 1543.8Z" fill="#9ABFE2"/>
<path d="M863.98 1543.8V1558.77C863.98 1564.01 862.43 1568.29 860.53 1568.29H426.684C424.783 1568.29 423.224 1564.01 423.224 1558.77V1543.8C423.224 1538.56 424.783 1534.28 426.684 1534.28H860.53C862.43 1534.28 863.98 1538.56 863.98 1543.8Z" fill="#BAD4F4"/>
<path d="M725.672 2133.77H337.708V1568.3H725.672V2133.77Z" fill="#C8DBF4"/>
<path d="M834.39 2133.77H446.431V1568.3H834.39V2133.77Z" fill="#DFEBFD"/>
<path d="M471.021 2098.81H809.81V1588.01H471.021V2098.81ZM813.55 2102.56H467.283V1584.28H813.55V2102.56Z" fill="#B7D3F3"/>
<path d="M811.68 1759.46H469.152V1755.73H811.68V1759.46Z" fill="#B7D3F3"/>
<path d="M811.68 1934.25H469.152V1930.52H811.68V1934.25Z" fill="#B7D3F3"/>
<path d="M675.516 1617.7H611.955C608.869 1617.7 606.347 1615.17 606.347 1612.09C606.347 1609.01 608.869 1606.48 611.955 1606.48H675.516C678.6 1606.48 681.124 1609.01 681.124 1612.09C681.124 1615.17 678.6 1617.7 675.516 1617.7Z" fill="#B7D3F3"/>
<path d="M675.516 1788.62H611.955C608.869 1788.62 606.347 1786.1 606.347 1783.02C606.347 1779.93 608.869 1777.41 611.955 1777.41H675.516C678.6 1777.41 681.124 1779.93 681.124 1783.02C681.124 1786.1 678.6 1788.62 675.516 1788.62Z" fill="#B7D3F3"/>
<path d="M675.516 1966.81H611.955C608.869 1966.81 606.347 1964.29 606.347 1961.2C606.347 1958.12 608.869 1955.6 611.955 1955.6H675.516C678.6 1955.6 681.124 1958.12 681.124 1961.2C681.124 1964.29 678.6 1966.81 675.516 1966.81Z" fill="#B7D3F3"/>
<path d="M2387.01 551.569H2141.11C2129.81 551.569 2120.57 542.329 2120.57 531.036V293.689C2120.57 282.409 2129.81 273.169 2141.11 273.169H2387.01C2398.31 273.169 2407.55 282.409 2407.55 293.689V531.036C2407.55 542.329 2398.31 551.569 2387.01 551.569Z" fill="#C0D8FB"/>
<path d="M2376.36 539.502H2151.76C2141.44 539.502 2133.01 531.075 2133.01 520.755V303.969C2133.01 293.662 2141.44 285.222 2151.76 285.222H2376.36C2386.67 285.222 2395.11 293.662 2395.11 303.969V520.755C2395.11 531.075 2386.67 539.502 2376.36 539.502Z" fill="#DFEBFD"/>
<path d="M2258.12 310.635C2258.12 307.355 2260.77 304.689 2264.05 304.689C2267.35 304.689 2270 307.355 2270 310.635C2270 313.915 2267.35 316.582 2264.05 316.582C2260.77 316.582 2258.12 313.915 2258.12 310.635Z" fill="#B7D3F3"/>
<path d="M2306.08 319.035C2307.68 316.169 2311.29 315.142 2314.16 316.729C2317.04 318.329 2318.07 321.942 2316.47 324.809C2314.88 327.689 2311.25 328.716 2308.39 327.116C2305.52 325.529 2304.48 321.902 2306.08 319.035Z" fill="#B7D3F3"/>
<path d="M2347.17 351.689C2349.93 349.902 2353.61 350.702 2355.39 353.462C2357.17 356.222 2356.37 359.902 2353.61 361.675C2350.87 363.462 2347.19 362.662 2345.4 359.902C2343.63 357.142 2344.41 353.462 2347.17 351.689Z" fill="#B7D3F3"/>
<path d="M2367.53 402.222C2370.81 402.222 2373.47 404.876 2373.47 408.156C2373.47 411.449 2370.81 414.102 2367.53 414.102C2364.24 414.102 2361.59 411.449 2361.59 408.156C2361.59 404.876 2364.24 402.222 2367.53 402.222Z" fill="#B7D3F3"/>
<path d="M2357.13 460.862C2359.45 463.182 2359.45 466.942 2357.13 469.262C2354.81 471.582 2351.05 471.582 2348.73 469.262C2346.41 466.942 2346.41 463.182 2348.73 460.862C2351.05 458.542 2354.81 458.542 2357.13 460.862Z" fill="#B7D3F3"/>
<path d="M2319.81 498.289C2322.13 500.609 2322.13 504.369 2319.81 506.689C2317.49 509.009 2313.72 509.009 2311.4 506.689C2309.08 504.369 2309.08 500.609 2311.4 498.289C2313.72 495.969 2317.49 495.969 2319.81 498.289Z" fill="#B7D3F3"/>
<path d="M2258.12 517.568C2258.12 514.288 2260.77 511.635 2264.05 511.635C2267.35 511.635 2270 514.288 2270 517.568C2270 520.862 2267.35 523.515 2264.05 523.515C2260.77 523.515 2258.12 520.862 2258.12 517.568Z" fill="#B7D3F3"/>
<path d="M2221.85 319.035C2220.25 316.169 2216.64 315.142 2213.76 316.729C2210.89 318.329 2209.87 321.942 2211.45 324.809C2213.05 327.689 2216.67 328.716 2219.55 327.116C2222.41 325.529 2223.44 321.902 2221.85 319.035Z" fill="#B7D3F3"/>
<path d="M2180.76 351.689C2178 349.902 2174.32 350.702 2172.53 353.462C2170.76 356.222 2171.55 359.902 2174.31 361.675C2177.07 363.462 2180.75 362.662 2182.53 359.902C2184.31 357.142 2183.52 353.462 2180.76 351.689Z" fill="#B7D3F3"/>
<path d="M2160.4 402.222C2157.12 402.222 2154.45 404.876 2154.45 408.156C2154.45 411.449 2157.12 414.102 2160.4 414.102C2163.68 414.102 2166.35 411.449 2166.35 408.156C2166.35 404.876 2163.68 402.222 2160.4 402.222Z" fill="#B7D3F3"/>
<path d="M2170.8 460.862C2168.47 463.182 2168.47 466.942 2170.8 469.262C2173.12 471.582 2176.88 471.582 2179.2 469.262C2181.52 466.942 2181.52 463.182 2179.2 460.862C2176.88 458.542 2173.12 458.542 2170.8 460.862Z" fill="#B7D3F3"/>
<path d="M2208.12 498.289C2205.8 500.609 2205.8 504.369 2208.12 506.689C2210.44 509.009 2214.21 509.009 2216.53 506.689C2218.85 504.369 2218.85 500.609 2216.53 498.289C2214.21 495.969 2210.44 495.969 2208.12 498.289Z" fill="#B7D3F3"/>
<path d="M2262.45 408.156C2262.45 404.876 2265.12 402.222 2268.4 402.222C2271.68 402.222 2274.35 404.876 2274.35 408.156C2274.35 411.449 2271.68 414.102 2268.4 414.102C2265.12 414.102 2262.45 411.449 2262.45 408.156Z" fill="#B7D3F3"/>
<path d="M2269.21 408.155H2267.59V333.902H2269.21V408.155Z" fill="#B7D3F3"/>
<path d="M2269.16 409.969L2266.15 406.142L2305.52 375.235L2308.52 379.062L2269.16 409.969Z" fill="#B7D3F3"/>
<path d="M1657.17 1457.65C1620.48 1521.52 1574.33 1546.16 1574.33 1546.16H1382.35C1382.35 1546.16 1685.16 1408.94 1657.17 1457.65Z" fill="#233862"/>
<path d="M1893.96 2092.08C1891.89 2112.22 1919.91 2117.42 1952.4 2119.4C1984.89 2121.36 1975 2127.92 2019.47 2136.46C2063.93 2145.01 2081.92 2133.01 2085.21 2127.02C2088.13 2121.72 2067.51 2113.14 2045.53 2103.46C2042.77 2102.25 2040 2101.01 2037.24 2099.76C2012.51 2088.57 1998.8 2066.14 1979.65 2045.28C1961.52 2025.5 1944.77 1962.68 1944.77 1962.68L1884.36 1949.09C1884.36 1949.09 1900.76 2005.66 1906.4 2029.8C1909.72 2044 1904.43 2059.77 1899.76 2071.77C1897.24 2078.3 1894.69 2084.98 1893.96 2092.08Z" fill="#FFB27D"/>
<path d="M1952.4 2119.4C1984.89 2121.36 1975 2127.92 2019.47 2136.46C2063.93 2145.01 2081.92 2133.01 2085.21 2127.02C2088.13 2121.72 2067.51 2113.14 2045.53 2103.46L2045.19 2103.84C2045.19 2103.84 2013.75 2114.13 1977.69 2103.92C1948.31 2095.6 1920 2077.68 1899.76 2071.77C1897.24 2078.3 1894.69 2084.98 1893.96 2092.08C1891.89 2112.22 1919.91 2117.42 1952.4 2119.4Z" fill="#0F2549"/>
<path d="M1802.44 1392.24C1769.95 1369.42 1554.93 1328.73 1445.2 1316.96L1323.93 1211.68C1323.93 1211.68 1220.69 1364.58 1219.88 1481.56C1219.51 1536.09 1244.63 1541.5 1244.63 1541.52C1244.63 1541.52 1633.41 1544.41 1650.45 1546.16C1678.35 1549.04 1715.13 1618.53 1724.33 1681.82C1733.53 1745.12 1895.65 2002.54 1895.65 2002.54C1895.65 2002.54 1929.47 2013.38 1945.09 2012.46C1961.91 2011.48 1969.69 2005.84 1969.69 2005.84C1969.69 2005.84 1875.75 1443.72 1802.44 1392.24Z" fill="#233862"/>
<path d="M1793.4 2092.08C1791.33 2112.22 1819.35 2117.42 1851.84 2119.4C1884.33 2121.36 1874.44 2127.92 1918.91 2136.46C1963.37 2145.01 1981.36 2133.01 1984.64 2127.02C1987.57 2121.72 1966.95 2113.14 1944.97 2103.46C1942.21 2102.25 1939.44 2101.01 1936.68 2099.76C1911.95 2088.57 1898.24 2066.14 1879.09 2045.28C1860.96 2025.5 1844.21 1962.68 1844.21 1962.68L1783.8 1949.09C1783.8 1949.09 1800.2 2005.66 1805.84 2029.8C1809.16 2044 1803.87 2059.77 1799.2 2071.77C1796.67 2078.3 1794.13 2084.98 1793.4 2092.08Z" fill="#FFB27D"/>
<path d="M1851.84 2119.4C1884.33 2121.36 1874.44 2127.92 1918.91 2136.46C1963.37 2145.01 1981.36 2133.01 1984.64 2127.02C1987.57 2121.72 1966.95 2113.14 1944.97 2103.46L1944.63 2103.84C1944.63 2103.84 1913.19 2114.13 1877.13 2103.92C1847.75 2095.6 1819.44 2077.68 1799.2 2071.77C1796.67 2078.3 1794.13 2084.98 1793.4 2092.08C1791.33 2112.22 1819.35 2117.42 1851.84 2119.4Z" fill="#233862"/>
<path d="M1701 1392.24C1672.76 1372.41 1587.83 1357.04 1494.08 1345.64C1468.16 1342.48 1446.87 1323.64 1440.55 1298.3L1222.48 1211.68C1222.48 1211.68 1119.25 1364.58 1118.43 1481.56C1118.05 1536.09 1143.17 1541.5 1143.17 1541.52C1143.17 1541.52 1531.96 1544.41 1549 1546.16C1576.89 1549.04 1613.69 1618.53 1622.88 1681.82C1632.08 1745.12 1794.2 2002.54 1794.2 2002.54C1794.2 2002.54 1828.01 2013.38 1843.64 2012.46C1860.47 2011.48 1868.24 2005.84 1868.24 2005.84C1868.24 2005.84 1774.29 1443.72 1701 1392.24Z" fill="#2B478B"/>
<path d="M1409.2 576.422C1379.23 560.675 1333.64 558.555 1326.23 557.555C1237.59 545.649 1184.24 674.449 1181.09 713.475C1175.32 785.42 1137.27 796.38 1083.69 841.44C976.29 931.77 1007.79 1036.74 1066.52 1075.76C1101.75 1099.16 1163.87 1075.74 1163.87 1075.74C1164.75 1076.36 1333.73 981.28 1417.03 935.41C1541.91 917.66 1485.56 616.515 1409.2 576.422Z" fill="#233862"/>
<path d="M1390.71 891.1C1391.11 891.3 1351.32 909.4 1322.61 899.9C1295.6 891.01 1271.81 850.34 1272.19 850.28C1283.92 848.58 1295.83 837.01 1299.16 768.48L1304.35 769.78L1391.64 791.85C1391.64 791.85 1388.19 819.5 1386.76 845.65C1385.56 867.61 1385.81 888.49 1390.71 891.1Z" fill="#FFB27D"/>
<path d="M1391.64 791.85C1391.64 791.85 1391.64 797.54 1388.37 823.26C1339.01 810.81 1317.24 794.45 1301.89 775.72L1391.64 791.85Z" fill="#ED975D"/>
<path d="M1410.27 795.33C1410.27 795.33 1294.83 814.13 1284.24 742.06C1273.64 669.995 1251.6 623.889 1324.85 608.835C1398.11 593.795 1416.51 619.182 1425.89 642.382C1435.28 665.569 1440.01 788.58 1410.27 795.33Z" fill="#FFB27D"/>
<path d="M1410.37 605.822C1410.37 605.822 1357.96 688.568 1311.16 708.168C1264.36 727.768 1241.37 717.808 1241.37 717.808C1241.37 717.808 1262.67 685.528 1268.21 642.195C1269.84 629.408 1278.17 618.462 1290.12 613.675C1323.71 600.222 1388.67 579.009 1410.37 605.822Z" fill="#233862"/>
<path d="M1364.33 613.822C1364.33 613.822 1395.05 629.569 1407.71 644.342C1419.92 658.582 1434.03 697.235 1433.01 714.595C1433.01 714.595 1448.17 631.409 1416.6 602.809C1383.12 572.475 1364.33 613.822 1364.33 613.822Z" fill="#233862"/>
<path d="M1483.05 1067.16C1479.56 1301.8 1482.09 1252.76 1456.43 1275.02C1450.24 1280.38 1432.87 1283.58 1409.97 1285.09C1338.03 1289.86 1211.56 1278.02 1206.75 1264.72C1190.15 1218.72 1201.87 1204.42 1188.03 1133.98C1186.57 1126.49 1184.79 1118.38 1182.69 1109.56C1171.15 1061.18 1159.92 1044.72 1200.87 967.01C1238.01 896.61 1281.69 839.41 1285.16 841.48C1383.15 899.65 1386.51 850.89 1386.51 850.89C1386.51 850.89 1484.77 952.72 1483.05 1067.16Z" fill="white"/>
<path d="M1386.51 850.89C1386.51 850.89 1486.8 867.89 1498.64 911.29C1510.48 954.7 1580.15 1209.92 1580.15 1209.92C1580.15 1209.92 1528.89 1219.13 1505.21 1195.45C1481.53 1171.77 1422.81 975.76 1422.81 975.76L1386.51 850.89Z" fill="white"/>
<path d="M1409.97 1285.09C1338.03 1289.86 1211.56 1278.02 1206.75 1264.72C1190.15 1218.72 1201.87 1204.42 1188.03 1133.98L1222.72 1036.28C1222.72 1036.28 1216.99 1145.09 1249.08 1173.7C1281.13 1202.33 1380.47 1228.96 1396.07 1252.86C1403.59 1264.34 1408.53 1275.85 1409.97 1285.09Z" fill="#EBF3FF"/>
<path d="M1327.55 1239.33C1327.55 1239.33 1398.52 1223.53 1409.97 1229.82C1421.43 1236.12 1449.43 1259.06 1452.92 1267.05C1456.43 1275.02 1427.43 1260.98 1418 1258.45C1411.88 1256.81 1395.8 1262.41 1387.84 1265.06C1354.35 1276.22 1333.81 1270.48 1333.81 1270.48L1327.55 1239.33Z" fill="#FFB27D"/>
<path d="M1285.16 841.48C1285.16 841.48 1184.71 847.34 1151.71 893.36C1105.27 958.14 1013.13 1234.21 1065.93 1271.02C1125.4 1312.49 1336.57 1281.86 1336.57 1281.86C1336.57 1281.86 1343.6 1249.02 1333.81 1233.13C1324.04 1217.25 1165.16 1191.58 1157.83 1184.25C1150.49 1176.92 1249.48 1041.25 1249.48 1019.25C1249.48 997.25 1285.16 841.48 1285.16 841.48Z" fill="white"/>
<path d="M1413.41 1249.58C1413.41 1249.58 1428.28 1268.76 1433.16 1271.05C1438.04 1273.34 1441.19 1272.77 1441.19 1272.77L1431.16 1254.73L1413.41 1249.58Z" fill="#FFB27D"/>
<path d="M1409.97 1229.82L1453.21 1250.82C1453.21 1250.82 1451.37 1253.84 1446.05 1253.58C1440.73 1253.34 1427.31 1248.44 1427.31 1248.44L1409.97 1229.82Z" fill="#FFB27D"/>
<path d="M1569.27 1279.6H1368.44C1368.44 1270.76 1375.61 1263.6 1384.45 1263.6H1569.27V1279.6Z" fill="#ED7D2B"/>
<path d="M1568.68 1060.89H1879.17L1804.69 1279.6H1492.2L1568.68 1060.89Z" fill="#ED7D2B"/>
<path d="M1883.75 1060.88L1809.27 1279.6H1496.77L1573.27 1060.88H1883.75Z" fill="#F99746"/>
<path d="M1716.35 1168.22C1714.43 1176.58 1706.08 1183.36 1697.72 1183.36C1689.37 1183.36 1684.16 1176.58 1686.09 1168.22C1688.01 1159.86 1696.36 1153.09 1704.71 1153.09C1713.07 1153.09 1718.28 1159.86 1716.35 1168.22Z" fill="white"/>
<path d="M1299.03 1328.81H2659.68C2665.4 1328.81 2670.04 1324.17 2670.04 1318.45V1289.96C2670.04 1284.24 2665.4 1279.6 2659.68 1279.6H1299.03C1293.31 1279.6 1288.67 1284.24 1288.67 1289.96V1318.45C1288.67 1324.17 1293.31 1328.81 1299.03 1328.81Z" fill="#182D4F"/>
<path d="M2692.99 2139.36L2693.57 2139.29C2700.55 2138.42 2705.48 2132.2 2704.6 2125.38L2583.35 1304.64L2538.96 1305.9L2681.61 2131.1C2682.53 2136.38 2687.55 2140.02 2692.99 2139.36Z" fill="#182D4F"/>
<path d="M1253.47 2139.36L1252.88 2139.29C1245.91 2138.42 1240.97 2132.2 1241.85 2125.38L1363.11 1304.64L1407.49 1305.9L1264.83 2131.1C1263.92 2136.38 1258.91 2140.02 1253.47 2139.36Z" fill="#182D4F"/>
<path d="M1534.16 2139.36L1533.57 2139.29C1526.61 2138.42 1521.67 2132.2 1522.56 2125.38L1643.8 1304.64L1688.2 1305.9L1545.53 2131.1C1544.61 2136.38 1539.6 2140.02 1534.16 2139.36Z" fill="#182D4F"/>
<path d="M3773.88 2146.12H5.5148C2.6808 2146.12 0.362793 2143.8 0.362793 2140.97V2136.76C0.362793 2133.92 2.6808 2131.6 5.5148 2131.6H3773.88C3776.71 2131.6 3779.03 2133.92 3779.03 2136.76V2140.97C3779.03 2143.8 3776.71 2146.12 3773.88 2146.12Z" fill="#2E3552"/>
<path d="M2249.49 2138.69H2490.11C2501.68 2124.57 2497.41 2072.46 2495.67 2055.45C2495.29 2052.02 2495.05 2050.02 2495.05 2050.02C2495.05 2050.02 2412.89 1984.3 2401.6 2034.62C2401.25 2036.2 2400.84 2037.74 2400.39 2039.26C2386.17 2086.33 2322.39 2107.73 2285.56 2113.68C2261.61 2117.57 2252.77 2130.01 2249.49 2138.69Z" fill="#233862"/>
<path d="M2906.03 1356.88C2897.33 1356.88 2493.88 1432.62 2427.15 1515.24C2393.8 1556.5 2388.84 2033.12 2388.84 2033.12C2388.84 2033.12 2430.09 2084.25 2519.17 2054.56C2519.17 2054.56 2584.48 1728.48 2579.67 1629.57C2578.32 1602.22 2855.32 1625.61 2906.03 1612.49C2956.72 1599.37 3080.6 1489.08 3053.29 1435.36C3026 1381.62 2906.03 1356.88 2906.03 1356.88Z" fill="#233862"/>
<path d="M2428.87 1240.17C2428.87 1240.17 2347.49 1241.26 2328.24 1249.52C2309 1257.76 2269.95 1276.69 2280.4 1279.6C2290.85 1282.5 2340.71 1278.41 2351.48 1280.05C2362.25 1281.7 2375.53 1279.6 2382.13 1279.6C2388.73 1279.6 2419.51 1279.6 2419.51 1279.6L2428.87 1240.17Z" fill="#FFB27D"/>
<path d="M2333.72 1044.86C2333.72 1044.86 2305.97 1025.04 2279.03 1021.18C2263.67 1018.98 2248.72 1016.25 2239.69 1013.06C2214.83 1004.3 2165.08 959.58 2168.85 954.33C2180.91 937.52 2238.99 973.1 2249.12 969.28C2259.27 965.46 2229.64 944.4 2239.95 937C2245.32 933.12 2257.91 952.52 2268.2 954.46C2282.12 957.09 2293.01 976.76 2297.2 977.78C2305.36 979.78 2341.08 1006.34 2341.08 1006.34L2333.72 1044.86Z" fill="#FFB27D"/>
<path d="M2865.84 813.32C2865.84 813.32 2803.89 832.52 2742.85 1000.6C2681.81 1168.68 2658.63 1177.76 2636.44 1184.36C2614.25 1190.94 2419.51 1229.72 2419.51 1229.72V1279.6H2719.59C2719.59 1279.6 2832.11 1172.57 2865.84 1100.52C2899.57 1028.45 2865.84 813.32 2865.84 813.32Z" fill="#ED7D2B"/>
<path d="M2143.16 2138.69H2383.76C2395.33 2124.57 2391.07 2072.46 2389.32 2055.45C2388.96 2052.02 2388.72 2050.02 2388.72 2050.02C2388.72 2050.02 2306.55 1984.3 2295.27 2034.62C2294.92 2036.2 2294.51 2037.74 2294.05 2039.26C2279.83 2086.33 2216.05 2107.73 2179.23 2113.68C2155.28 2117.57 2146.43 2130.01 2143.16 2138.69Z" fill="#1B3051"/>
<path d="M2787.13 1356.88C2778.44 1356.88 2374.99 1432.62 2308.25 1515.24C2274.91 1556.5 2269.95 2033.12 2269.95 2033.12C2269.95 2033.12 2311.2 2084.25 2400.28 2054.56C2400.28 2054.56 2465.59 1728.48 2460.77 1629.57C2459.43 1602.22 2736.43 1625.61 2787.13 1612.49C2837.83 1599.37 2961.71 1489.08 2934.4 1435.36C2907.11 1381.62 2787.13 1356.88 2787.13 1356.88Z" fill="#2B478B"/>
<path d="M2812.39 866.58C2841.4 864.18 2871.84 856.45 2898.13 847.92C2931.01 837.25 2957.52 821.65 2940.44 791.61C2924.69 763.92 2899.23 702.036 2900.95 650.782L2839.77 700.089L2798.21 733.582C2798.21 733.582 2798.39 753.32 2802.92 787.92C2803.76 794.22 2804.72 801.04 2805.87 808.3C2806.8 814.18 2804.09 820.06 2799.04 823.2C2798.72 823.38 2798.41 823.58 2798.11 823.78C2777.45 836.76 2788.07 868.58 2812.39 866.58Z" fill="#FFB27D"/>
<path d="M2798.21 725.422C2798.21 725.422 2796.08 732.595 2799.73 759.06C2836.79 753.02 2871.43 723.475 2871.43 723.475C2852.56 718.289 2845.69 697.915 2831.65 699.809L2798.21 725.422Z" fill="#ED975D"/>
<path d="M2763.95 731.462C2763.95 731.462 2906.45 755.14 2919.84 666.168C2933.21 577.182 2960.61 520.315 2870.19 501.435C2779.76 482.555 2756.95 513.849 2745.25 542.462C2733.56 571.075 2727.21 723.008 2763.95 731.462Z" fill="#FFB27D"/>
<path d="M2724.29 503.089C2718.17 524.516 2734.55 550.609 2762.04 559.209C2802.85 571.956 2793.84 622.009 2812.2 621.342C2830.56 620.649 2837.97 592.556 2854.37 615.009C2868.37 634.156 2842.73 656.849 2844.49 667.356C2847.52 685.382 2875.76 722.262 2901.2 720.409C2926.65 718.555 2974.27 597.636 2964.73 560.222C2955.21 522.809 2917.12 483.356 2881.08 477.916C2845.03 472.476 2794.96 488.049 2783.4 488.049C2771.84 488.049 2727.6 491.516 2724.29 503.089Z" fill="#2B478B"/>
<path d="M3055.2 936.81C3034.6 853.9 2977.67 766.9 2939.17 766.98C2873.59 767.1 2779.28 784.41 2741.21 878.33C2713.17 947.5 2675.77 1345.41 2718.04 1373.7C2814.67 1438.4 3038.65 1570.46 3078.44 1435.78C3114.91 1312.4 3090.95 1080.69 3055.2 936.81Z" fill="#F99746"/>
<path d="M2895.88 854.3C2877.17 805.62 2816.81 788.8 2775.65 820.82C2753.39 838.14 2726.13 862.81 2693.2 897.88C2570.79 1028.22 2545.91 1027.42 2522.92 1024.73C2499.92 1022.04 2305.68 980.81 2305.68 980.81C2305.68 980.81 2295.73 988.14 2289.88 1000.01C2282.07 1015.85 2286 1026.64 2286 1026.64C2278.39 1021.73 2354.85 1074.44 2392.92 1095.45C2443.17 1123.2 2518.91 1149.22 2549.08 1159.1C2557.63 1161.9 2566.84 1161.76 2575.31 1158.7C2620.08 1142.57 2770.44 1083.77 2892.83 981.73C2925.08 954.84 2913.23 899.44 2895.88 854.3Z" fill="#F99746"/>
<path d="M2945.77 767.78L2930.93 734.315C2930.93 734.315 2798 745.16 2775.65 820.82C2775.65 820.82 2878.69 769.4 2945.77 767.78Z" fill="white"/>
<path d="M3268.52 2135.69L3269.44 2135.68C3276.95 2135.54 3282.73 2129.41 3282.03 2122.34L3231.96 1622.25L3188.27 1626.16L3260.16 2128.93C3260.73 2132.86 3264.32 2135.77 3268.52 2135.69Z" fill="#8CB4F4"/>
<path d="M3010.77 2135.69L3011.69 2135.68C3019.2 2135.54 3025 2129.41 3024.29 2122.34L2974.21 1622.25L2930.52 1626.16L3002.43 2128.93C3002.99 2132.86 3006.57 2135.77 3010.77 2135.69Z" fill="#8CB4F4"/>
<path d="M2526.91 2135.69L2525.99 2135.68C2518.49 2135.54 2512.69 2129.41 2513.4 2122.34L2563.47 1622.25L2607.16 1626.16L2535.27 2128.93C2534.71 2132.86 2531.11 2135.77 2526.91 2135.69Z" fill="#73A2E5"/>
<path d="M3254.37 1551.41L3301.89 1133.73C3308.12 1073.54 3287.99 1014.6 3201.12 1010.04L3048.32 1000.73C2957.75 997 2916.85 1072.37 2905.39 1130.4L2814.67 1589.54L3254.37 1551.41Z" fill="#8CB4F4"/>
<path d="M3228.83 1629.57H2550.63C2537 1629.57 2525.84 1618.42 2525.84 1604.8V1574.29C2525.84 1560.66 2537 1549.52 2550.63 1549.52H3253.6V1604.8C3253.6 1618.42 3242.45 1629.57 3228.83 1629.57Z" fill="#73A2E5"/>
<path d="M3234.36 1629.57H2833.91C2823.33 1629.57 2814.67 1620.9 2814.67 1610.33V1568.76C2814.67 1558.17 2823.33 1549.52 2833.91 1549.52H3253.6V1610.33C3253.6 1620.9 3244.95 1629.57 3234.36 1629.57Z" fill="#8CB4F4"/>
</svg>
