<svg width="308" height="288" viewBox="0 0 308 288" fill="none" xmlns="http://www.w3.org/2000/svg">
<path d="M204.593 287.321V205.921C204.593 149.202 250.637 102.926 307.6 102.926V184.325C307.363 241.281 261.318 287.321 204.593 287.321Z" fill="#DBA935"/>
<path d="M294.573 58.4596C299.547 37.5472 286.625 16.5622 265.71 11.5883C244.795 6.61435 223.808 19.535 218.833 40.4474C213.859 61.3598 226.781 82.3449 247.696 87.3188C268.611 92.2928 289.598 79.372 294.573 58.4596Z" fill="#CEEE99"/>
<path d="M97.8605 217.798V209.338C99.7408 209.338 101.308 209.651 103.188 209.651C160.849 209.651 207.543 162.65 207.543 105.308C207.543 78.0471 196.888 52.9798 179.652 34.4926C160.536 14.1253 133.272 0.964966 103.188 0.964966C51.7939 0.964966 8.86123 38.566 0.400024 87.4474H49.9137C57.4347 65.2001 78.4311 48.9063 103.501 48.9063C134.526 48.9063 159.909 74.287 159.909 105.308C159.909 128.495 145.807 148.236 126.065 157.009C124.184 157.636 122.304 158.576 120.424 159.203C115.096 160.769 109.456 161.71 103.815 161.71C79.0579 161.71 57.7481 145.416 50.2271 123.168H0.400024V287.046H49.9137V217.798C49.9137 256.025 80.9381 287.36 119.484 287.36H205.976V239.418H119.484C107.262 239.105 97.8605 229.705 97.8605 217.798Z" fill="#6CC166"/>
<path d="M185.606 67.3933C185.606 107.814 160.849 142.282 125.751 156.696C145.807 147.922 159.596 128.182 159.596 104.994C159.596 73.9734 134.212 48.5927 103.188 48.5927C78.4311 48.5927 57.1214 64.8865 49.6004 87.1338H0.400024C8.86122 37.9391 51.7939 0.651367 103.188 0.651367C133.272 0.651367 160.536 13.4984 179.652 34.179C183.413 44.5193 185.606 55.4862 185.606 67.3933Z" fill="#CEEE99"/>
</svg>
