<svg width="338" height="273" viewBox="0 0 338 273" fill="none" xmlns="http://www.w3.org/2000/svg">
<g clip-path="url(#clip0_381_769)">
<path d="M258.781 270.229C254.453 266.573 251.825 260.799 252.514 255.178C253.204 249.557 257.473 244.39 263.011 243.196C268.549 242.002 274.862 245.307 276.544 250.714C277.47 240.288 278.537 229.426 284.082 220.547C289.103 212.507 297.8 206.755 307.225 205.726C316.65 204.697 326.573 208.583 332.451 216.02C338.33 223.456 339.769 234.267 335.652 242.804C332.619 249.094 327.032 253.774 321.178 257.582C302.26 269.783 279.572 274.745 257.286 271.554L258.781 270.229Z" fill="url(#paint0_linear_381_769)"/>
<path d="M323.131 208.799C315.354 215.131 308.22 222.213 301.831 229.942C291.832 241.997 283.741 255.513 277.84 270.018C277.408 271.076 279.127 271.537 279.554 270.491C289.21 246.916 304.624 226.137 324.388 210.055C325.276 209.333 324.011 208.083 323.131 208.799Z" fill="url(#paint1_linear_381_769)"/>
<path d="M108.808 269.235C114.751 264.215 118.361 256.284 117.415 248.564C116.468 240.843 110.604 233.746 102.997 232.106C95.3908 230.467 86.7199 235.005 84.4096 242.433C83.1381 228.113 81.6729 213.192 74.0566 200.998C67.1601 189.955 55.2153 182.054 42.2699 180.641C29.3244 179.227 15.6946 184.566 7.62095 194.78C-0.452647 204.994 -2.42943 219.842 3.22511 231.568C7.39061 240.207 15.0649 246.636 23.1057 251.866C48.7586 268.552 80.5809 275.511 110.86 271.056" fill="url(#paint2_linear_381_769)"/>
<path d="M20.4225 184.862C31.1041 193.559 40.9033 203.286 49.6785 213.902C58.455 224.507 66.1818 235.938 72.7503 248.035C76.4218 254.82 79.72 261.801 82.6302 268.946C83.2235 270.4 80.8625 271.033 80.2757 269.595C75.1211 256.999 68.7438 244.937 61.2354 233.584C53.7635 222.272 45.2114 211.711 35.6994 202.05C30.3194 196.588 24.643 191.426 18.696 186.588C17.477 185.595 19.2136 183.878 20.4225 184.862L20.4225 184.862Z" fill="url(#paint3_linear_381_769)"/>
<path d="M242.622 272.071H100.817V126.631C100.817 95.6871 126.001 70.5128 156.956 70.5128H186.483C217.438 70.5128 242.622 95.6871 242.622 126.631V272.071Z" fill="#CEEE99"/>
<path d="M213.095 272.071H100.817V126.631C100.786 114.774 104.542 103.217 111.538 93.6418C111.796 93.2904 112.053 92.9436 112.319 92.6006C115.703 88.164 119.73 84.2568 124.267 81.0079C124.523 80.8214 124.78 80.6383 125.042 80.4551C128.838 77.8288 132.945 75.6818 137.269 74.0631C137.526 73.9658 137.787 73.8684 138.048 73.7749C141.959 72.3799 146.012 71.4244 150.134 70.9259C150.39 70.891 150.652 70.8637 150.914 70.8364C154.931 70.4071 158.982 70.4071 162.999 70.8364C163.261 70.8637 163.523 70.891 163.782 70.9263C167.902 71.4248 171.955 72.3802 175.864 73.7749C176.126 73.8684 176.387 73.9658 176.645 74.0633C180.915 75.6616 184.973 77.7765 188.73 80.3608C188.991 80.54 189.252 80.7232 189.509 80.9064C192.052 82.7211 194.441 84.7428 196.651 86.9508C198.424 88.7219 200.075 90.6098 201.595 92.6017C201.859 92.9436 202.116 93.2905 202.374 93.6413C209.37 103.216 213.126 114.774 213.095 126.631V272.071Z" fill="url(#paint4_linear_381_769)"/>
<path d="M203.966 174.981C207.399 174.981 210.182 172.199 210.182 168.767C210.182 165.336 207.399 162.554 203.966 162.554C200.532 162.554 197.749 165.336 197.749 168.767C197.749 172.199 200.532 174.981 203.966 174.981Z" fill="url(#paint5_linear_381_769)"/>
<path d="M326.338 272.321H39.5062C39.3838 272.32 39.2665 272.271 39.18 272.185C39.0935 272.098 39.045 271.981 39.045 271.858C39.045 271.736 39.0935 271.618 39.18 271.532C39.2665 271.445 39.3838 271.396 39.5062 271.396H326.338C326.46 271.396 326.577 271.445 326.664 271.532C326.75 271.618 326.799 271.736 326.799 271.858C326.799 271.981 326.75 272.098 326.664 272.185C326.577 272.271 326.46 272.32 326.338 272.321V272.321Z" fill="#3F3D56"/>
<path d="M182.209 229.934H131.703C131.038 229.937 130.399 229.677 129.925 229.21C129.452 228.743 129.183 228.107 129.178 227.442V114.753C129.183 114.088 129.452 113.452 129.925 112.985C130.399 112.518 131.038 112.258 131.703 112.261H182.209C182.874 112.258 183.514 112.518 183.987 112.985C184.461 113.452 184.729 114.088 184.734 114.753V227.442C184.729 228.107 184.461 228.743 183.987 229.21C183.514 229.677 182.874 229.937 182.209 229.934V229.934Z" fill="url(#paint6_linear_381_769)"/>
<path d="M184.734 148.724H129.178V149.501H184.734V148.724Z" fill="#CEEE99"/>
<path d="M184.929 193.04H129.372V193.816H184.929V193.04Z" fill="#CEEE99"/>
<path d="M147.438 112.261H146.661V230.322H147.438V112.261Z" fill="#CEEE99"/>
<path d="M166.863 112.261H166.086V230.322H166.863V112.261Z" fill="#CEEE99"/>
<path d="M242.426 266.634L237.162 266.633L234.658 246.051L242.428 246.051L242.426 266.634Z" fill="#FFC1C7"/>
<path d="M243.593 264.692L233.39 264.692H233.39C231.665 264.692 230.011 265.405 228.792 266.675C227.573 267.944 226.887 269.666 226.887 271.462V271.682L243.593 271.682L243.593 264.692Z" fill="#2F2E41"/>
<path d="M276.616 261.364L271.624 263.138L262.241 245.175L269.609 242.555L276.616 261.364Z" fill="#FFC1C7"/>
<path d="M277.017 259.255L267.338 262.862L267.337 262.862C265.701 263.472 264.369 264.722 263.633 266.338C262.898 267.953 262.819 269.802 263.414 271.477L263.487 271.682L279.336 265.776L277.017 259.255Z" fill="#2F2E41"/>
<path d="M243.85 129.155C241.2 128.572 238.154 129.737 238.154 129.737C238.154 129.737 235.494 130.597 232.747 132.555C230 134.513 229.106 136.431 228.053 137.893C227 139.355 223.779 147.431 223.779 147.431L227.196 164.857L228.904 180.157V248.161C228.904 248.161 242.044 251.561 247.645 248.161L245.558 208.634L259.65 250.711L275.451 244.761L257.515 185.683C257.804 181.314 257.069 176.938 255.369 172.9C253.831 169.304 251.129 166.324 247.693 164.432V161.032C247.693 161.032 251 140.513 251.11 139.355C251.219 138.198 250.5 136.513 249.615 134.98C248.73 133.448 246.5 129.737 243.85 129.155Z" fill="#2F2E41"/>
<path d="M235.629 127.601C229.943 127.601 225.333 122.994 225.333 117.31C225.333 111.626 229.943 107.018 235.629 107.018C241.315 107.018 245.924 111.626 245.924 117.31C245.924 122.994 241.315 127.601 235.629 127.601Z" fill="#FFC1C7"/>
<path d="M225.191 114.443C226.623 114.158 228.11 114.326 229.442 114.924C230.774 115.521 231.886 116.519 232.622 117.776C232.986 116.441 235.146 116.51 235.946 117.641C236.745 118.771 236.568 120.299 236.309 121.658C236.049 123.017 235.756 124.494 236.385 125.727C236.721 126.303 237.204 126.779 237.785 127.109C238.366 127.438 239.024 127.608 239.692 127.601C241.032 127.569 242.335 127.156 243.447 126.41C245.519 125.139 247.176 123.295 248.216 121.103C249.256 118.91 249.634 116.464 249.305 114.061C248.976 111.658 247.954 109.402 246.362 107.568C244.77 105.734 242.678 104.4 240.34 103.73C237.725 102.979 234.948 103.095 232.23 103.246C230.015 103.25 227.818 103.633 225.733 104.38C223.698 105.238 221.889 106.946 221.513 109.117C221.138 111.288 222.413 115.177 224.615 115.368" fill="#2F2E41"/>
<path d="M241.888 105.339C240.934 105.182 240.009 104.888 239.14 104.467C238.711 104.257 238.333 103.956 238.034 103.586C237.735 103.215 237.522 102.784 237.41 102.323C237.322 101.862 237.41 101.386 237.656 100.986C237.902 100.587 238.289 100.292 238.742 100.159C239.436 100.102 240.133 100.217 240.771 100.492C241.089 100.627 241.436 100.68 241.779 100.647C242.123 100.614 242.453 100.495 242.739 100.303C243.305 99.7769 243.169 98.826 243.653 98.2282C243.913 97.9689 244.246 97.7944 244.609 97.7279C244.971 97.6614 245.345 97.706 245.681 97.8559C246.353 98.1657 246.952 98.6101 247.442 99.1609L250.034 101.706C250.538 102.202 251.084 102.817 250.956 103.492C250.837 103.839 250.594 104.132 250.273 104.313C249.952 104.495 249.574 104.553 249.213 104.477C248.48 104.309 247.799 103.966 247.232 103.476C248.045 103.978 248.699 104.696 249.122 105.549C249.323 105.969 249.404 106.436 249.355 106.898C249.305 107.361 249.128 107.801 248.843 108.17C247.917 109.227 246.162 109.083 244.815 108.555C243.034 107.856 241.492 106.667 240.372 105.127" fill="#2F2E41"/>
<path d="M242.039 102.03C244.408 101.485 246.748 100.704 248.394 99.4038C250.039 98.1034 250.859 96.1949 249.925 94.5909C250.396 95.4047 250.624 96.338 250.581 97.2787C250.538 98.2194 250.225 99.1276 249.681 99.8941C248.262 101.731 246.223 102.983 243.949 103.412C243.469 103.562 242.956 103.56 242.477 103.408C242.05 103.217 242.036 102.655 242.533 102.582" fill="#2F2E41"/>
<path d="M212.615 163.831C212.821 163.949 213.016 164.084 213.201 164.233L233.471 157.891L234.61 152.845L242.428 153.575L241.275 162.705C241.182 163.442 240.853 164.13 240.337 164.664C239.821 165.198 239.147 165.55 238.415 165.666L214.558 169.471C214.211 170.318 213.614 171.038 212.849 171.536C212.083 172.035 211.184 172.287 210.272 172.261C209.36 172.234 208.477 171.93 207.742 171.388C207.006 170.846 206.453 170.092 206.154 169.227C205.856 168.362 205.828 167.426 206.073 166.544C206.318 165.662 206.825 164.876 207.527 164.29C208.228 163.705 209.09 163.347 209.999 163.265C210.908 163.183 211.821 163.38 212.615 163.831V163.831Z" fill="#FFC1C7"/>
<path d="M242.755 136.62C242.755 136.62 240.964 131.432 235.578 131.904C230.191 132.375 233.123 153.172 233.123 153.172L243.593 167.602L242.755 136.62Z" fill="#2F2E41"/>
</g>
<path d="M126.319 13.2408V38.5128H120.163V23.3568L114.511 38.5128H109.543L103.855 23.3208V38.5128H97.6988V13.2408H104.971L112.063 30.7368L119.083 13.2408H126.319ZM129.522 28.4328C129.522 26.3688 129.906 24.5568 130.674 22.9968C131.466 21.4368 132.534 20.2368 133.878 19.3968C135.222 18.5568 136.722 18.1368 138.378 18.1368C139.794 18.1368 141.03 18.4248 142.086 19.0008C143.166 19.5768 143.994 20.3328 144.57 21.2688V18.4248H150.726V38.5128H144.57V35.6688C143.97 36.6048 143.13 37.3608 142.05 37.9368C140.994 38.5128 139.758 38.8008 138.342 38.8008C136.71 38.8008 135.222 38.3808 133.878 37.5408C132.534 36.6768 131.466 35.4648 130.674 33.9048C129.906 32.3208 129.522 30.4968 129.522 28.4328ZM144.57 28.4688C144.57 26.9328 144.138 25.7208 143.274 24.8328C142.434 23.9448 141.402 23.5008 140.178 23.5008C138.954 23.5008 137.91 23.9448 137.046 24.8328C136.206 25.6968 135.786 26.8968 135.786 28.4328C135.786 29.9688 136.206 31.1928 137.046 32.1048C137.91 32.9928 138.954 33.4368 140.178 33.4368C141.402 33.4368 142.434 32.9928 143.274 32.1048C144.138 31.2168 144.57 30.0048 144.57 28.4688ZM163.351 38.8008C161.599 38.8008 160.039 38.5008 158.671 37.9008C157.303 37.3008 156.223 36.4848 155.431 35.4528C154.639 34.3968 154.195 33.2208 154.099 31.9248H160.183C160.255 32.6208 160.579 33.1848 161.155 33.6168C161.731 34.0488 162.439 34.2648 163.279 34.2648C164.047 34.2648 164.635 34.1208 165.043 33.8328C165.475 33.5208 165.691 33.1248 165.691 32.6448C165.691 32.0688 165.391 31.6488 164.791 31.3848C164.191 31.0968 163.219 30.7848 161.875 30.4488C160.435 30.1128 159.235 29.7648 158.275 29.4048C157.315 29.0208 156.487 28.4328 155.791 27.6408C155.095 26.8248 154.747 25.7328 154.747 24.3648C154.747 23.2128 155.059 22.1688 155.683 21.2328C156.331 20.2728 157.267 19.5168 158.491 18.9648C159.739 18.4128 161.215 18.1368 162.919 18.1368C165.439 18.1368 167.419 18.7608 168.859 20.0088C170.323 21.2568 171.163 22.9128 171.379 24.9768H165.691C165.595 24.2808 165.283 23.7288 164.755 23.3208C164.251 22.9128 163.579 22.7088 162.739 22.7088C162.019 22.7088 161.467 22.8528 161.083 23.1408C160.699 23.4048 160.507 23.7768 160.507 24.2568C160.507 24.8328 160.807 25.2648 161.407 25.5528C162.031 25.8408 162.991 26.1288 164.287 26.4168C165.775 26.8008 166.987 27.1848 167.923 27.5688C168.859 27.9288 169.675 28.5288 170.371 29.3688C171.091 30.1848 171.463 31.2888 171.487 32.6808C171.487 33.8568 171.151 34.9128 170.479 35.8488C169.831 36.7608 168.883 37.4808 167.635 38.0088C166.411 38.5368 164.983 38.8008 163.351 38.8008ZM195.089 18.4248V38.5128H188.933V35.7768C188.309 36.6648 187.457 37.3848 186.377 37.9368C185.321 38.4648 184.145 38.7288 182.849 38.7288C181.313 38.7288 179.957 38.3928 178.781 37.7208C177.605 37.0248 176.693 36.0288 176.045 34.7328C175.397 33.4368 175.073 31.9128 175.073 30.1608V18.4248H181.193V29.3328C181.193 30.6768 181.541 31.7208 182.237 32.4648C182.933 33.2088 183.869 33.5808 185.045 33.5808C186.245 33.5808 187.193 33.2088 187.889 32.4648C188.585 31.7208 188.933 30.6768 188.933 29.3328V18.4248H195.089ZM211.787 38.5128L205.667 30.0888V38.5128H199.511V11.8728H205.667V26.5968L211.751 18.4248H219.347L210.995 28.5048L219.419 38.5128H211.787Z" fill="url(#paint7_linear_381_769)"/>
<defs>
<linearGradient id="paint0_linear_381_769" x1="295.202" y1="205.562" x2="295.202" y2="272.498" gradientUnits="userSpaceOnUse">
<stop stop-color="#CEEE99"/>
<stop offset="1" stop-color="#6CC166"/>
</linearGradient>
<linearGradient id="paint1_linear_381_769" x1="301.231" y1="208.585" x2="301.231" y2="271.081" gradientUnits="userSpaceOnUse">
<stop stop-color="#6CC166"/>
<stop offset="1" stop-color="#43A73C"/>
</linearGradient>
<linearGradient id="paint2_linear_381_769" x1="58.7824" y1="180.417" x2="58.7824" y2="272.373" gradientUnits="userSpaceOnUse">
<stop stop-color="#CEEE99"/>
<stop offset="1" stop-color="#6CC166"/>
</linearGradient>
<linearGradient id="paint3_linear_381_769" x1="50.5029" y1="184.568" x2="50.5029" y2="270.407" gradientUnits="userSpaceOnUse">
<stop stop-color="#6CC166"/>
<stop offset="1" stop-color="#43A73C"/>
</linearGradient>
<linearGradient id="paint4_linear_381_769" x1="156.956" y1="70.5144" x2="156.956" y2="272.071" gradientUnits="userSpaceOnUse">
<stop stop-color="#6CC166"/>
<stop offset="1" stop-color="#43A73C"/>
</linearGradient>
<linearGradient id="paint5_linear_381_769" x1="203.966" y1="162.554" x2="203.966" y2="174.981" gradientUnits="userSpaceOnUse">
<stop stop-color="#CEEE99"/>
<stop offset="1" stop-color="#6CC166"/>
</linearGradient>
<linearGradient id="paint6_linear_381_769" x1="156.956" y1="112.261" x2="156.956" y2="229.934" gradientUnits="userSpaceOnUse">
<stop stop-color="#CEEE99"/>
<stop offset="1" stop-color="#6CC166"/>
</linearGradient>
<linearGradient id="paint7_linear_381_769" x1="157.5" y1="0.512817" x2="157.5" y2="50.5128" gradientUnits="userSpaceOnUse">
<stop stop-color="#CEEE99"/>
<stop offset="1" stop-color="#6CC166"/>
</linearGradient>
<clipPath id="clip0_381_769">
<rect width="338" height="202" fill="white" transform="translate(0 70.5128)"/>
</clipPath>
</defs>
</svg>
