<svg width="154" height="20" viewBox="0 0 154 20" fill="none" xmlns="http://www.w3.org/2000/svg">
<path d="M6.54683 14.1146L3.77483 9.21856H2.58683V14.1146H0.0668335V1.55056H4.78283C5.75483 1.55056 6.58283 1.72456 7.26683 2.07256C7.95083 2.40856 8.46083 2.87056 8.79683 3.45856C9.14483 4.03456 9.31883 4.68256 9.31883 5.40256C9.31883 6.23056 9.07883 6.98056 8.59883 7.65256C8.11883 8.31256 7.40483 8.76856 6.45683 9.02056L9.46283 14.1146H6.54683ZM2.58683 7.32856H4.69283C5.37683 7.32856 5.88683 7.16656 6.22283 6.84256C6.55883 6.50656 6.72683 6.04456 6.72683 5.45656C6.72683 4.88056 6.55883 4.43656 6.22283 4.12456C5.88683 3.80056 5.37683 3.63856 4.69283 3.63856H2.58683V7.32856Z" fill="url(#paint0_linear_381_768)"/>
<path d="M21.0121 4.14256V14.1146H18.4741V12.8546C18.1501 13.2866 17.7241 13.6286 17.1961 13.8806C16.6801 14.1206 16.1161 14.2406 15.5041 14.2406C14.7241 14.2406 14.0341 14.0786 13.4341 13.7546C12.8341 13.4186 12.3601 12.9326 12.0121 12.2966C11.6761 11.6486 11.5081 10.8806 11.5081 9.99256V4.14256H14.0281V9.63256C14.0281 10.4246 14.2261 11.0366 14.6221 11.4686C15.0181 11.8886 15.5581 12.0986 16.2421 12.0986C16.9381 12.0986 17.4841 11.8886 17.8801 11.4686C18.2761 11.0366 18.4741 10.4246 18.4741 9.63256V4.14256H21.0121Z" fill="url(#paint1_linear_381_768)"/>
<path d="M22.8505 9.09256C22.8505 8.08456 23.0485 7.19056 23.4445 6.41056C23.8525 5.63056 24.3985 5.03056 25.0825 4.61056C25.7785 4.19056 26.5525 3.98056 27.4045 3.98056C28.1485 3.98056 28.7965 4.13056 29.3485 4.43056C29.9125 4.73056 30.3625 5.10856 30.6985 5.56456V4.14256H33.2365V14.1146H30.6985V12.6566C30.3745 13.1246 29.9245 13.5146 29.3485 13.8266C28.7845 14.1266 28.1305 14.2766 27.3865 14.2766C26.5465 14.2766 25.7785 14.0606 25.0825 13.6286C24.3985 13.1966 23.8525 12.5906 23.4445 11.8106C23.0485 11.0186 22.8505 10.1126 22.8505 9.09256ZM30.6985 9.12856C30.6985 8.51656 30.5785 7.99456 30.3385 7.56256C30.0985 7.11856 29.7745 6.78256 29.3665 6.55456C28.9585 6.31456 28.5205 6.19456 28.0525 6.19456C27.5845 6.19456 27.1525 6.30856 26.7565 6.53656C26.3605 6.76456 26.0365 7.10056 25.7845 7.54456C25.5445 7.97656 25.4245 8.49256 25.4245 9.09256C25.4245 9.69256 25.5445 10.2206 25.7845 10.6766C26.0365 11.1206 26.3605 11.4626 26.7565 11.7026C27.1645 11.9426 27.5965 12.0626 28.0525 12.0626C28.5205 12.0626 28.9585 11.9486 29.3665 11.7206C29.7745 11.4806 30.0985 11.1446 30.3385 10.7126C30.5785 10.2686 30.6985 9.74056 30.6985 9.12856Z" fill="url(#paint2_linear_381_768)"/>
<path d="M41.2237 3.99856C42.4117 3.99856 43.3717 4.37656 44.1037 5.13256C44.8357 5.87656 45.2017 6.92056 45.2017 8.26456V14.1146H42.6817V8.60656C42.6817 7.81456 42.4837 7.20856 42.0877 6.78856C41.6917 6.35656 41.1517 6.14056 40.4677 6.14056C39.7717 6.14056 39.2197 6.35656 38.8117 6.78856C38.4157 7.20856 38.2177 7.81456 38.2177 8.60656V14.1146H35.6977V4.14256H38.2177V5.38456C38.5537 4.95256 38.9797 4.61656 39.4957 4.37656C40.0237 4.12456 40.5997 3.99856 41.2237 3.99856Z" fill="url(#paint3_linear_381_768)"/>
<path d="M51.5041 3.98056C52.2481 3.98056 52.9021 4.13056 53.4661 4.43056C54.0301 4.71856 54.4741 5.09656 54.7981 5.56456V4.14256H57.3361V14.1866C57.3361 15.1106 57.1501 15.9326 56.7781 16.6526C56.4061 17.3846 55.8481 17.9606 55.1041 18.3806C54.3601 18.8126 53.4601 19.0286 52.4041 19.0286C50.9881 19.0286 49.8241 18.6986 48.9121 18.0386C48.0121 17.3786 47.5021 16.4786 47.3821 15.3386H49.8841C50.0161 15.7946 50.2981 16.1546 50.7301 16.4186C51.1741 16.6946 51.7081 16.8326 52.3321 16.8326C53.0641 16.8326 53.6581 16.6106 54.1141 16.1666C54.5701 15.7346 54.7981 15.0746 54.7981 14.1866V12.6386C54.4741 13.1066 54.0241 13.4966 53.4481 13.8086C52.8841 14.1206 52.2361 14.2766 51.5041 14.2766C50.6641 14.2766 49.8961 14.0606 49.2001 13.6286C48.5041 13.1966 47.9521 12.5906 47.5441 11.8106C47.1481 11.0186 46.9501 10.1126 46.9501 9.09256C46.9501 8.08456 47.1481 7.19056 47.5441 6.41056C47.9521 5.63056 48.4981 5.03056 49.1821 4.61056C49.8781 4.19056 50.6521 3.98056 51.5041 3.98056ZM54.7981 9.12856C54.7981 8.51656 54.6781 7.99456 54.4381 7.56256C54.1981 7.11856 53.8741 6.78256 53.4661 6.55456C53.0581 6.31456 52.6201 6.19456 52.1521 6.19456C51.6841 6.19456 51.2521 6.30856 50.8561 6.53656C50.4601 6.76456 50.1361 7.10056 49.8841 7.54456C49.6441 7.97656 49.5241 8.49256 49.5241 9.09256C49.5241 9.69256 49.6441 10.2206 49.8841 10.6766C50.1361 11.1206 50.4601 11.4626 50.8561 11.7026C51.2641 11.9426 51.6961 12.0626 52.1521 12.0626C52.6201 12.0626 53.0581 11.9486 53.4661 11.7206C53.8741 11.4806 54.1981 11.1446 54.4381 10.7126C54.6781 10.2686 54.7981 9.74056 54.7981 9.12856Z" fill="url(#paint4_linear_381_768)"/>
<path d="M64.1893 1.55056C65.5093 1.55056 66.6673 1.80856 67.6633 2.32456C68.6713 2.84056 69.4453 3.57856 69.9853 4.53856C70.5373 5.48656 70.8133 6.59056 70.8133 7.85056C70.8133 9.11056 70.5373 10.2146 69.9853 11.1626C69.4453 12.0986 68.6713 12.8246 67.6633 13.3406C66.6673 13.8566 65.5093 14.1146 64.1893 14.1146H59.7973V1.55056H64.1893ZM64.0993 11.9726C65.4193 11.9726 66.4393 11.6126 67.1593 10.8926C67.8793 10.1726 68.2393 9.15856 68.2393 7.85056C68.2393 6.54256 67.8793 5.52256 67.1593 4.79056C66.4393 4.04656 65.4193 3.67456 64.0993 3.67456H62.3173V11.9726H64.0993Z" fill="url(#paint5_linear_381_768)"/>
<path d="M73.9776 2.95456C73.5336 2.95456 73.1616 2.81656 72.8616 2.54056C72.5736 2.25256 72.4296 1.89856 72.4296 1.47856C72.4296 1.05856 72.5736 0.710563 72.8616 0.434563C73.1616 0.146563 73.5336 0.00256348 73.9776 0.00256348C74.4216 0.00256348 74.7877 0.146563 75.0757 0.434563C75.3757 0.710563 75.5257 1.05856 75.5257 1.47856C75.5257 1.89856 75.3757 2.25256 75.0757 2.54056C74.7877 2.81656 74.4216 2.95456 73.9776 2.95456ZM75.2197 4.14256V14.1146H72.6996V4.14256H75.2197Z" fill="url(#paint6_linear_381_768)"/>
<path d="M81.5254 14.2766C80.7094 14.2766 79.9774 14.1326 79.3294 13.8446C78.6814 13.5446 78.1654 13.1426 77.7814 12.6386C77.4094 12.1346 77.2054 11.5766 77.1694 10.9646H79.7074C79.7554 11.3486 79.9414 11.6666 80.2654 11.9186C80.6014 12.1706 81.0154 12.2966 81.5074 12.2966C81.9874 12.2966 82.3594 12.2006 82.6234 12.0086C82.8994 11.8166 83.0374 11.5706 83.0374 11.2706C83.0374 10.9466 82.8694 10.7066 82.5334 10.5506C82.2094 10.3826 81.6874 10.2026 80.9674 10.0106C80.2234 9.83056 79.6114 9.64456 79.1314 9.45256C78.6634 9.26056 78.2554 8.96656 77.9074 8.57056C77.5714 8.17456 77.4034 7.64056 77.4034 6.96856C77.4034 6.41656 77.5594 5.91256 77.8714 5.45656C78.1954 5.00056 78.6514 4.64056 79.2394 4.37656C79.8394 4.11256 80.5414 3.98056 81.3454 3.98056C82.5334 3.98056 83.4814 4.28056 84.1894 4.88056C84.8974 5.46856 85.2874 6.26656 85.3594 7.27456H82.9474C82.9114 6.87856 82.7434 6.56656 82.4434 6.33856C82.1554 6.09856 81.7654 5.97856 81.2734 5.97856C80.8174 5.97856 80.4634 6.06256 80.2114 6.23056C79.9714 6.39856 79.8514 6.63256 79.8514 6.93256C79.8514 7.26856 80.0194 7.52656 80.3554 7.70656C80.6914 7.87456 81.2134 8.04856 81.9214 8.22856C82.6414 8.40856 83.2354 8.59456 83.7034 8.78656C84.1714 8.97856 84.5734 9.27856 84.9094 9.68656C85.2574 10.0826 85.4374 10.6106 85.4494 11.2706C85.4494 11.8466 85.2874 12.3626 84.9634 12.8186C84.6514 13.2746 84.1954 13.6346 83.5954 13.8986C83.0074 14.1506 82.3174 14.2766 81.5254 14.2766Z" fill="url(#paint7_linear_381_768)"/>
<path d="M86.87 9.09256C86.87 8.08456 87.068 7.19056 87.464 6.41056C87.872 5.63056 88.418 5.03056 89.102 4.61056C89.798 4.19056 90.572 3.98056 91.424 3.98056C92.168 3.98056 92.816 4.13056 93.368 4.43056C93.932 4.73056 94.382 5.10856 94.718 5.56456V4.14256H97.256V14.1146H94.718V12.6566C94.394 13.1246 93.944 13.5146 93.368 13.8266C92.804 14.1266 92.15 14.2766 91.406 14.2766C90.566 14.2766 89.798 14.0606 89.102 13.6286C88.418 13.1966 87.872 12.5906 87.464 11.8106C87.068 11.0186 86.87 10.1126 86.87 9.09256ZM94.718 9.12856C94.718 8.51656 94.598 7.99456 94.358 7.56256C94.118 7.11856 93.794 6.78256 93.386 6.55456C92.978 6.31456 92.54 6.19456 92.072 6.19456C91.604 6.19456 91.172 6.30856 90.776 6.53656C90.38 6.76456 90.056 7.10056 89.804 7.54456C89.564 7.97656 89.444 8.49256 89.444 9.09256C89.444 9.69256 89.564 10.2206 89.804 10.6766C90.056 11.1206 90.38 11.4626 90.776 11.7026C91.184 11.9426 91.616 12.0626 92.072 12.0626C92.54 12.0626 92.978 11.9486 93.386 11.7206C93.794 11.4806 94.118 11.1446 94.358 10.7126C94.598 10.2686 94.718 9.74056 94.718 9.12856Z" fill="url(#paint8_linear_381_768)"/>
<path d="M102.237 5.60056C102.561 5.12056 103.005 4.73056 103.569 4.43056C104.145 4.13056 104.799 3.98056 105.531 3.98056C106.383 3.98056 107.151 4.19056 107.835 4.61056C108.531 5.03056 109.077 5.63056 109.473 6.41056C109.881 7.17856 110.085 8.07256 110.085 9.09256C110.085 10.1126 109.881 11.0186 109.473 11.8106C109.077 12.5906 108.531 13.1966 107.835 13.6286C107.151 14.0606 106.383 14.2766 105.531 14.2766C104.787 14.2766 104.133 14.1326 103.569 13.8446C103.017 13.5446 102.573 13.1606 102.237 12.6926V14.1146H99.7172V0.794564H102.237V5.60056ZM107.511 9.09256C107.511 8.49256 107.385 7.97656 107.133 7.54456C106.893 7.10056 106.569 6.76456 106.161 6.53656C105.765 6.30856 105.333 6.19456 104.865 6.19456C104.409 6.19456 103.977 6.31456 103.569 6.55456C103.173 6.78256 102.849 7.11856 102.597 7.56256C102.357 8.00656 102.237 8.52856 102.237 9.12856C102.237 9.72856 102.357 10.2506 102.597 10.6946C102.849 11.1386 103.173 11.4806 103.569 11.7206C103.977 11.9486 104.409 12.0626 104.865 12.0626C105.333 12.0626 105.765 11.9426 106.161 11.7026C106.569 11.4626 106.893 11.1206 107.133 10.6766C107.385 10.2326 107.511 9.70456 107.511 9.09256Z" fill="url(#paint9_linear_381_768)"/>
<path d="M113.194 2.95456C112.75 2.95456 112.378 2.81656 112.078 2.54056C111.79 2.25256 111.646 1.89856 111.646 1.47856C111.646 1.05856 111.79 0.710563 112.078 0.434563C112.378 0.146563 112.75 0.00256348 113.194 0.00256348C113.638 0.00256348 114.004 0.146563 114.292 0.434563C114.592 0.710563 114.742 1.05856 114.742 1.47856C114.742 1.89856 114.592 2.25256 114.292 2.54056C114.004 2.81656 113.638 2.95456 113.194 2.95456ZM114.436 4.14256V14.1146H111.916V4.14256H114.436Z" fill="url(#paint10_linear_381_768)"/>
<path d="M119.446 0.794564V14.1146H116.926V0.794564H119.446Z" fill="url(#paint11_linear_381_768)"/>
<path d="M123.214 2.95456C122.77 2.95456 122.398 2.81656 122.098 2.54056C121.81 2.25256 121.666 1.89856 121.666 1.47856C121.666 1.05856 121.81 0.710563 122.098 0.434563C122.398 0.146563 122.77 0.00256348 123.214 0.00256348C123.658 0.00256348 124.024 0.146563 124.312 0.434563C124.612 0.710563 124.762 1.05856 124.762 1.47856C124.762 1.89856 124.612 2.25256 124.312 2.54056C124.024 2.81656 123.658 2.95456 123.214 2.95456ZM124.456 4.14256V14.1146H121.936V4.14256H124.456Z" fill="url(#paint12_linear_381_768)"/>
<path d="M129.88 6.21256V11.0366C129.88 11.3726 129.958 11.6186 130.114 11.7746C130.282 11.9186 130.558 11.9906 130.942 11.9906H132.112V14.1146H130.528C128.404 14.1146 127.342 13.0826 127.342 11.0186V6.21256H126.154V4.14256H127.342V1.67656H129.88V4.14256H132.112V6.21256H129.88Z" fill="url(#paint13_linear_381_768)"/>
<path d="M133.276 9.09256C133.276 8.08456 133.474 7.19056 133.87 6.41056C134.278 5.63056 134.824 5.03056 135.508 4.61056C136.204 4.19056 136.978 3.98056 137.83 3.98056C138.574 3.98056 139.222 4.13056 139.774 4.43056C140.338 4.73056 140.788 5.10856 141.124 5.56456V4.14256H143.662V14.1146H141.124V12.6566C140.8 13.1246 140.35 13.5146 139.774 13.8266C139.21 14.1266 138.556 14.2766 137.812 14.2766C136.972 14.2766 136.204 14.0606 135.508 13.6286C134.824 13.1966 134.278 12.5906 133.87 11.8106C133.474 11.0186 133.276 10.1126 133.276 9.09256ZM141.124 9.12856C141.124 8.51656 141.004 7.99456 140.764 7.56256C140.524 7.11856 140.2 6.78256 139.792 6.55456C139.384 6.31456 138.946 6.19456 138.478 6.19456C138.01 6.19456 137.578 6.30856 137.182 6.53656C136.786 6.76456 136.462 7.10056 136.21 7.54456C135.97 7.97656 135.85 8.49256 135.85 9.09256C135.85 9.69256 135.97 10.2206 136.21 10.6766C136.462 11.1206 136.786 11.4626 137.182 11.7026C137.59 11.9426 138.022 12.0626 138.478 12.0626C138.946 12.0626 139.384 11.9486 139.792 11.7206C140.2 11.4806 140.524 11.1446 140.764 10.7126C141.004 10.2686 141.124 9.74056 141.124 9.12856Z" fill="url(#paint14_linear_381_768)"/>
<path d="M149.939 14.2766C149.123 14.2766 148.391 14.1326 147.743 13.8446C147.095 13.5446 146.579 13.1426 146.195 12.6386C145.823 12.1346 145.619 11.5766 145.583 10.9646H148.121C148.169 11.3486 148.355 11.6666 148.679 11.9186C149.015 12.1706 149.429 12.2966 149.921 12.2966C150.401 12.2966 150.773 12.2006 151.037 12.0086C151.313 11.8166 151.451 11.5706 151.451 11.2706C151.451 10.9466 151.283 10.7066 150.947 10.5506C150.623 10.3826 150.101 10.2026 149.381 10.0106C148.637 9.83056 148.025 9.64456 147.545 9.45256C147.077 9.26056 146.669 8.96656 146.321 8.57056C145.985 8.17456 145.817 7.64056 145.817 6.96856C145.817 6.41656 145.973 5.91256 146.285 5.45656C146.609 5.00056 147.065 4.64056 147.653 4.37656C148.253 4.11256 148.955 3.98056 149.759 3.98056C150.947 3.98056 151.895 4.28056 152.603 4.88056C153.311 5.46856 153.701 6.26656 153.773 7.27456H151.361C151.325 6.87856 151.157 6.56656 150.857 6.33856C150.569 6.09856 150.179 5.97856 149.687 5.97856C149.231 5.97856 148.877 6.06256 148.625 6.23056C148.385 6.39856 148.265 6.63256 148.265 6.93256C148.265 7.26856 148.433 7.52656 148.769 7.70656C149.105 7.87456 149.627 8.04856 150.335 8.22856C151.055 8.40856 151.649 8.59456 152.117 8.78656C152.585 8.97856 152.987 9.27856 153.323 9.68656C153.671 10.0826 153.851 10.6106 153.863 11.2706C153.863 11.8466 153.701 12.3626 153.377 12.8186C153.065 13.2746 152.609 13.6346 152.009 13.8986C151.421 14.1506 150.731 14.2766 149.939 14.2766Z" fill="url(#paint15_linear_381_768)"/>
<defs>
<linearGradient id="paint0_linear_381_768" x1="76.7574" y1="-5.88538" x2="76.7574" y2="21.1146" gradientUnits="userSpaceOnUse">
<stop stop-color="#CEEE99"/>
<stop offset="1" stop-color="#6CC166"/>
</linearGradient>
<linearGradient id="paint1_linear_381_768" x1="76.7574" y1="-5.88538" x2="76.7574" y2="21.1146" gradientUnits="userSpaceOnUse">
<stop stop-color="#CEEE99"/>
<stop offset="1" stop-color="#6CC166"/>
</linearGradient>
<linearGradient id="paint2_linear_381_768" x1="76.7574" y1="-5.88538" x2="76.7574" y2="21.1146" gradientUnits="userSpaceOnUse">
<stop stop-color="#CEEE99"/>
<stop offset="1" stop-color="#6CC166"/>
</linearGradient>
<linearGradient id="paint3_linear_381_768" x1="76.7574" y1="-5.88538" x2="76.7574" y2="21.1146" gradientUnits="userSpaceOnUse">
<stop stop-color="#CEEE99"/>
<stop offset="1" stop-color="#6CC166"/>
</linearGradient>
<linearGradient id="paint4_linear_381_768" x1="76.7574" y1="-5.88538" x2="76.7574" y2="21.1146" gradientUnits="userSpaceOnUse">
<stop stop-color="#CEEE99"/>
<stop offset="1" stop-color="#6CC166"/>
</linearGradient>
<linearGradient id="paint5_linear_381_768" x1="76.7574" y1="-5.88538" x2="76.7574" y2="21.1146" gradientUnits="userSpaceOnUse">
<stop stop-color="#CEEE99"/>
<stop offset="1" stop-color="#6CC166"/>
</linearGradient>
<linearGradient id="paint6_linear_381_768" x1="76.7574" y1="-5.88538" x2="76.7574" y2="21.1146" gradientUnits="userSpaceOnUse">
<stop stop-color="#CEEE99"/>
<stop offset="1" stop-color="#6CC166"/>
</linearGradient>
<linearGradient id="paint7_linear_381_768" x1="76.7574" y1="-5.88538" x2="76.7574" y2="21.1146" gradientUnits="userSpaceOnUse">
<stop stop-color="#CEEE99"/>
<stop offset="1" stop-color="#6CC166"/>
</linearGradient>
<linearGradient id="paint8_linear_381_768" x1="76.7574" y1="-5.88538" x2="76.7574" y2="21.1146" gradientUnits="userSpaceOnUse">
<stop stop-color="#CEEE99"/>
<stop offset="1" stop-color="#6CC166"/>
</linearGradient>
<linearGradient id="paint9_linear_381_768" x1="76.7574" y1="-5.88538" x2="76.7574" y2="21.1146" gradientUnits="userSpaceOnUse">
<stop stop-color="#CEEE99"/>
<stop offset="1" stop-color="#6CC166"/>
</linearGradient>
<linearGradient id="paint10_linear_381_768" x1="76.7574" y1="-5.88538" x2="76.7574" y2="21.1146" gradientUnits="userSpaceOnUse">
<stop stop-color="#CEEE99"/>
<stop offset="1" stop-color="#6CC166"/>
</linearGradient>
<linearGradient id="paint11_linear_381_768" x1="76.7574" y1="-5.88538" x2="76.7574" y2="21.1146" gradientUnits="userSpaceOnUse">
<stop stop-color="#CEEE99"/>
<stop offset="1" stop-color="#6CC166"/>
</linearGradient>
<linearGradient id="paint12_linear_381_768" x1="76.7574" y1="-5.88538" x2="76.7574" y2="21.1146" gradientUnits="userSpaceOnUse">
<stop stop-color="#CEEE99"/>
<stop offset="1" stop-color="#6CC166"/>
</linearGradient>
<linearGradient id="paint13_linear_381_768" x1="76.7574" y1="-5.88538" x2="76.7574" y2="21.1146" gradientUnits="userSpaceOnUse">
<stop stop-color="#CEEE99"/>
<stop offset="1" stop-color="#6CC166"/>
</linearGradient>
<linearGradient id="paint14_linear_381_768" x1="76.7574" y1="-5.88538" x2="76.7574" y2="21.1146" gradientUnits="userSpaceOnUse">
<stop stop-color="#CEEE99"/>
<stop offset="1" stop-color="#6CC166"/>
</linearGradient>
<linearGradient id="paint15_linear_381_768" x1="76.7574" y1="-5.88538" x2="76.7574" y2="21.1146" gradientUnits="userSpaceOnUse">
<stop stop-color="#CEEE99"/>
<stop offset="1" stop-color="#6CC166"/>
</linearGradient>
</defs>
</svg>
