<svg width="573" height="578" viewBox="0 0 573 578" fill="none" xmlns="http://www.w3.org/2000/svg">
<mask id="mask0_361_1620" style="mask-type:luminance" maskUnits="userSpaceOnUse" x="6" y="0" width="563" height="565">
<path d="M295.977 564.862C261.881 564.862 235.832 560.093 225.443 557.984C193.977 551.593 137.989 540.22 89.7154 500.58H487.121C481.795 504.903 476.84 508.457 472.471 511.591C412.324 554.745 345.625 564.862 295.977 564.862ZM38.1834 438.967C-13.8317 346.347 2.20105 221.058 56.8153 134.954C68.1177 117.134 127.822 18.2318 249.168 2.36982C261.212 0.796822 273.597 7.62939e-06 286.136 7.62939e-06C350.062 7.62939e-06 418.379 20.6469 470.205 64.065C575.688 152.431 589.573 313.886 544.449 420.928L547.469 212.322C547.469 207.561 542.06 198.429 532.115 198.429C531.746 198.429 531.37 198.441 530.986 198.468L469.74 196.883L464.158 87.2531C463.419 72.7474 451.441 61.3628 436.913 61.3628H198.845C188.645 60.1531 180.331 59.0715 174.406 58.2685C173.991 58.2127 173.582 58.1859 173.18 58.1859C170.007 58.1859 167.168 59.8621 165.568 62.4136C152.358 65.9476 142.632 78.001 142.632 92.325V188.421L55.9936 186.18C55.7979 186.173 55.6016 186.171 55.4063 186.171C49.4136 186.171 43.6558 188.543 39.4025 192.783C35.0103 197.16 32.6069 203.146 32.7535 209.341L38.1834 438.967Z" fill="white"/>
</mask>
<g mask="url(#mask0_361_1620)">
<path d="M295.977 564.863C261.88 564.863 235.831 560.094 225.443 557.984C193.977 551.593 137.989 540.221 89.715 500.581H487.122C481.795 504.903 476.84 508.458 472.47 511.591C412.322 554.745 345.623 564.863 295.977 564.863ZM38.1833 438.968C-13.8319 346.348 2.20075 221.06 56.8148 134.955C68.1173 117.134 127.821 18.2339 249.167 2.37161C261.212 0.796902 273.596 0.00130844 286.136 0.00130844C350.063 0.00130844 418.378 20.6496 470.203 64.0648C575.687 152.433 589.571 313.887 544.446 420.928L547.468 212.321C547.468 207.564 542.059 198.429 532.115 198.429C531.744 198.429 531.369 198.441 530.986 198.47L469.741 196.883L464.159 87.2565C463.417 72.7463 451.441 61.3647 436.913 61.3647H198.845C188.644 60.1569 180.331 59.0728 174.406 58.269C173.99 58.2154 173.582 58.1865 173.179 58.1865C170.006 58.1865 167.168 59.8643 165.568 62.416C152.357 65.9487 142.631 78.0021 142.631 92.3268V188.424L55.9932 186.182C55.7974 186.173 55.6011 186.173 55.4057 186.173C49.4132 186.173 43.6556 188.544 39.4019 192.785C35.0102 197.159 32.6067 203.149 32.7531 209.34L38.1833 438.968Z" fill="url(#paint0_linear_361_1620)"/>
</g>
<path d="M515.636 66.8209C515.445 66.9862 515.178 67.0575 514.911 66.9861C513.897 66.7119 512.875 66.4564 511.868 66.231C511.439 66.1333 511.172 65.7087 511.27 65.2842C511.368 64.8559 511.792 64.5854 512.217 64.6831C513.243 64.916 514.291 65.1752 515.328 65.457C515.753 65.5697 516.001 66.0056 515.884 66.4264C515.843 66.5879 515.757 66.7232 515.636 66.8209Z" fill="#6CC166"/>
<path d="M531.412 73.0663C531.17 73.2754 530.821 73.3246 530.522 73.1647C528.64 72.1641 526.696 71.2333 524.744 70.3967C524.342 70.2286 524.153 69.7611 524.325 69.3593C524.498 68.9533 524.965 68.7687 525.367 68.941C527.36 69.7939 529.345 70.7412 531.264 71.7664C531.654 71.9714 531.801 72.4512 531.592 72.8408C531.547 72.9269 531.486 73.0048 531.412 73.0663ZM545.417 82.6496C545.122 82.8998 544.683 82.908 544.383 82.6455C542.772 81.2636 541.082 79.9268 539.351 78.676C538.999 78.4177 538.921 77.9215 539.175 77.5689C539.433 77.2162 539.926 77.1342 540.282 77.3925C542.046 78.6678 543.776 80.0293 545.417 81.444C545.749 81.7311 545.786 82.2313 545.499 82.5635C545.474 82.5922 545.446 82.6209 545.417 82.6496ZM556.945 95.0911L556.9 95.128C556.547 95.3905 556.051 95.3126 555.788 94.9599C554.677 93.4467 553.492 91.9582 552.266 90.5353C552.106 90.3466 551.938 90.158 551.774 89.9694C551.486 89.6413 551.519 89.141 551.847 88.8499L551.856 88.8458C552.184 88.5628 552.68 88.5956 552.967 88.9237C553.135 89.1164 553.303 89.3092 553.471 89.5019C554.722 90.9535 555.932 92.4749 557.068 94.0209C557.314 94.3571 557.257 94.8246 556.945 95.0911ZM565.405 109.8C565.344 109.85 565.274 109.895 565.2 109.927C564.798 110.1 564.331 109.915 564.159 109.513C563.31 107.561 562.371 105.626 561.358 103.752C561.153 103.366 561.292 102.887 561.677 102.677C562.067 102.468 562.547 102.612 562.756 102.997C563.785 104.912 564.749 106.889 565.61 108.882C565.754 109.21 565.66 109.579 565.405 109.8ZM570.384 126.019C570.281 126.105 570.154 126.166 570.015 126.195C569.584 126.277 569.17 125.994 569.088 125.563C568.694 123.472 568.202 121.372 567.632 119.322C567.517 118.9 567.763 118.465 568.186 118.346C568.604 118.227 569.043 118.477 569.162 118.896C569.744 120.987 570.245 123.132 570.646 125.268C570.7 125.555 570.593 125.838 570.384 126.019ZM571.655 142.93C571.512 143.057 571.319 143.131 571.11 143.123C570.671 143.106 570.331 142.737 570.347 142.302C570.425 140.178 570.413 138.021 570.31 135.893C570.29 135.458 570.626 135.089 571.061 135.065C571.499 135.044 571.873 135.38 571.893 135.819C571.996 137.989 572.012 140.191 571.93 142.36C571.922 142.589 571.819 142.79 571.655 142.93ZM569.137 159.698C568.945 159.862 568.682 159.935 568.415 159.862C567.993 159.751 567.743 159.316 567.858 158.894C568.407 156.839 568.875 154.74 569.244 152.644C569.322 152.21 569.732 151.923 570.163 151.996C570.597 152.079 570.884 152.489 570.806 152.919C570.425 155.06 569.949 157.208 569.387 159.304C569.346 159.464 569.256 159.599 569.137 159.698ZM562.937 175.485C562.699 175.69 562.346 175.744 562.051 175.584C561.661 175.379 561.513 174.899 561.719 174.513C562.715 172.627 563.642 170.683 564.47 168.727C564.638 168.325 565.106 168.137 565.508 168.309C565.91 168.481 566.098 168.945 565.93 169.351C565.085 171.344 564.138 173.328 563.121 175.252C563.072 175.342 563.01 175.424 562.937 175.485ZM553.393 189.514C553.102 189.764 552.663 189.772 552.364 189.514C552.032 189.231 551.991 188.726 552.274 188.394C553.66 186.783 554.989 185.085 556.235 183.359C556.486 182.998 556.986 182.92 557.339 183.174C557.695 183.432 557.777 183.929 557.523 184.281C556.252 186.049 554.89 187.779 553.48 189.428C553.455 189.46 553.426 189.489 553.393 189.514ZM545.286 197.641C543.883 198.847 542.419 200.016 540.934 201.111C540.582 201.373 540.086 201.299 539.827 200.947C539.569 200.594 539.634 200.102 539.991 199.839C541.697 198.576 543.37 197.219 544.974 195.808L544.978 195.8C545.31 195.517 545.806 195.554 546.094 195.878C546.381 196.206 546.352 196.711 546.024 196.998C545.778 197.211 545.532 197.428 545.286 197.641Z" fill="#6CC166"/>
<path d="M532.077 206.748C532.034 206.783 531.988 206.817 531.938 206.844C530.989 207.357 530.032 207.851 529.091 208.31C528.693 208.503 528.219 208.341 528.03 207.948C527.837 207.554 528.003 207.08 528.392 206.887C529.314 206.435 530.252 205.953 531.182 205.448C531.564 205.239 532.046 205.382 532.254 205.768C532.436 206.104 532.355 206.509 532.077 206.748Z" fill="#91B3FA"/>
<path d="M472.891 212.423C472.688 212.594 472.405 212.664 472.132 212.577C471.126 212.255 470.105 211.909 469.102 211.543C468.689 211.392 468.476 210.938 468.627 210.525C468.777 210.113 469.231 209.9 469.644 210.054C470.626 210.41 471.629 210.753 472.615 211.064C473.03 211.197 473.261 211.644 473.128 212.06C473.083 212.207 472.999 212.329 472.891 212.423Z" fill="#91B3FA"/>
<path d="M453.68 76.9667C453.658 76.985 453.628 77.0069 453.603 77.0252C451.861 78.1889 450.148 79.4367 448.509 80.7394C448.168 81.0138 447.671 80.9553 447.396 80.615C447.122 80.271 447.169 79.7733 447.524 79.4989C449.193 78.1706 450.942 76.8935 452.725 75.7042C453.087 75.4627 453.581 75.5615 453.822 75.9238C454.046 76.2604 453.98 76.7068 453.68 76.9667ZM436.71 92.5039C436.425 92.7491 436 92.7637 435.697 92.5222C435.356 92.2478 435.298 91.7501 435.572 91.4062C436.919 89.7339 438.342 88.1055 439.814 86.5613C440.121 86.2466 440.619 86.2319 440.933 86.5356C441.252 86.8357 441.263 87.3407 440.963 87.6554C439.524 89.1667 438.126 90.7621 436.809 92.4015C436.78 92.4381 436.743 92.4747 436.71 92.5039ZM427.733 106.581C427.503 106.782 427.162 106.834 426.866 106.691C426.474 106.497 426.313 106.021 426.507 105.63C427.452 103.72 428.487 101.817 429.592 99.9835C429.819 99.6029 430.306 99.4858 430.683 99.7127C431.056 99.9359 431.177 100.423 430.95 100.8C429.87 102.6 428.853 104.459 427.931 106.329C427.88 106.427 427.814 106.512 427.733 106.581ZM422.046 122.268C421.86 122.429 421.6 122.499 421.34 122.437C420.916 122.334 420.656 121.906 420.758 121.482C421.26 119.403 421.856 117.321 422.529 115.294C422.672 114.88 423.119 114.653 423.536 114.793C423.949 114.932 424.173 115.382 424.037 115.795C423.375 117.779 422.789 119.82 422.299 121.855C422.259 122.02 422.167 122.162 422.046 122.268ZM419.946 138.819C419.803 138.944 419.616 139.013 419.415 139.013C418.976 139.006 418.628 138.644 418.636 138.205C418.669 136.068 418.793 133.905 419.005 131.783C419.053 131.347 419.441 131.029 419.876 131.073C420.312 131.117 420.63 131.504 420.586 131.94C420.378 134.018 420.253 136.137 420.224 138.23C420.22 138.468 420.11 138.677 419.946 138.819ZM421.516 155.436C421.417 155.52 421.296 155.582 421.161 155.612C420.729 155.7 420.312 155.425 420.224 154.993C419.788 152.904 419.441 150.767 419.185 148.644C419.13 148.209 419.441 147.814 419.876 147.763C420.312 147.708 420.707 148.019 420.758 148.454C421.011 150.533 421.351 152.626 421.776 154.675C421.838 154.964 421.728 155.253 421.516 155.436ZM426.665 171.314C426.606 171.361 426.544 171.401 426.471 171.434C426.072 171.617 425.603 171.438 425.424 171.039C424.546 169.092 423.741 167.08 423.027 165.064C422.881 164.65 423.097 164.196 423.51 164.054C423.924 163.907 424.377 164.123 424.524 164.537C425.219 166.513 426.01 168.481 426.87 170.388C427.016 170.713 426.925 171.09 426.665 171.314ZM435.159 185.684L435.118 185.717C434.767 185.98 434.269 185.91 434.006 185.559C432.721 183.854 431.495 182.068 430.361 180.257C430.127 179.884 430.24 179.397 430.61 179.163C430.983 178.932 431.473 179.042 431.704 179.415C432.816 181.186 434.017 182.935 435.276 184.608C435.528 184.944 435.473 185.413 435.159 185.684ZM446.606 197.836C446.317 198.089 445.877 198.096 445.577 197.84C443.945 196.453 442.357 194.982 440.849 193.467C440.542 193.159 440.542 192.654 440.857 192.347C441.168 192.032 441.669 192.04 441.976 192.351C443.451 193.833 445.006 195.271 446.606 196.632C446.935 196.914 446.979 197.415 446.694 197.748C446.668 197.781 446.639 197.81 446.606 197.836ZM460.432 207.196C460.194 207.405 459.842 207.453 459.546 207.295C457.658 206.3 455.788 205.209 453.983 204.053C453.614 203.819 453.508 203.329 453.742 202.959C453.98 202.593 454.47 202.483 454.84 202.717C456.607 203.848 458.441 204.92 460.285 205.894C460.673 206.099 460.819 206.578 460.615 206.966C460.567 207.057 460.505 207.134 460.432 207.196Z" fill="#91B3FA"/>
<path d="M465.58 70.4873C465.521 70.5391 465.451 70.5798 465.377 70.6131C464.415 71.0311 463.457 71.4713 462.528 71.9226C462.132 72.1149 461.659 71.9485 461.467 71.5564C461.274 71.1606 461.441 70.6871 461.836 70.4947C462.783 70.0361 463.764 69.5848 464.748 69.1594C465.147 68.9856 465.617 69.1705 465.787 69.57C465.932 69.8992 465.835 70.2691 465.58 70.4873Z" fill="#91B3FA"/>
<path d="M479 83.5203C478.617 83.5922 478.318 83.8956 478.262 84.279L476.544 95.2286C471.788 97.2732 467.327 100.096 463.365 103.654L452.71 100.632C452.335 100.524 451.936 100.667 451.716 100.987L444.112 111.893C443.889 112.208 443.897 112.635 444.12 112.947L450.65 121.9C448.681 126.847 447.579 132.007 447.303 137.178L437.623 142.573C437.283 142.765 437.099 143.148 437.167 143.531L439.504 156.617C439.571 157.001 439.875 157.296 440.258 157.356L451.209 159.073C453.258 163.825 456.081 168.286 459.639 172.247L456.612 182.905C456.508 183.277 456.648 183.68 456.968 183.9L467.874 191.503C468.194 191.722 468.617 191.718 468.933 191.491L477.882 184.966C482.834 186.935 487.994 188.037 493.162 188.312L498.561 197.992C498.753 198.331 499.136 198.511 499.516 198.443L512.607 196.107C512.986 196.039 513.286 195.736 513.346 195.352L515.059 184.403C519.815 182.354 524.276 179.535 528.238 175.977L538.893 179C539.268 179.108 539.667 178.964 539.891 178.644L547.491 167.739C547.715 167.419 547.711 166.996 547.479 166.685L540.953 157.732C542.926 152.784 544.029 147.621 544.304 142.453L553.985 137.054C554.324 136.867 554.504 136.483 554.436 136.1L552.1 123.014C552.032 122.631 551.728 122.335 551.345 122.275L540.394 120.558C538.346 115.806 535.526 111.342 531.964 107.38L534.991 96.7261C535.099 96.3547 534.955 95.9514 534.636 95.7318L523.729 88.1285C523.41 87.9049 522.986 87.9129 522.671 88.1405L513.721 94.6655C508.773 92.6968 503.609 91.5947 498.441 91.3192L493.042 81.6394C492.854 81.3 492.471 81.1163 492.088 81.1842L479 83.5203Z" fill="#6CC166"/>
<path d="M488.87 131.772C487.54 132.913 486.51 134.376 485.875 136.059C484.872 138.712 484.961 141.595 486.128 144.181C487.294 146.767 489.397 148.74 492.05 149.743C494.703 150.746 497.587 150.653 500.173 149.49C502.755 148.324 504.732 146.221 505.731 143.568C506.734 140.915 506.645 138.032 505.478 135.446C504.312 132.864 502.212 130.888 499.559 129.885C496.907 128.881 494.02 128.971 491.437 130.137C490.493 130.564 489.631 131.114 488.87 131.772ZM504.293 149.657C503.357 150.464 502.305 151.136 501.15 151.656C497.984 153.083 494.454 153.194 491.207 151.968C487.963 150.742 485.388 148.324 483.958 145.158C482.531 141.996 482.419 138.467 483.649 135.22C484.875 131.973 487.294 129.398 490.456 127.971C493.622 126.541 497.152 126.433 500.399 127.659C503.647 128.885 506.222 131.304 507.648 134.469C509.075 137.635 509.187 141.164 507.957 144.408C507.18 146.47 505.917 148.26 504.293 149.657Z" fill="#B1ECAD"/>
<path d="M517.578 165.309C506.342 174.971 489.555 176.235 476.85 167.379C474.506 165.745 472.439 163.863 470.654 161.789C460.991 150.554 459.727 133.768 468.579 121.065C468.741 120.837 468.903 120.61 469.069 120.386C470.18 118.875 471.413 117.456 472.747 116.164C472.906 116.01 473.064 115.86 473.222 115.713L474.845 117.456C473.245 118.94 471.795 120.613 470.534 122.425L470.5 122.476C460.802 136.444 464.257 155.701 478.211 165.429C492.184 175.167 511.474 171.724 521.218 157.749C529.442 145.955 528.266 130.368 519.294 119.935C517.64 118.011 515.716 116.265 513.541 114.746C508.945 111.546 503.582 109.649 498.026 109.267L498.188 106.896C504.175 107.308 509.951 109.348 514.902 112.795C517.242 114.429 519.313 116.311 521.094 118.385C530.761 129.62 532.025 146.406 523.173 159.11C521.538 161.454 519.652 163.524 517.578 165.309Z" fill="#B1ECAD"/>
<path d="M453.016 8.9267C452.898 9.02452 452.735 9.06529 452.58 9.02454C451.969 8.85743 451.353 8.70662 450.75 8.56805C450.493 8.51099 450.33 8.25828 450.391 8.00151C450.448 7.74474 450.705 7.58173 450.958 7.63879C451.577 7.77737 452.205 7.93629 452.829 8.1034C453.082 8.17269 453.232 8.43352 453.163 8.68622C453.139 8.78404 453.086 8.86557 453.016 8.9267Z" fill="#6CC166"/>
<path d="M462.494 12.6775C462.351 12.8034 462.136 12.8358 461.962 12.7384C460.825 12.1375 459.659 11.5772 458.486 11.0737C458.242 10.9722 458.133 10.692 458.234 10.4484C458.34 10.2089 458.616 10.0951 458.859 10.2007C460.057 10.7123 461.251 11.2808 462.404 11.8979C462.64 12.0198 462.729 12.308 462.603 12.5435C462.575 12.5963 462.538 12.641 462.494 12.6775ZM470.911 18.4391C470.737 18.5893 470.473 18.5934 470.29 18.4391C469.324 17.6027 468.304 16.8028 467.269 16.0516C467.054 15.8973 467.005 15.5969 467.159 15.3857C467.318 15.1705 467.614 15.1218 467.825 15.2761C468.885 16.0435 469.925 16.8637 470.911 17.7163C471.11 17.8869 471.135 18.1873 470.96 18.3863L470.911 18.4391ZM477.843 25.9182L477.814 25.9385C477.599 26.0968 477.303 26.0481 477.144 25.8369C476.478 24.9274 475.764 24.0342 475.029 23.1775C474.931 23.0638 474.83 22.9501 474.732 22.8364C474.558 22.6415 474.578 22.337 474.777 22.1664L474.781 22.1624C474.98 21.9918 475.277 22.0121 475.451 22.207C475.549 22.3248 475.65 22.4385 475.752 22.5562C476.503 23.4292 477.23 24.3427 477.916 25.2725C478.062 25.4756 478.026 25.7557 477.843 25.9182ZM482.923 34.7574C482.89 34.7859 482.85 34.8142 482.801 34.8345C482.561 34.9361 482.281 34.8264 482.176 34.5869C481.668 33.4135 481.099 32.2482 480.494 31.1235C480.369 30.892 480.454 30.6037 480.685 30.4779C480.917 30.352 481.205 30.4373 481.331 30.6687C481.952 31.8178 482.529 33.0074 483.049 34.2052C483.134 34.4001 483.077 34.6234 482.923 34.7574ZM485.919 44.5021C485.854 44.5549 485.781 44.5955 485.696 44.6117C485.436 44.6605 485.189 44.49 485.136 44.2301C484.9 42.9714 484.608 41.7087 484.263 40.4824C484.194 40.2267 484.344 39.9627 484.596 39.8937C484.847 39.8247 485.111 39.9708 485.184 40.2266C485.534 41.4813 485.83 42.7684 486.074 44.0514C486.106 44.226 486.041 44.3966 485.919 44.5021ZM486.683 54.6691C486.593 54.7463 486.48 54.7868 486.354 54.7828C486.09 54.7747 485.883 54.5514 485.895 54.2915C485.944 53.0125 485.936 51.7173 485.871 50.4424C485.858 50.1784 486.062 49.9551 486.325 49.9429C486.589 49.9308 486.813 50.1297 486.825 50.3936C486.89 51.701 486.898 53.0206 486.849 54.324C486.841 54.462 486.78 54.5838 486.683 54.6691ZM485.168 64.7468C485.054 64.8483 484.892 64.8889 484.734 64.8483C484.482 64.7793 484.332 64.5153 484.397 64.2636C484.73 63.0293 485.01 61.7665 485.233 60.5078C485.282 60.2479 485.526 60.0734 485.785 60.118C486.045 60.1668 486.216 60.4144 486.171 60.6743C485.944 61.9614 485.655 63.2526 485.318 64.5113C485.294 64.6047 485.237 64.6859 485.168 64.7468ZM481.441 74.2357C481.298 74.3575 481.083 74.39 480.909 74.2966C480.673 74.1707 480.584 73.8824 480.71 73.651C481.307 72.5182 481.867 71.3488 482.362 70.1754C482.464 69.9318 482.744 69.8181 482.988 69.9237C483.231 70.0252 483.345 70.3053 483.239 70.549C482.732 71.7467 482.163 72.9404 481.55 74.0976C481.522 74.1504 481.485 74.1951 481.441 74.2357ZM475.707 82.6649C475.532 82.8192 475.268 82.8232 475.086 82.6689C474.887 82.4944 474.862 82.1939 475.033 81.9949C475.865 81.0245 476.665 80.0054 477.412 78.9659C477.567 78.7508 477.863 78.7061 478.078 78.8563C478.294 79.0106 478.342 79.3111 478.188 79.5222C477.425 80.582 476.608 81.6254 475.76 82.6161C475.743 82.6324 475.727 82.6527 475.707 82.6649ZM470.834 87.5494C469.99 88.2762 469.108 88.9786 468.219 89.6364C468.008 89.7948 467.707 89.7501 467.549 89.5389C467.395 89.3278 467.435 89.0314 467.651 88.8731C468.678 88.1138 469.685 87.2977 470.643 86.4491L470.647 86.445C470.846 86.2745 471.143 86.2948 471.317 86.4937C471.492 86.6886 471.472 86.9891 471.277 87.1637C471.127 87.2936 470.98 87.4235 470.834 87.5494Z" fill="#6CC166"/>
<path d="M462.892 93.0254C462.867 93.0467 462.839 93.0645 462.81 93.0823C462.241 93.3917 461.665 93.687 461.099 93.9645C460.861 94.0783 460.576 93.9822 460.462 93.7439C460.345 93.5091 460.445 93.2246 460.679 93.1072C461.234 92.8368 461.796 92.5452 462.355 92.2428C462.586 92.1183 462.878 92.2037 463.002 92.4349C463.109 92.6377 463.059 92.8795 462.892 93.0254Z" fill="#91B3FA"/>
<path d="M427.321 96.4363C427.201 96.5389 427.031 96.5814 426.868 96.5283C426.262 96.3372 425.65 96.1283 425.045 95.9053C424.797 95.8168 424.669 95.5442 424.758 95.2964C424.85 95.0486 425.122 94.9212 425.37 95.0097C425.961 95.2256 426.56 95.431 427.155 95.6186C427.406 95.7 427.544 95.9655 427.466 96.2168C427.438 96.3053 427.388 96.3796 427.321 96.4363Z" fill="#91B3FA"/>
<path d="M415.78 15.0201L415.732 15.0564C414.686 15.7546 413.653 16.5052 412.672 17.2881C412.466 17.4536 412.164 17.4173 412.002 17.2115C411.837 17.0056 411.865 16.707 412.075 16.5415C413.08 15.7425 414.133 14.9757 415.203 14.2614C415.421 14.1161 415.715 14.1767 415.865 14.3946C415.998 14.5964 415.958 14.8668 415.78 15.0201ZM405.577 24.3585C405.408 24.5079 405.149 24.5159 404.968 24.3706C404.762 24.2052 404.734 23.9066 404.895 23.7007C405.702 22.6959 406.558 21.7152 407.442 20.787C407.627 20.5973 407.926 20.5893 408.116 20.7709C408.305 20.9525 408.318 21.2551 408.132 21.4448C407.268 22.3528 406.429 23.3133 405.638 24.298C405.617 24.3182 405.597 24.3424 405.577 24.3585ZM400.185 32.8172C400.044 32.9383 399.838 32.9706 399.66 32.8858C399.426 32.7688 399.329 32.4823 399.446 32.2482C400.012 31.098 400.637 29.956 401.299 28.8543C401.436 28.6242 401.731 28.5556 401.957 28.6888C402.179 28.826 402.251 29.1206 402.118 29.3425C401.469 30.4241 400.855 31.542 400.298 32.6679C400.27 32.7285 400.229 32.7769 400.185 32.8172ZM396.767 42.2485C396.65 42.3453 396.496 42.3857 396.343 42.3494C396.085 42.2888 395.927 42.0306 395.992 41.7763C396.29 40.5253 396.65 39.2743 397.057 38.0555C397.142 37.8093 397.408 37.6721 397.659 37.7528C397.909 37.8376 398.042 38.108 397.961 38.3582C397.566 39.5487 397.215 40.7755 396.916 41.9983C396.892 42.0992 396.835 42.1839 396.767 42.2485ZM395.503 52.1963C395.419 52.269 395.306 52.3134 395.185 52.3093C394.922 52.3053 394.712 52.0914 394.716 51.8251C394.737 50.5417 394.809 49.2422 394.938 47.967C394.967 47.7047 395.197 47.515 395.459 47.5392C395.721 47.5675 395.911 47.7975 395.887 48.0598C395.762 49.3108 395.689 50.5821 395.669 51.8412C395.665 51.9824 395.604 52.1116 395.503 52.1963ZM396.448 62.1845C396.387 62.2329 396.315 62.2693 396.234 62.2894C395.976 62.3419 395.721 62.1764 395.669 61.9182C395.411 60.659 395.197 59.3757 395.043 58.1005C395.011 57.8382 395.197 57.6 395.459 57.5718C395.721 57.5395 395.959 57.7251 395.992 57.9874C396.141 59.2345 396.347 60.4936 396.601 61.7245C396.637 61.902 396.573 62.0755 396.448 62.1845ZM399.539 71.7247C399.507 71.753 399.467 71.7812 399.422 71.7974C399.184 71.9063 398.902 71.8014 398.793 71.5593C398.264 70.389 397.784 69.1823 397.356 67.9716C397.267 67.7214 397.396 67.447 397.646 67.3622C397.893 67.2735 398.167 67.4026 398.252 67.6528C398.672 68.8392 399.148 70.0217 399.664 71.1678C399.753 71.3656 399.697 71.5916 399.539 71.7247ZM404.645 80.361L404.621 80.3812C404.411 80.5426 404.112 80.4982 403.955 80.2884C403.18 79.2633 402.445 78.1898 401.763 77.1002C401.622 76.8782 401.69 76.5837 401.912 76.4424C402.134 76.3052 402.429 76.3698 402.57 76.5958C403.24 77.6612 403.959 78.7104 404.713 79.7153C404.867 79.9171 404.835 80.1996 404.645 80.361ZM411.526 87.6655C411.353 87.8188 411.086 87.8229 410.905 87.6695C409.924 86.8341 408.971 85.9503 408.067 85.0423C407.882 84.8567 407.882 84.554 408.071 84.3684C408.257 84.1787 408.556 84.1827 408.741 84.3684C409.629 85.2602 410.566 86.1279 411.522 86.9431C411.728 87.1126 411.748 87.4153 411.579 87.613C411.562 87.6332 411.546 87.6493 411.526 87.6655ZM419.836 93.2912C419.691 93.4163 419.481 93.4486 419.303 93.3517C418.169 92.7544 417.043 92.0966 415.962 91.4025C415.74 91.2612 415.675 90.9666 415.816 90.7447C415.958 90.5267 416.252 90.4581 416.474 90.5994C417.536 91.2814 418.637 91.9231 419.747 92.5123C419.981 92.6333 420.07 92.9199 419.945 93.1539C419.917 93.2104 419.881 93.2548 419.836 93.2912Z" fill="#6CC166"/>
<path d="M422.928 11.1242C422.896 11.1567 422.855 11.181 422.806 11.2013C422.23 11.453 421.653 11.7169 421.093 11.9888C420.858 12.1025 420.574 12.0051 420.46 11.7656C420.342 11.5301 420.444 11.2459 420.679 11.1282C421.247 10.8522 421.836 10.5842 422.429 10.3285C422.672 10.2229 422.949 10.3326 423.054 10.5761C423.143 10.771 423.083 10.9943 422.928 11.1242Z" fill="#6CC166"/>
<path d="M430.997 18.9599C430.768 19 430.587 19.1847 430.551 19.4135L429.519 25.9938C426.661 27.2263 423.978 28.9206 421.601 31.0604L415.193 29.2417C414.973 29.1775 414.728 29.2658 414.599 29.4545L410.026 36.0106C409.893 36.2034 409.897 36.4563 410.034 36.645L413.957 42.0248C412.772 44.9997 412.11 48.1032 411.945 51.2066L406.123 54.4545C405.922 54.5669 405.814 54.7958 405.854 55.0287L407.26 62.8936C407.3 63.1224 407.48 63.2991 407.713 63.3352L414.294 64.367C415.523 67.2256 417.221 69.9074 419.361 72.2882L417.542 78.6918C417.478 78.9166 417.562 79.1575 417.755 79.29L424.312 83.8588C424.5 83.9913 424.757 83.9913 424.946 83.8508L430.322 79.9283C433.298 81.1127 436.401 81.7751 439.509 81.9437L442.753 87.7612C442.87 87.9619 443.098 88.0743 443.327 88.0342L451.193 86.629C451.426 86.5888 451.602 86.4042 451.639 86.1753L452.67 79.5911C455.525 78.3626 458.207 76.6683 460.588 74.5284L466.996 76.3472C467.217 76.4114 467.458 76.323 467.595 76.1343L472.164 69.5782C472.296 69.3855 472.292 69.1286 472.156 68.9439L468.233 63.5641C469.417 60.5891 470.08 57.4857 470.245 54.3783L476.062 51.1343C476.267 51.0219 476.376 50.789 476.335 50.5602L474.93 42.6953C474.89 42.4664 474.709 42.2857 474.476 42.2496L467.896 41.2178C466.663 38.3633 464.969 35.6814 462.829 33.3007L464.647 26.8971C464.712 26.6723 464.627 26.4314 464.435 26.2989L457.878 21.7301C457.689 21.5936 457.432 21.5976 457.244 21.7341L451.863 25.6565C448.888 24.4722 445.789 23.8097 442.681 23.6451L439.437 17.8277C439.32 17.6229 439.091 17.5145 438.862 17.5547L430.997 18.9599Z" fill="#6CC166"/>
<path d="M436.926 47.9614C436.125 48.6462 435.51 49.5274 435.125 50.5393C434.521 52.1322 434.575 53.8675 435.279 55.4181C435.979 56.9726 437.245 58.1615 438.838 58.7617C440.431 59.3658 442.167 59.312 443.717 58.6117C445.272 57.9114 446.457 56.6456 447.061 55.0526C447.665 53.4558 447.612 51.7244 446.907 50.1699C446.207 48.6154 444.945 47.4304 443.348 46.8263C441.755 46.226 440.023 46.2799 438.469 46.9802C437.903 47.2341 437.384 47.565 436.926 47.9614ZM446.196 58.7117C445.634 59.1965 445.003 59.6006 444.306 59.9122C442.405 60.7703 440.285 60.8395 438.33 60.1008C436.379 59.362 434.832 57.9076 433.974 56.0068C433.116 54.1061 433.051 51.986 433.786 50.0352C434.525 48.0806 435.979 46.5338 437.88 45.6758C439.781 44.8178 441.905 44.7524 443.856 45.4911C445.807 46.226 447.354 47.6805 448.212 49.5812C449.07 51.4858 449.135 53.6059 448.4 55.5566C447.931 56.7956 447.173 57.8729 446.196 58.7117Z" fill="#B1ECAD"/>
<path d="M454.18 68.1183C447.426 73.9234 437.34 74.6838 429.704 69.3608C428.296 68.3809 427.05 67.2481 425.98 66.0016C420.17 59.2519 419.41 49.1625 424.733 41.523C424.827 41.3897 424.925 41.2525 425.023 41.1153C425.694 40.2098 426.434 39.3553 427.238 38.5792C427.332 38.4891 427.426 38.3989 427.524 38.3088L428.496 39.3554C427.536 40.2491 426.666 41.2525 425.905 42.3422L425.886 42.3736C420.056 50.7696 422.134 62.3445 430.523 68.1888C438.92 74.041 450.515 71.9713 456.368 63.5753C461.311 56.4845 460.605 47.1164 455.211 40.8488C454.22 39.6925 453.063 38.6381 451.754 37.7287C448.994 35.8041 445.768 34.6635 442.428 34.4361L442.526 33.0093C446.125 33.2563 449.598 34.4831 452.573 36.5567C453.981 37.5366 455.227 38.6694 456.297 39.9159C462.107 46.6656 462.867 56.755 457.54 64.3906C456.56 65.8017 455.427 67.0443 454.18 68.1183Z" fill="#B1ECAD"/>
<mask id="mask1_361_1620" style="mask-type:luminance" maskUnits="userSpaceOnUse" x="32" y="186" width="516" height="315">
<path d="M534.436 500.58H48.416C43.4727 500.58 39.4282 496.54 39.4282 491.603L38.1836 438.967L32.7536 209.341C32.6071 203.146 35.0105 197.16 39.4026 192.783C43.656 188.543 49.4138 186.171 55.4065 186.171C55.6018 186.171 55.7981 186.173 55.9938 186.18L142.632 188.421V199.1L57.8619 196.827C57.7199 196.823 57.5774 196.821 57.4358 196.821C53.2305 196.821 49.191 198.489 46.2054 201.468C43.1193 204.546 41.4217 208.757 41.5313 213.114L48.3014 482.988C48.3014 487.664 52.1279 491.491 56.8045 491.491H149.883C153.138 494.069 157.253 495.607 161.72 495.607C161.838 495.607 161.955 495.605 162.073 495.603L388.397 491.491H522.716C527.392 491.491 531.22 487.664 531.22 482.988L535.035 229.455C534.599 214.621 521.938 209.025 513.783 209.025C513.552 209.025 513.323 209.029 513.1 209.039L470.3 207.892L469.74 196.883L530.986 198.468C531.37 198.441 531.746 198.429 532.116 198.429C542.06 198.429 547.469 207.561 547.469 212.322L544.449 420.928L543.425 491.603C543.425 496.54 539.381 500.58 534.436 500.58Z" fill="white"/>
</mask>
<g mask="url(#mask1_361_1620)">
<path d="M534.435 500.58H487.12H89.7145H48.4153C43.4721 500.58 39.4276 496.541 39.4276 491.603L38.1828 438.968L32.7529 209.34C32.6064 203.147 35.0098 197.162 39.4019 192.785C43.6554 188.543 49.4128 186.173 55.4056 186.173C55.6011 186.173 55.7971 186.173 55.993 186.181L142.631 188.424V199.102L57.8612 196.83C57.719 196.826 57.5768 196.822 57.4349 196.822C53.2297 196.822 49.1903 198.489 46.2046 201.468C43.1185 204.549 41.421 208.76 41.5304 213.117L48.3007 482.989C48.3007 487.664 52.1271 491.492 56.8037 491.492H149.881C153.137 494.07 157.251 495.608 161.719 495.608C161.837 495.608 161.954 495.606 162.072 495.604L388.394 491.492H522.714C527.391 491.492 531.219 487.664 531.219 482.989L535.031 229.458C534.596 214.622 521.935 209.028 513.782 209.028C513.548 209.028 513.319 209.032 513.098 209.04L470.299 207.895L469.738 196.886L530.986 198.47C531.369 198.442 531.744 198.43 532.116 198.43C542.059 198.43 547.467 207.563 547.467 212.323L544.445 420.929L543.422 491.603C543.422 496.541 539.38 500.58 534.435 500.58Z" fill="url(#paint1_linear_361_1620)"/>
</g>
<path d="M48.301 482.989C48.301 487.664 52.1275 491.491 56.804 491.491H522.713C527.39 491.491 531.217 487.664 531.217 482.989L535.033 229.456C534.584 214.197 521.206 208.716 513.098 209.041L57.8617 196.827C53.504 196.711 49.2912 198.388 46.2051 201.468C43.1189 204.547 41.4212 208.758 41.5309 213.116L48.301 482.989Z" fill="#B1ECAD"/>
<path d="M526.187 362.544H526.171C525.478 362.533 524.927 361.968 524.938 361.278L525.241 340.718C525.248 340.035 525.807 339.49 526.485 339.49H526.504C527.194 339.5 527.741 340.066 527.73 340.755L527.431 361.315C527.42 361.996 526.864 362.544 526.187 362.544Z" fill="#BDD0FB"/>
<path d="M526.923 312.157H526.904C526.217 312.148 525.668 311.58 525.679 310.893L526.835 232.142C526.812 227.466 525.391 223.731 522.612 221.067C517.425 216.096 509.19 216.353 508.841 216.368L363.337 212.468C362.65 212.449 362.108 211.877 362.127 211.19C362.143 210.503 362.673 209.915 363.406 209.977L508.822 213.877C509.728 213.823 518.496 213.673 524.336 219.267C527.622 222.415 529.304 226.752 529.327 232.154L528.171 310.931C528.159 311.612 527.603 312.157 526.923 312.157Z" fill="#B1ECAD"/>
<mask id="mask2_361_1620" style="mask-type:luminance" maskUnits="userSpaceOnUse" x="0" y="499" width="573" height="25">
<path d="M1.16723 523.764H571.831C572.474 523.764 573 523.24 573 522.598V500.392C573 499.75 572.474 499.226 571.831 499.226H1.16703C0.525192 499.226 0 499.75 0 500.392V522.598C0 523.24 0.525187 523.764 1.16723 523.764Z" fill="white"/>
</mask>
<g mask="url(#mask2_361_1620)">
<path d="M1.16821 523.763H571.836C572.476 523.763 573.002 523.239 573.002 522.597V500.391C573.002 499.749 572.476 499.225 571.836 499.225H1.1678C0.525861 499.225 0.000976562 499.749 0.000976562 500.391V522.597C0.000976562 523.239 0.525861 523.763 1.16821 523.763Z" fill="url(#paint2_linear_361_1620)"/>
</g>
<mask id="mask3_361_1620" style="mask-type:luminance" maskUnits="userSpaceOnUse" x="142" y="61" width="342" height="435">
<path d="M161.72 495.607C157.253 495.607 153.138 494.069 149.882 491.491C145.469 487.996 142.632 482.592 142.632 476.515V199.1V188.421V92.325C142.632 78.001 152.358 65.9476 165.568 62.4136C164.697 63.8049 164.193 65.4563 164.204 67.2399L166.574 469.979C166.596 473.844 169.513 477.08 173.357 477.483C188.775 479.097 210.959 479.733 236.344 479.733C314.956 479.733 424.091 473.641 456.594 471.717C461.85 471.408 465.865 466.912 465.587 461.654L445.206 78.2219C444.969 73.7713 441.282 70.3528 436.899 70.3528C436.684 70.3528 436.467 70.3611 436.249 70.3776C415.794 71.9485 394.491 72.6008 373.196 72.6008C305.596 72.6008 238.158 66.024 198.845 61.3628H436.913C451.441 61.3628 463.419 72.7474 464.158 87.2531L469.74 196.883L470.3 207.892L470.554 212.852L470.68 215.344L483.595 468.984C484.173 480.338 475.236 489.912 463.869 490.12L388.397 491.491L162.073 495.603C161.955 495.605 161.838 495.607 161.72 495.607Z" fill="white"/>
</mask>
<g mask="url(#mask3_361_1620)">
<path d="M161.719 495.607C157.252 495.607 153.137 494.07 149.882 491.491C145.468 487.997 142.631 482.592 142.631 476.515V199.1V188.421V92.3269C142.631 78.0031 152.357 65.9492 165.567 62.4132C164.696 63.8067 164.192 65.4585 164.203 67.2415L166.573 469.98C166.595 473.844 169.513 477.081 173.356 477.483C188.774 479.098 210.958 479.733 236.343 479.733C314.956 479.733 424.09 473.641 456.591 471.718C461.85 471.408 465.862 466.912 465.585 461.654L445.206 78.2241C444.967 73.7704 441.281 70.3542 436.898 70.3542C436.684 70.3542 436.467 70.3617 436.246 70.3805C415.792 71.9499 394.488 72.6017 373.196 72.6017C305.594 72.6017 238.157 66.0241 198.844 61.3644H436.913C451.44 61.3644 463.416 72.7478 464.158 87.2551L469.74 196.882L470.298 207.891L470.552 212.854L470.68 215.345L483.592 468.985C484.173 480.338 475.235 489.912 463.869 490.121L388.397 491.491L162.072 495.604C161.954 495.605 161.837 495.607 161.719 495.607Z" fill="url(#paint3_linear_361_1620)"/>
</g>
<path d="M206.182 489.115H206.172L172.403 488.677C161.111 488.531 151.924 479.227 151.924 467.936V416.954C151.924 416.556 152.248 416.234 152.647 416.234C153.043 416.234 153.367 416.556 153.367 416.954V467.936C153.367 478.441 161.914 487.1 172.422 487.237L206.19 487.672C206.589 487.678 206.907 488.004 206.902 488.403C206.896 488.797 206.574 489.115 206.182 489.115Z" fill="#6CC166"/>
<path d="M152.647 401.883C152.248 401.883 151.924 401.561 151.924 401.162V392.907C151.924 392.507 152.248 392.185 152.647 392.185C153.043 392.185 153.367 392.507 153.367 392.907V401.162C153.367 401.561 153.043 401.883 152.647 401.883Z" fill="#6CC166"/>
<path d="M164.203 67.241C164.172 61.7681 168.982 57.5352 174.406 58.2702C210.362 63.1476 334.013 78.2246 436.247 70.3808C440.91 70.0227 444.959 73.5545 445.204 78.2209L465.586 461.654C465.865 466.912 461.85 471.408 456.592 471.718C413.596 474.263 236.519 484.099 173.357 477.483C169.513 477.081 166.596 473.844 166.573 469.98L164.203 67.241Z" fill="#6CC166"/>
<path d="M168.44 76.8491C168.408 71.5836 173.039 67.5084 178.256 68.2167C212.86 72.9074 331.857 87.4207 430.24 79.8674C434.728 79.5263 438.621 82.9229 438.859 87.4171L458.472 456.411C458.739 461.47 454.879 465.797 449.821 466.096C408.439 468.545 238.032 478.01 177.248 471.643C173.549 471.257 170.741 468.142 170.719 464.422L168.44 76.8491Z" fill="#B9E39A"/>
<path d="M262.537 190.026C240.909 190.026 218.497 189.468 209.03 189.201C206.398 189.128 204.271 187.035 204.15 184.403L200.475 105.295C200.332 102.237 202.776 99.6992 205.811 99.6992C205.875 99.6992 205.939 99.6992 206.003 99.7027L292.608 102.732C295.571 102.834 298.081 104.972 298.625 107.886C302.006 125.937 300.932 169.117 300.44 183.957C300.342 186.874 298.035 189.233 295.121 189.384C285.993 189.858 274.383 190.026 262.537 190.026Z" fill="#DFFFCE"/>
<path d="M417.146 112.182H324.528C322.831 112.182 320.981 110.871 320.417 109.272L319.962 107.981C319.405 106.399 320.306 105.127 321.965 105.127C321.982 105.127 322.003 105.127 322.024 105.127L416.993 106.82C418.686 106.851 420.112 108.068 420.154 109.529C420.196 110.989 418.843 112.182 417.146 112.182Z" fill="#DFFFCE"/>
<path d="M417.148 126.929H324.528C322.831 126.929 320.982 125.622 320.416 124.02L319.962 122.73C319.407 121.148 320.304 119.874 321.964 119.874C321.984 119.874 322.001 119.874 322.021 119.874L416.992 121.568C418.685 121.598 420.111 122.818 420.152 124.274C420.196 125.734 418.841 126.929 417.148 126.929Z" fill="#DFFFCE"/>
<path d="M417.146 141.892H324.525C322.828 141.892 320.98 140.584 320.416 138.983L319.961 137.691C319.404 136.113 320.304 134.838 321.962 134.838C321.981 134.838 322.001 134.838 322.021 134.838L416.991 136.531C418.685 136.561 420.111 137.78 420.151 139.24C420.194 140.699 418.839 141.892 417.146 141.892Z" fill="#DFFFCE"/>
<path d="M426.371 214.047H209.195C207.498 214.047 205.246 212.96 204.189 211.634L202.37 209.351C201.319 208.031 201.831 206.96 203.503 206.96C203.514 206.96 203.524 206.96 203.534 206.96L426.019 208.715C427.716 208.728 429.184 209.931 429.281 211.393C429.378 212.854 428.068 214.047 426.371 214.047Z" fill="#DFFFCE"/>
<path d="M426.371 232.966H209.195C207.498 232.966 205.246 231.879 204.189 230.55L202.37 228.266C201.319 226.947 201.831 225.879 203.503 225.879C203.514 225.879 203.524 225.879 203.534 225.879L426.019 227.634C427.716 227.647 429.184 228.85 429.281 230.311C429.378 231.769 428.068 232.966 426.371 232.966Z" fill="#DFFFCE"/>
<path d="M209.39 299.499C208.647 299.549 207.965 299.881 207.523 300.406C207.159 300.839 206.991 301.369 207.046 301.903L208.695 317.655C208.872 319.347 210.477 320.637 212.428 320.655L231.205 320.837H231.242C233.061 320.837 234.57 319.557 234.609 317.966C234.793 310.783 234.878 304.054 233.953 300.623C233.538 299.084 231.937 298.016 230.104 298.011C226.68 298.053 220.528 298.578 215.583 298.997C213.218 299.199 210.984 299.391 209.39 299.499ZM231.242 322.279H231.189L212.414 322.099C209.729 322.072 207.516 320.227 207.26 317.807L205.611 302.053C205.514 301.127 205.802 300.213 206.419 299.476C207.113 298.656 208.158 298.138 209.291 298.059C210.876 297.951 213.103 297.762 215.461 297.562C220.427 297.138 226.608 296.611 230.086 296.567C232.61 296.556 234.749 298.048 235.344 300.247C236.322 303.863 236.237 310.709 236.051 318.002C235.991 320.37 233.84 322.279 231.242 322.279Z" fill="white"/>
<path d="M228.911 319.328C228.9 319.328 228.886 319.328 228.874 319.328L213.87 319.186C212.024 319.168 210.493 317.908 210.321 316.269L209.002 303.681C208.865 302.378 209.947 301.226 211.41 301.125C215.354 300.856 223.929 299.986 227.996 299.934C228.012 299.934 228.03 299.934 228.046 299.934C229.749 299.934 231.232 300.97 231.632 302.449C232.417 305.349 232.314 311.132 232.177 316.47C232.136 318.059 230.687 319.328 228.911 319.328Z" fill="#DFFFCE"/>
<path d="M252.244 315.292C250.127 315.292 248.274 313.866 247.735 311.82C246.954 308.861 249.184 305.966 252.24 305.966C252.25 305.966 252.257 305.966 252.263 305.966L426.006 306.76C427.917 306.767 429.475 308.296 429.517 310.206C429.559 312.172 427.988 313.792 426.022 313.811L252.282 315.292C252.269 315.292 252.257 315.292 252.244 315.292Z" fill="#DFFFCE"/>
<path d="M209.39 339.742C208.645 339.791 207.964 340.123 207.522 340.648C207.159 341.081 206.989 341.612 207.045 342.144L208.695 357.897C208.872 359.59 210.476 360.88 212.427 360.9L231.203 361.08H231.24C233.061 361.08 234.568 359.798 234.608 358.207C234.791 351.025 234.878 344.295 233.951 340.865C233.536 339.329 231.913 338.224 230.103 338.253C226.678 338.297 220.526 338.819 215.582 339.24C213.218 339.442 210.984 339.632 209.39 339.742ZM231.24 362.521H231.189L212.413 362.341C209.729 362.314 207.514 360.469 207.26 358.048L205.61 342.295C205.513 341.37 205.8 340.456 206.418 339.721C207.111 338.897 208.158 338.381 209.291 338.303C210.875 338.195 213.102 338.006 215.46 337.803C220.427 337.382 226.608 336.856 230.084 336.81C230.111 336.81 230.136 336.81 230.161 336.81C232.63 336.81 234.754 338.315 235.343 340.489C236.321 344.105 236.236 350.951 236.049 358.244C235.989 360.611 233.838 362.521 231.24 362.521Z" fill="white"/>
<path d="M228.912 359.571C228.899 359.571 228.887 359.571 228.874 359.571L213.87 359.427C212.024 359.408 210.493 358.151 210.321 356.512L209.002 343.922C208.866 342.621 209.948 341.467 211.409 341.368C215.354 341.098 223.928 340.227 227.995 340.177C228.012 340.177 228.03 340.177 228.047 340.177C229.748 340.177 231.232 341.211 231.633 342.689C232.417 345.592 232.314 351.376 232.178 356.712C232.136 358.302 230.687 359.571 228.912 359.571Z" fill="#DFFFCE"/>
<path d="M252.244 355.532C250.127 355.532 248.274 354.108 247.735 352.06C246.954 349.103 249.184 346.211 252.244 346.211C252.25 346.211 252.257 346.211 252.263 346.211L426.006 347.002C427.917 347.012 429.475 348.538 429.517 350.45C429.559 352.415 427.988 354.036 426.022 354.052L252.282 355.532C252.269 355.532 252.257 355.532 252.244 355.532Z" fill="#DFFFCE"/>
<path d="M209.39 379.983C208.645 380.034 207.964 380.365 207.522 380.889C207.159 381.322 206.989 381.855 207.045 382.385L208.695 398.14C208.872 399.833 210.476 401.123 212.425 401.142L231.203 401.321H231.24C233.061 401.321 234.568 400.039 234.608 398.448C234.791 391.266 234.878 384.536 233.951 381.108C233.536 379.57 231.913 378.461 230.103 378.494C226.678 378.538 220.526 379.062 215.582 379.483C213.218 379.683 210.984 379.873 209.39 379.983ZM231.24 402.764H231.189L212.413 402.582C209.729 402.558 207.514 400.712 207.26 398.291L205.61 382.536C205.513 381.611 205.8 380.697 206.42 379.962C207.111 379.138 208.158 378.622 209.291 378.544C210.875 378.437 213.102 378.247 215.46 378.046C220.427 377.623 226.608 377.097 230.084 377.053C230.111 377.053 230.136 377.051 230.161 377.051C232.63 377.051 234.754 378.556 235.343 380.73C236.321 384.347 236.236 391.192 236.049 398.485C235.989 400.855 233.838 402.764 231.24 402.764Z" fill="white"/>
<path d="M228.912 399.812C228.899 399.812 228.887 399.812 228.874 399.812L213.87 399.668C212.024 399.651 210.493 398.392 210.321 396.753L209.002 384.165C208.866 382.862 209.948 381.708 211.409 381.609C215.354 381.339 223.928 380.47 227.995 380.418C228.012 380.418 228.03 380.418 228.047 380.418C229.748 380.418 231.232 381.452 231.633 382.933C232.417 385.833 232.314 391.617 232.178 396.955C232.136 398.543 230.687 399.812 228.912 399.812Z" fill="#DFFFCE"/>
<path d="M252.244 395.776C250.127 395.776 248.274 394.349 247.735 392.301C246.954 389.343 249.184 386.451 252.244 386.451C252.25 386.451 252.257 386.451 252.263 386.451L426.006 387.244C427.917 387.252 429.475 388.782 429.517 390.691C429.559 392.657 427.988 394.277 426.022 394.294L252.282 395.776C252.269 395.776 252.257 395.776 252.244 395.776Z" fill="#DFFFCE"/>
<path d="M209.39 420.224C208.645 420.275 207.964 420.606 207.522 421.132C207.159 421.564 206.989 422.096 207.045 422.629L208.695 438.381C208.872 440.074 210.476 441.364 212.425 441.383L231.203 441.562H231.24C233.061 441.562 234.568 440.28 234.608 438.691C234.791 431.509 234.878 424.778 233.951 421.349C233.536 419.813 231.913 418.696 230.103 418.735C226.678 418.779 220.526 419.303 215.582 419.724C213.218 419.927 210.984 420.116 209.39 420.224ZM231.24 443.005H231.189L212.413 442.826C209.729 442.799 207.514 440.953 207.26 438.532L205.61 422.779C205.513 421.855 205.8 420.94 206.42 420.203C207.111 419.382 208.158 418.863 209.291 418.785C210.875 418.678 213.102 418.488 215.46 418.287C220.427 417.864 226.608 417.338 230.084 417.295C230.111 417.295 230.136 417.295 230.161 417.295C232.63 417.295 234.754 418.797 235.343 420.973C236.321 424.59 236.236 431.435 236.049 438.726C235.989 441.096 233.838 443.005 231.24 443.005Z" fill="white"/>
<path d="M228.912 440.053C228.899 440.053 228.887 440.053 228.874 440.053L213.87 439.909C212.024 439.892 210.493 438.635 210.321 436.996L209.002 424.406C208.866 423.103 209.948 421.952 211.409 421.85C215.354 421.582 223.928 420.711 227.995 420.659C228.012 420.659 228.03 420.659 228.047 420.659C229.748 420.659 231.232 421.696 231.633 423.174C232.417 426.074 232.314 431.858 232.178 437.196C232.136 438.784 230.687 440.053 228.912 440.053Z" fill="#DFFFCE"/>
<path d="M252.244 436.017C250.127 436.017 248.274 434.592 247.735 432.545C246.954 429.587 249.184 426.693 252.244 426.693C252.25 426.693 252.257 426.693 252.263 426.693L426.006 427.485C427.917 427.493 429.475 429.023 429.517 430.933C429.559 432.898 427.988 434.518 426.022 434.535L252.282 436.017C252.269 436.017 252.257 436.017 252.244 436.017Z" fill="#DFFFCE"/>
<path d="M207.735 264.483C206.987 264.536 206.307 264.866 205.867 265.392C205.502 265.825 205.331 266.356 205.386 266.89L207.038 282.643C207.214 284.334 208.82 285.626 210.769 285.644L229.547 285.822H229.585C231.402 285.822 232.911 284.541 232.951 282.952C233.135 275.767 233.223 269.038 232.296 265.609C231.878 264.073 230.257 262.958 228.447 262.995C225.02 263.041 218.869 263.564 213.926 263.985C211.562 264.186 209.326 264.377 207.735 264.483ZM229.585 287.265H229.532L210.754 287.086C208.072 287.059 205.857 285.213 205.605 282.794L203.953 267.041C203.855 266.115 204.145 265.201 204.762 264.463C205.454 263.642 206.501 263.124 207.634 263.046C209.216 262.937 211.444 262.749 213.803 262.547C218.768 262.124 224.949 261.598 228.429 261.555C228.454 261.555 228.477 261.555 228.504 261.555C230.974 261.555 233.099 263.058 233.686 265.233C234.666 268.849 234.577 275.697 234.394 282.988C234.333 285.357 232.18 287.265 229.585 287.265Z" fill="white"/>
<path d="M227.256 284.314C227.243 284.314 227.231 284.314 227.218 284.314L212.213 284.169C210.367 284.154 208.834 282.893 208.664 281.258L207.343 268.668C207.209 267.365 208.292 266.213 209.753 266.111C213.699 265.841 222.271 264.972 226.337 264.92C226.357 264.92 226.372 264.92 226.392 264.92C228.092 264.92 229.576 265.954 229.978 267.434C230.762 270.333 230.657 276.119 230.522 281.457C230.48 283.045 229.031 284.314 227.256 284.314Z" fill="#DFFFCE"/>
<path d="M250.584 280.278C248.47 280.278 246.618 278.853 246.077 276.807C245.299 273.844 247.528 270.953 250.584 270.953C250.594 270.953 250.6 270.953 250.607 270.953L424.349 271.747C426.259 271.754 427.816 273.285 427.858 275.192C427.9 277.158 426.33 278.779 424.365 278.795L250.626 280.278C250.61 280.278 250.6 280.278 250.584 280.278Z" fill="#DFFFCE"/>
<mask id="mask4_361_1620" style="mask-type:luminance" maskUnits="userSpaceOnUse" x="289" y="3" width="42" height="44">
<path d="M308.447 31.4225C304.332 31.4225 300.998 28.0887 300.998 23.9746C300.998 19.8604 304.332 16.5246 308.447 16.5246C312.561 16.5246 315.898 19.8604 315.898 23.9746C315.898 28.0887 312.561 31.4225 308.447 31.4225ZM321.585 9.3161C312.074 2.70008 303.804 2.83012 297.982 4.54967C292.67 6.11646 289.229 11.242 289.735 16.7557L292.245 44.1591L322.122 46.8096C322.122 46.8096 340.239 22.2922 321.585 9.3161Z" fill="white"/>
</mask>
<g mask="url(#mask4_361_1620)">
<path d="M308.446 31.4229C304.332 31.4229 300.998 28.0891 300.998 23.9762C300.998 19.8592 304.332 16.5255 308.446 16.5255C312.561 16.5255 315.898 19.8592 315.898 23.9762C315.898 28.0891 312.561 31.4229 308.446 31.4229ZM321.586 9.31667C312.073 2.70245 303.804 2.83368 297.982 4.54772C292.67 6.11824 289.229 11.2439 289.734 16.7592L292.245 44.1592L322.119 46.8123C322.119 46.8123 340.237 22.2909 321.586 9.31667Z" fill="url(#paint4_linear_361_1620)"/>
</g>
<path d="M294.446 24.0786C294.079 24.0786 293.762 23.7972 293.729 23.4261L293.424 20.1111C292.943 14.8592 296.248 9.96606 301.283 8.48183C304.851 7.42981 308.523 7.27894 312.204 8.03329C312.591 8.11485 312.844 8.49408 312.762 8.88552C312.685 9.27289 312.31 9.52159 311.914 9.44412C308.468 8.7387 305.029 8.88145 301.692 9.86414C297.316 11.1567 294.442 15.4096 294.861 19.9806L295.164 23.2916C295.202 23.6912 294.908 24.0419 294.512 24.0786C294.489 24.0786 294.469 24.0786 294.446 24.0786ZM295.231 32.6333C294.861 32.6333 294.547 32.352 294.512 31.9768L294.114 27.6138C294.076 27.2142 294.368 26.8636 294.764 26.8269C295.169 26.7902 295.513 27.0837 295.548 27.4793L295.949 31.8463C295.984 32.2419 295.693 32.5925 295.297 32.6292C295.274 32.6292 295.251 32.6333 295.231 32.6333Z" fill="#6CC166"/>
<mask id="mask5_361_1620" style="mask-type:luminance" maskUnits="userSpaceOnUse" x="251" y="39" width="113" height="25">
<path d="M251.468 61.8686V48.0895C251.468 43.3355 255.411 39.5248 260.163 39.6879L355.159 42.9433C359.375 43.0878 362.789 46.4154 363.041 50.6245L363.834 63.8627L251.468 61.8686Z" fill="white"/>
</mask>
<g mask="url(#mask5_361_1620)">
<path d="M251.468 61.8661V48.0885C251.468 43.333 255.411 39.524 260.164 39.6869L355.158 42.9413C359.374 43.0887 362.788 46.4128 363.04 50.6252L363.835 63.8636L251.468 61.8661Z" fill="url(#paint5_linear_361_1620)"/>
</g>
<path d="M286.89 44.8788H282.805C282.406 44.8788 282.084 44.555 282.084 44.1578C282.084 43.7607 282.406 43.4368 282.805 43.4368H286.89C287.289 43.4368 287.611 43.7607 287.611 44.1578C287.611 44.555 287.289 44.8788 286.89 44.8788Z" fill="#6CC166"/>
<path d="M256.611 57.5411C256.213 57.5411 255.891 57.2172 255.891 56.8201V51.2447C255.891 46.9417 259.394 43.4368 263.7 43.4368H278.719C279.118 43.4368 279.44 43.7607 279.44 44.1579C279.44 44.555 279.118 44.8789 278.719 44.8789H263.7C260.189 44.8789 257.332 47.736 257.332 51.2447V56.8201C257.332 57.2172 257.01 57.5411 256.611 57.5411Z" fill="#6CC166"/>
<mask id="mask6_361_1620" style="mask-type:luminance" maskUnits="userSpaceOnUse" x="212" y="56" width="189" height="25">
<path d="M212.761 65.3469C212.991 60.5763 216.927 56.8255 221.703 56.8255L387.819 56.8214C393.791 56.8214 398.899 61.1192 399.916 67.0045L400.059 67.8157C401.174 74.2625 396.211 80.1581 389.668 80.1581H219.244C215.328 80.1581 212.208 76.8841 212.396 72.9744L212.761 65.3469Z" fill="white"/>
</mask>
<g mask="url(#mask6_361_1620)">
<path d="M212.761 65.3465C212.99 60.5766 216.927 56.8256 221.702 56.8256L387.816 56.8218C393.79 56.8218 398.896 61.12 399.915 67.0031L400.058 67.8182C401.172 74.2635 396.209 80.158 389.669 80.158H219.243C215.327 80.158 212.207 76.8862 212.395 72.9729L212.761 65.3465Z" fill="url(#paint6_linear_361_1620)"/>
</g>
<mask id="mask7_361_1620" style="mask-type:luminance" maskUnits="userSpaceOnUse" x="223" y="110" width="35" height="73">
<path d="M230.607 174.993C230.607 172.456 231.288 170.503 232.655 169.137C234.019 167.772 236.005 167.089 238.608 167.089C241.243 167.089 243.235 167.789 244.585 169.186C245.933 170.584 246.608 172.52 246.608 174.993C246.608 177.435 245.917 179.363 244.536 180.777C243.154 182.191 241.179 182.897 238.608 182.897C236.036 182.897 234.061 182.206 232.679 180.825C231.296 179.444 230.607 177.499 230.607 174.993ZM232.871 158.896V155.523C232.871 152.437 233.346 149.747 234.294 147.45C235.241 145.152 236.969 142.685 239.476 140.051C241.852 137.448 243.371 135.409 244.03 133.931C244.688 132.453 245.019 130.572 245.019 128.291C245.019 126.202 244.536 124.501 243.571 123.182C242.609 121.865 241.082 121.206 238.992 121.206C235.522 121.206 231.874 122.443 228.051 124.918L223.521 115.278C228.565 111.841 234.155 110.121 240.295 110.121C245.597 110.121 249.781 111.591 252.851 114.53C255.919 117.47 257.455 121.559 257.455 126.796C257.455 130.461 256.924 133.569 255.863 136.123C254.804 138.676 252.601 141.754 249.261 145.352C247.106 147.699 245.733 149.506 245.138 150.775C244.544 152.045 244.247 153.77 244.247 155.956V158.896H232.871Z" fill="white"/>
</mask>
<g mask="url(#mask7_361_1620)">
<path d="M230.607 174.993C230.607 172.456 231.289 170.502 232.655 169.137C234.02 167.772 236.006 167.089 238.609 167.089C241.243 167.089 243.235 167.789 244.585 169.185C245.934 170.584 246.609 172.518 246.609 174.993C246.609 177.433 245.917 179.363 244.536 180.776C243.155 182.189 241.179 182.896 238.609 182.896C236.037 182.896 234.061 182.206 232.68 180.824C231.297 179.442 230.607 177.498 230.607 174.993ZM232.872 158.897V155.523C232.872 152.438 233.347 149.746 234.294 147.447C235.242 145.152 236.97 142.684 239.476 140.051C241.852 137.448 243.372 135.408 244.03 133.929C244.689 132.451 245.019 130.572 245.019 128.291C245.019 126.202 244.536 124.499 243.572 123.183C242.61 121.863 241.082 121.204 238.993 121.204C235.522 121.204 231.875 122.442 228.051 124.916L223.522 115.276C228.566 111.84 234.156 110.12 240.296 110.12C245.597 110.12 249.781 111.592 252.853 114.528C255.92 117.468 257.454 121.559 257.454 126.795C257.454 130.458 256.923 133.567 255.865 136.121C254.804 138.675 252.601 141.753 249.261 145.351C247.106 147.699 245.733 149.505 245.139 150.773C244.544 152.045 244.247 153.768 244.247 155.957V158.897H232.872Z" fill="url(#paint7_linear_361_1620)"/>
</g>
<mask id="mask8_361_1620" style="mask-type:luminance" maskUnits="userSpaceOnUse" x="126" y="559" width="38" height="19">
<path d="M128.183 559.753C128.183 559.753 127.093 565.915 126.56 572.017C126.352 574.401 128.189 576.471 130.582 576.57C138.705 576.909 156.086 577.567 162.321 577.289C163.26 577.248 163.873 576.288 163.524 575.414C163.235 574.684 162.674 574.093 161.959 573.765L133.251 560.572L128.183 559.753Z" fill="white"/>
</mask>
<g mask="url(#mask8_361_1620)">
<path d="M128.183 559.753C128.183 559.753 127.093 565.915 126.56 572.017C126.352 574.401 128.189 576.471 130.582 576.57C138.705 576.909 156.086 577.567 162.321 577.289C163.26 577.248 163.873 576.288 163.524 575.414C163.235 574.684 162.674 574.093 161.959 573.765L133.251 560.572L128.183 559.753Z" fill="#044400"/>
</g>
<mask id="mask9_361_1620" style="mask-type:luminance" maskUnits="userSpaceOnUse" x="127" y="554" width="10" height="11">
<path d="M127.291 556.132L128.164 563.504C128.164 563.504 133.193 565.844 136.629 563.208L134.546 554.992L127.291 556.132Z" fill="white"/>
</mask>
<g mask="url(#mask9_361_1620)">
<path d="M127.291 556.132L128.164 563.504C128.164 563.504 133.193 565.844 136.629 563.208L134.546 554.992L127.291 556.132Z" fill="url(#paint8_linear_361_1620)"/>
</g>
<mask id="mask10_361_1620" style="mask-type:luminance" maskUnits="userSpaceOnUse" x="105" y="417" width="32" height="143">
<path d="M127.948 417.542C127.57 419.466 125.92 513.608 135.982 555.795C136.148 556.483 135.799 557.193 135.144 557.461C133.6 558.091 130.574 559.003 126.946 559.125C125.823 559.164 124.818 558.434 124.5 557.356C121.624 547.567 107.839 498.526 106.041 451.679C104.032 399.331 106.041 449.896 106.041 449.896L107.219 417.538L127.948 417.542Z" fill="white"/>
</mask>
<g mask="url(#mask10_361_1620)">
<path d="M127.948 417.542C127.57 419.466 125.92 513.608 135.982 555.795C136.148 556.483 135.799 557.193 135.144 557.461C133.6 558.091 130.574 559.003 126.946 559.125C125.823 559.164 124.818 558.434 124.5 557.356C121.624 547.567 107.839 498.526 106.041 451.679C104.032 399.331 106.041 449.896 106.041 449.896L107.219 417.538L127.948 417.542Z" fill="#478E42"/>
</g>
<mask id="mask11_361_1620" style="mask-type:luminance" maskUnits="userSpaceOnUse" x="91" y="562" width="16" height="16">
<path d="M95.1589 562.967C95.1589 562.967 93.426 566.08 91.748 574.347C91.445 575.84 92.4884 577.268 94.0047 577.417C96.6877 577.681 100.818 578.022 104.126 577.999C105.651 577.987 106.841 576.659 106.658 575.146C106.291 572.128 105.149 567.178 101.623 563.318L95.1589 562.967Z" fill="white"/>
</mask>
<g mask="url(#mask11_361_1620)">
<path d="M95.1589 562.967C95.1589 562.967 93.426 566.08 91.748 574.347C91.445 575.84 92.4884 577.268 94.0047 577.417C96.6877 577.681 100.818 578.022 104.126 577.999C105.651 577.987 106.841 576.659 106.658 575.146C106.291 572.128 105.149 567.178 101.623 563.318L95.1589 562.967Z" fill="#044400"/>
</g>
<mask id="mask12_361_1620" style="mask-type:luminance" maskUnits="userSpaceOnUse" x="93" y="553" width="9" height="13">
<path d="M93.6367 553.486L95.6805 564.635C95.6805 564.635 97.7014 566.138 101.699 565.048L100.724 553.054L93.6367 553.486Z" fill="white"/>
</mask>
<g mask="url(#mask12_361_1620)">
<path d="M93.6367 553.486L95.6805 564.635C95.6805 564.635 97.7014 566.138 101.699 565.048L100.724 553.054L93.6367 553.486Z" fill="url(#paint9_linear_361_1620)"/>
</g>
<mask id="mask13_361_1620" style="mask-type:luminance" maskUnits="userSpaceOnUse" x="84" y="415" width="45" height="145">
<path d="M88.115 420.43C79.8843 470.099 89.9006 543.193 93.2786 557.499C93.4855 558.374 94.1924 559.045 95.0801 559.193C96.588 559.443 99.0705 559.645 101.518 558.935C102.361 558.69 102.953 557.93 102.988 557.053C103.441 545.486 102.625 474.483 110.294 446.422C110.683 444.999 111.552 443.761 112.753 442.906L127.64 432.325L128.78 415.22L88.115 420.43Z" fill="white"/>
</mask>
<g mask="url(#mask13_361_1620)">
<path d="M88.115 420.43C79.8843 470.099 89.9006 543.193 93.2786 557.499C93.4855 558.374 94.1924 559.045 95.0801 559.193C96.588 559.443 99.0705 559.645 101.518 558.935C102.361 558.69 102.953 557.93 102.988 557.053C103.441 545.486 102.625 474.483 110.294 446.422C110.683 444.999 111.552 443.761 112.753 442.906L127.64 432.325L128.78 415.22L88.115 420.43Z" fill="#478E42"/>
</g>
<mask id="mask14_361_1620" style="mask-type:luminance" maskUnits="userSpaceOnUse" x="85" y="322" width="92" height="105">
<path d="M140.562 326.318C115.895 325.909 88.6798 332.793 88.6798 332.793C81.3272 375.691 87.394 425.17 87.394 425.17C106.49 430.178 128.03 422.108 128.03 422.108C131.205 404.178 146.014 353.717 146.014 353.717C158.066 352.222 167.994 348.744 176.169 344.149C169.932 336.92 166.993 327.721 165.715 322.286C156.995 324.994 148.169 326.443 140.562 326.318Z" fill="white"/>
</mask>
<g mask="url(#mask14_361_1620)">
<path d="M140.562 326.317C115.895 325.909 88.6796 332.793 88.6796 332.793C81.3269 375.691 87.3938 425.17 87.3938 425.17C106.49 430.179 128.029 422.109 128.029 422.109C131.204 404.179 146.013 353.717 146.013 353.717C158.066 352.222 167.994 348.745 176.17 344.148C169.932 336.92 166.993 327.722 165.714 322.286C156.994 324.996 148.169 326.443 140.562 326.317Z" fill="#FE7062"/>
</g>
<mask id="mask15_361_1620" style="mask-type:luminance" maskUnits="userSpaceOnUse" x="165" y="288" width="49" height="57">
<path d="M213.422 289.988C210.999 287.061 207.931 288.446 207.931 288.446C204.302 303.778 185.269 316.209 165.715 322.286C166.993 327.721 169.933 336.92 176.169 344.149C208.62 325.905 213.422 289.988 213.422 289.988Z" fill="white"/>
</mask>
<g mask="url(#mask15_361_1620)">
<path d="M213.422 289.99C210.996 287.063 207.93 288.448 207.93 288.448C204.299 303.779 185.267 316.209 165.712 322.287C166.991 327.724 169.932 336.921 176.168 344.15C208.618 325.906 213.422 289.99 213.422 289.99Z" fill="url(#paint10_linear_361_1620)"/>
</g>
<mask id="mask16_361_1620" style="mask-type:luminance" maskUnits="userSpaceOnUse" x="207" y="264" width="17" height="28">
<path d="M212.834 290.731C213.088 291.539 210.15 292.765 208.422 289.47C208.362 287.889 207.4 281.122 208.346 279.834C213.372 272.981 223.121 264.387 223.121 264.387C224.768 266.014 223.412 267.609 223.412 267.609L218.682 272.537C219.671 274.322 220.879 275.831 221.442 277.995C221.872 279.632 221.61 281.38 220.782 282.871C219.952 284.365 218.821 286.31 217.749 287.831C215.722 290.711 212.834 290.731 212.834 290.731Z" fill="white"/>
</mask>
<g mask="url(#mask16_361_1620)">
<path d="M212.834 290.733C213.086 291.541 210.148 292.766 208.42 289.471C208.36 287.891 207.4 281.123 208.345 279.835C213.371 272.982 223.12 264.389 223.12 264.389C224.768 266.016 223.41 267.611 223.41 267.611L218.682 272.539C219.67 274.324 220.877 275.832 221.442 277.997C221.87 279.632 221.607 281.383 220.78 282.873C219.95 284.368 218.82 286.311 217.749 287.833C215.721 290.713 212.834 290.733 212.834 290.733Z" fill="url(#paint11_linear_361_1620)"/>
</g>
<mask id="mask17_361_1620" style="mask-type:luminance" maskUnits="userSpaceOnUse" x="210" y="275" width="8" height="13">
<path d="M216.614 275.732L212.305 279.386L210.951 283.021L214.793 287.284C214.793 287.284 216.085 280.067 217.045 278.507C218.005 276.944 217.508 276.189 216.614 275.732Z" fill="white"/>
</mask>
<g mask="url(#mask17_361_1620)">
<path d="M216.615 275.731L212.306 279.384L210.952 283.02L214.795 287.284C214.795 287.284 216.086 280.065 217.046 278.504C218.006 276.944 217.51 276.188 216.615 275.731Z" fill="url(#paint12_linear_361_1620)"/>
</g>
<mask id="mask18_361_1620" style="mask-type:luminance" maskUnits="userSpaceOnUse" x="61" y="332" width="38" height="42">
<path d="M98.1404 356.675L88.6796 332.793C88.6796 332.793 65.64 348.447 61.8511 368.293C66.2044 368.613 74.1259 369.746 81.8798 373.66C83.5838 364.288 98.1404 356.675 98.1404 356.675Z" fill="white"/>
</mask>
<g mask="url(#mask18_361_1620)">
<path d="M98.1395 356.675L88.6789 332.795C88.6789 332.795 65.6393 348.449 61.8503 368.293C66.2036 368.613 74.1251 369.747 81.8789 373.661C83.583 364.29 98.1395 356.675 98.1395 356.675Z" fill="url(#paint13_linear_361_1620)"/>
</g>
<mask id="mask19_361_1620" style="mask-type:luminance" maskUnits="userSpaceOnUse" x="61" y="368" width="61" height="32">
<path d="M118.274 379.147C118.274 379.147 92.4069 393.766 83.6788 381.283C81.8666 378.69 81.4335 376.116 81.8798 373.66C74.126 369.746 66.2045 368.613 61.8512 368.293C60.7087 374.275 61.3128 380.639 64.8287 387.069C80.1174 415.034 121.699 385.525 121.699 385.525L118.274 379.147Z" fill="white"/>
</mask>
<g mask="url(#mask19_361_1620)">
<path d="M118.274 379.147C118.274 379.147 92.4069 393.766 83.6788 381.283C81.8666 378.69 81.4335 376.116 81.8798 373.66C74.126 369.746 66.2045 368.613 61.8512 368.293C60.7087 374.275 61.3128 380.639 64.8287 387.069C80.1174 415.034 121.699 385.525 121.699 385.525L118.274 379.147Z" fill="url(#paint14_linear_361_1620)"/>
</g>
<mask id="mask20_361_1620" style="mask-type:luminance" maskUnits="userSpaceOnUse" x="115" y="344" width="65" height="56">
<path d="M115.167 397.641L129.283 348.343C129.444 347.784 129.921 347.375 130.499 347.307C133.057 347.01 140.469 346.172 149.028 345.447C159.336 344.576 171.305 343.87 178.459 344.471C179.474 344.556 180.09 345.631 179.637 346.545C175.57 354.776 158.838 388.248 150.458 399.214C150.182 399.577 149.752 399.789 149.294 399.785L116.54 399.48C115.586 399.472 114.905 398.557 115.167 397.641Z" fill="white"/>
</mask>
<g mask="url(#mask20_361_1620)">
<path d="M115.167 397.641L129.283 348.343C129.444 347.784 129.921 347.375 130.499 347.307C133.057 347.01 140.469 346.172 149.028 345.447C159.336 344.576 171.305 343.87 178.459 344.471C179.474 344.556 180.09 345.631 179.637 346.545C175.57 354.776 158.838 388.248 150.458 399.214C150.182 399.577 149.752 399.789 149.294 399.785L116.54 399.48C115.586 399.472 114.905 398.557 115.167 397.641Z" fill="url(#paint15_linear_361_1620)"/>
</g>
<path d="M150.492 341.174L160.727 339.469C161.272 339.378 161.718 339.898 161.545 340.423L160.533 343.492C160.444 343.761 160.211 343.955 159.932 343.992L150.083 345.307C149.573 345.375 149.152 344.913 149.269 344.411L149.897 341.732C149.965 341.443 150.198 341.222 150.492 341.174Z" fill="#B1ECAD"/>
<path d="M142.828 349.838L143.67 345.447C143.755 345.005 144.118 344.673 144.564 344.628L165.238 342.53C165.933 342.46 166.491 343.098 166.328 343.777L165.013 349.25C164.907 349.687 164.528 350.003 164.077 350.026L143.875 351.043C143.218 351.077 142.702 350.484 142.828 349.838Z" fill="#B1ECAD"/>
<mask id="mask21_361_1620" style="mask-type:luminance" maskUnits="userSpaceOnUse" x="117" y="368" width="20" height="18">
<path d="M118.577 385.73C118.577 385.73 116.612 377.644 117.404 374.777C118.197 371.907 119.735 368.218 124.857 369.038C129.981 369.857 136.024 372.017 136.024 372.017C136.024 372.017 135.718 375.753 131.825 374.547L134.24 376.416C134.24 376.416 133.893 379.407 130.605 377.809L132.851 380.286C132.851 380.286 131.439 382.743 129.019 381.168C126.6 379.59 125.439 386.704 118.577 385.73Z" fill="white"/>
</mask>
<g mask="url(#mask21_361_1620)">
<path d="M118.577 385.73C118.577 385.73 116.612 377.644 117.404 374.777C118.197 371.907 119.735 368.218 124.857 369.038C129.981 369.857 136.024 372.017 136.024 372.017C136.024 372.017 135.718 375.753 131.825 374.547L134.24 376.416C134.24 376.416 133.893 379.407 130.605 377.809L132.851 380.286C132.851 380.286 131.439 382.743 129.019 381.168C126.6 379.59 125.439 386.704 118.577 385.73Z" fill="url(#paint16_linear_361_1620)"/>
</g>
<mask id="mask22_361_1620" style="mask-type:luminance" maskUnits="userSpaceOnUse" x="107" y="306" width="25" height="27">
<path d="M115.577 306.294L107.729 328.989C107.599 329.364 107.753 329.781 108.101 329.973C110.241 331.156 117.95 334.575 127.237 328.685C128.206 328.072 128.864 327.073 129.011 325.936L131.552 306.294H115.577Z" fill="white"/>
</mask>
<g mask="url(#mask22_361_1620)">
<path d="M115.578 306.293L107.73 328.987C107.599 329.364 107.754 329.781 108.102 329.972C110.241 331.156 117.95 334.574 127.238 328.684C128.205 328.072 128.865 327.071 129.011 325.934L131.552 306.293H115.578Z" fill="url(#paint17_linear_361_1620)"/>
</g>
<mask id="mask23_361_1620" style="mask-type:luminance" maskUnits="userSpaceOnUse" x="112" y="285" width="29" height="28">
<path d="M132.655 285.278C132.655 285.278 141.272 301.499 140.167 308.051C139.063 314.605 128.381 314.134 119.054 308.812L112.537 291.297L132.655 285.278Z" fill="white"/>
</mask>
<g mask="url(#mask23_361_1620)">
<path d="M132.656 285.277C132.656 285.277 141.274 301.497 140.168 308.051C139.064 314.605 128.382 314.133 119.055 308.812L112.538 291.297L132.656 285.277Z" fill="url(#paint18_linear_361_1620)"/>
</g>
<mask id="mask24_361_1620" style="mask-type:luminance" maskUnits="userSpaceOnUse" x="100" y="273" width="38" height="37">
<path d="M119.467 300.211C119.847 300.041 119.985 299.579 119.76 299.232C119.068 298.177 117.774 296.024 117.361 294.142C117.361 294.142 115.813 293.149 121.304 291.834C126.798 290.519 134.987 288.479 136.709 283.804C138.388 279.246 133.978 267.785 126.942 276.917C126.674 277.264 126.15 277.272 125.883 276.925C124.729 275.423 121.696 272.308 117.485 274.196C113.546 275.963 113.102 278.851 113.156 280.307C113.172 280.734 112.788 281.066 112.369 280.986C110.377 280.606 105.596 280.28 103.365 285.185C101.527 289.222 102.722 291.51 103.809 292.628C104.162 292.99 104.007 293.586 103.524 293.735C102.215 294.135 100.524 295.246 100.693 298.311C100.927 302.551 105.668 302.178 107.018 301.986C107.24 301.953 107.462 302.029 107.612 302.194C108.77 303.476 113.984 308.914 119.628 309.57C120.117 309.626 120.495 309.143 120.336 308.678L117.894 301.579C117.78 301.249 117.937 300.888 118.255 300.747L119.467 300.211Z" fill="white"/>
</mask>
<g mask="url(#mask24_361_1620)">
<path d="M119.466 300.212C119.846 300.043 119.984 299.579 119.76 299.232C119.068 298.178 117.774 296.025 117.361 294.142C117.361 294.142 115.812 293.15 121.304 291.835C126.797 290.52 134.987 288.481 136.709 283.805C138.387 279.246 133.977 267.786 126.942 276.919C126.673 277.266 126.149 277.273 125.883 276.926C124.729 275.423 121.696 272.309 117.485 274.198C113.545 275.965 113.102 278.852 113.155 280.307C113.172 280.735 112.788 281.067 112.369 280.986C110.377 280.607 105.596 280.28 103.364 285.186C101.527 289.224 102.721 291.51 103.809 292.629C104.161 292.991 104.007 293.588 103.524 293.737C102.214 294.135 100.524 295.247 100.693 298.313C100.927 302.551 105.668 302.18 107.018 301.987C107.239 301.952 107.462 302.031 107.612 302.194C108.769 303.478 113.983 308.914 119.627 309.572C120.117 309.626 120.494 309.144 120.336 308.68L117.893 301.581C117.78 301.251 117.937 300.889 118.255 300.747L119.466 300.212Z" fill="url(#paint19_linear_361_1620)"/>
</g>
<mask id="mask25_361_1620" style="mask-type:luminance" maskUnits="userSpaceOnUse" x="113" y="299" width="10" height="6">
<path d="M120.45 301.218C120.45 301.218 114.312 297.007 113.864 300.553C113.416 304.098 119.39 305.687 122.349 304.366L120.45 301.218Z" fill="white"/>
</mask>
<g mask="url(#mask25_361_1620)">
<path d="M120.449 301.22C120.449 301.22 114.311 297.008 113.863 300.555C113.415 304.1 119.39 305.689 122.348 304.367L120.449 301.22Z" fill="url(#paint20_linear_361_1620)"/>
</g>
<mask id="mask26_361_1620" style="mask-type:luminance" maskUnits="userSpaceOnUse" x="410" y="295" width="58" height="65">
<path d="M412.472 296.47C412.875 295.698 414.018 295.82 414.252 296.66C415.115 299.769 417.206 305.194 421.593 307.12C421.814 307.217 422.022 307.314 422.225 307.413C422.425 306.816 422.427 306.125 421.95 305.396C420.586 303.311 423.048 300.464 423.048 300.464C423.048 300.464 423.211 302.973 425.117 304.55C426.758 305.91 427.547 308.936 426.424 311.418C424.05 320.639 420.495 332.834 434.343 341.744C448.191 350.653 467.694 324.928 467.694 324.928L458.014 355.612C458.014 355.612 443.074 366.635 425.697 351.134C408.319 335.632 419.836 313.075 419.836 313.075C419.836 313.075 406.582 307.729 412.472 296.47Z" fill="white"/>
</mask>
<g mask="url(#mask26_361_1620)">
<path d="M412.474 296.468C412.876 295.697 414.018 295.818 414.253 296.659C415.115 299.766 417.206 305.193 421.594 307.121C421.816 307.218 422.023 307.314 422.224 307.411C422.425 306.816 422.428 306.124 421.951 305.394C420.587 303.31 423.048 300.462 423.048 300.462C423.048 300.462 423.214 302.971 425.118 304.549C426.758 305.909 427.547 308.934 426.426 311.415C424.052 320.638 420.497 332.834 434.345 341.743C448.193 350.653 467.696 324.926 467.696 324.926L458.015 355.611C458.015 355.611 443.074 366.634 425.699 351.134C408.321 335.631 419.836 313.073 419.836 313.073C419.836 313.073 406.584 307.726 412.474 296.468Z" fill="url(#paint21_linear_361_1620)"/>
</g>
<mask id="mask27_361_1620" style="mask-type:luminance" maskUnits="userSpaceOnUse" x="463" y="265" width="68" height="79">
<path d="M470.118 279.848C470.118 279.848 466.107 261.852 486.72 266.616C486.72 266.616 496.727 264.981 497.237 274.426C497.237 274.426 503.686 278.676 498.962 286.848C498.962 286.848 518.133 279.444 526.484 296.245C534.836 313.046 527.159 322.29 519.111 324.697C519.111 324.697 525.631 327.971 522.545 335.363C519.458 342.755 503.828 347.966 494.596 338.976C494.596 338.976 468.322 342.448 468.848 323.892C468.848 323.892 456.629 316.002 469.464 300.667C482.298 285.331 470.118 279.848 470.118 279.848Z" fill="white"/>
</mask>
<g mask="url(#mask27_361_1620)">
<path d="M470.115 279.849C470.115 279.849 466.106 261.853 486.721 266.619C486.721 266.619 496.727 264.982 497.234 274.425C497.234 274.425 503.684 278.676 498.96 286.848C498.96 286.848 518.133 279.445 526.482 296.246C534.835 313.047 527.159 322.291 519.11 324.698C519.11 324.698 525.629 327.972 522.542 335.364C519.456 342.756 503.826 347.966 494.593 338.976C494.593 338.976 468.32 342.448 468.847 323.893C468.847 323.893 456.627 316.003 469.462 300.668C482.296 285.333 470.115 279.849 470.115 279.849Z" fill="url(#paint22_linear_361_1620)"/>
</g>
<mask id="mask28_361_1620" style="mask-type:luminance" maskUnits="userSpaceOnUse" x="452" y="320" width="47" height="83">
<path d="M468.987 321.557C473.128 320.317 485.191 318.023 496.663 328.611C498.608 330.405 499.404 333.134 498.709 335.689C495.629 347.033 487.499 380.544 494.627 395.046C494.627 395.046 482.065 408.893 468.359 397.731C468.359 397.731 462.211 370.935 454.156 359.171C448.596 351.05 463.023 328.673 466.673 323.267C467.226 322.447 468.041 321.842 468.987 321.557Z" fill="white"/>
</mask>
<g mask="url(#mask28_361_1620)">
<path d="M468.987 321.556C473.129 320.316 485.191 318.022 496.665 328.61C498.608 330.404 499.405 333.133 498.711 335.688C495.628 347.032 487.5 380.543 494.627 395.045C494.627 395.045 482.064 408.892 468.358 397.731C468.358 397.731 462.21 370.934 454.156 359.17C448.596 351.049 463.025 328.672 466.674 323.266C467.226 322.446 468.041 321.841 468.987 321.556Z" fill="url(#paint23_linear_361_1620)"/>
</g>
<mask id="mask29_361_1620" style="mask-type:luminance" maskUnits="userSpaceOnUse" x="472" y="299" width="16" height="26">
<path d="M480.424 299.022C480.424 299.022 486.551 316.349 487.012 323.993C487.012 323.993 480.24 327.071 473.861 321.875C473.861 321.875 473.19 304.568 472.224 301.47L480.424 299.022Z" fill="white"/>
</mask>
<g mask="url(#mask29_361_1620)">
<path d="M480.424 299.023C480.424 299.023 486.549 316.35 487.011 323.994C487.011 323.994 480.238 327.072 473.859 321.876C473.859 321.876 473.19 304.57 472.224 301.471L480.424 299.023Z" fill="url(#paint24_linear_361_1620)"/>
</g>
<mask id="mask30_361_1620" style="mask-type:luminance" maskUnits="userSpaceOnUse" x="462" y="275" width="27" height="31">
<path d="M471.914 275.396C471.914 275.396 455.89 297.82 465.469 304.333C475.048 310.846 486.454 294.909 486.454 294.909C486.454 294.909 490.172 282.637 486.285 278.474C482.397 274.312 471.914 275.396 471.914 275.396Z" fill="white"/>
</mask>
<g mask="url(#mask30_361_1620)">
<path d="M471.915 275.394C471.915 275.394 455.893 297.819 465.471 304.331C475.05 310.846 486.457 294.907 486.457 294.907C486.457 294.907 490.172 282.637 486.285 278.474C482.397 274.311 471.915 275.394 471.915 275.394Z" fill="url(#paint25_linear_361_1620)"/>
</g>
<mask id="mask31_361_1620" style="mask-type:luminance" maskUnits="userSpaceOnUse" x="470" y="269" width="23" height="27">
<path d="M479.332 270.039C479.332 270.039 471.97 271.783 470.938 275.113C469.908 278.443 481.378 281.531 484.592 281.684L487.181 295.122C487.181 295.122 494.836 282.478 491.803 275.177C488.773 267.876 479.332 270.039 479.332 270.039Z" fill="white"/>
</mask>
<g mask="url(#mask31_361_1620)">
<path d="M479.333 270.038C479.333 270.038 471.973 271.783 470.939 275.111C469.909 278.442 481.378 281.532 484.594 281.683L487.182 295.121C487.182 295.121 494.838 282.478 491.803 275.176C488.775 267.874 479.333 270.038 479.333 270.038Z" fill="#044400"/>
</g>
<mask id="mask32_361_1620" style="mask-type:luminance" maskUnits="userSpaceOnUse" x="483" y="289" width="10" height="9">
<path d="M483.347 293.26C483.347 293.26 489.586 286.037 492.065 290.746C494.547 295.454 486.452 298.991 483.651 296.679L483.347 293.26Z" fill="white"/>
</mask>
<g mask="url(#mask32_361_1620)">
<path d="M483.348 293.26C483.348 293.26 489.588 286.037 492.067 290.745C494.55 295.453 486.452 298.99 483.651 296.678L483.348 293.26Z" fill="url(#paint26_linear_361_1620)"/>
</g>
<mask id="mask33_361_1620" style="mask-type:luminance" maskUnits="userSpaceOnUse" x="448" y="453" width="54" height="116">
<path d="M452.36 453.995C452.407 455.213 450.27 464.862 449.108 470.01C448.641 472.081 448.968 474.248 450.021 476.089L490.281 543.845C490.769 544.665 491.124 545.553 491.338 546.481C492.078 549.66 493.607 557.453 492.808 564.542L490.725 568.869L499.733 566.823L501.694 542.636L499.142 541.081C496.939 539.737 495.224 537.729 494.243 535.345C490.601 526.501 481.561 503.992 479.23 493.025C476.584 480.557 462.738 470.431 462.738 470.431L465.169 464.682L452.36 453.995Z" fill="white"/>
</mask>
<g mask="url(#mask33_361_1620)">
<path d="M452.358 453.996C452.406 455.214 450.27 464.862 449.107 470.011C448.641 472.081 448.967 474.249 450.02 476.09L490.28 543.846C490.768 544.665 491.124 545.553 491.337 546.482C492.078 549.661 493.605 557.453 492.808 564.542L490.724 568.869L499.733 566.823L501.692 542.636L499.142 541.082C496.937 539.738 495.223 537.729 494.243 535.345C490.599 526.502 481.561 503.993 479.231 493.025C476.581 480.557 462.736 470.432 462.736 470.432L465.169 464.683L452.358 453.996Z" fill="url(#paint27_linear_361_1620)"/>
</g>
<mask id="mask34_361_1620" style="mask-type:luminance" maskUnits="userSpaceOnUse" x="488" y="540" width="22" height="32">
<path d="M509.743 558.5C509.743 558.5 504.879 550.788 504.307 547.786C503.735 544.785 502.142 539.484 499.142 541.081C499.142 541.081 497.73 555.661 498.217 561.359C498.704 567.056 491.776 566.872 491.776 566.872C491.776 566.872 489.866 567.141 488.467 568.54C487.503 569.504 488.192 571.181 489.555 571.267C491.822 571.414 495.424 571.451 499.206 570.72C500.527 570.466 501.506 569.341 501.586 567.997L502.586 551.217L508.721 558.962L509.743 558.5Z" fill="white"/>
</mask>
<g mask="url(#mask34_361_1620)">
<path d="M509.741 558.5C509.741 558.5 504.877 550.788 504.304 547.786C503.735 544.785 502.14 539.484 499.142 541.082C499.142 541.082 497.729 555.662 498.216 561.359C498.703 567.056 491.775 566.873 491.775 566.873C491.775 566.873 489.863 567.141 488.465 568.541C487.502 569.505 488.19 571.181 489.555 571.267C491.82 571.414 495.423 571.451 499.205 570.72C500.526 570.466 501.504 569.342 501.586 567.998L502.582 551.217L508.719 558.962L509.741 558.5Z" fill="#055B00"/>
</g>
<mask id="mask35_361_1620" style="mask-type:luminance" maskUnits="userSpaceOnUse" x="468" y="463" width="29" height="108">
<path d="M476.412 464.79C476.412 464.79 477.831 525.395 478.025 534.003C478.217 542.611 476.664 561.687 468.035 567.389L471.79 570.167C471.79 570.167 476.483 566.179 481.068 558.504C486.219 549.881 487.775 548.306 487.775 548.306L486.066 544.807C485.319 543.274 485.098 541.542 485.442 539.872C487.304 530.847 493.527 500.828 495.224 494.362C497.226 486.731 497.369 476.542 490.399 468.012C483.429 459.48 476.412 464.79 476.412 464.79Z" fill="white"/>
</mask>
<g mask="url(#mask35_361_1620)">
<path d="M476.413 464.79C476.413 464.79 477.832 525.395 478.025 534.003C478.218 542.611 476.664 561.687 468.037 567.389L471.79 570.167C471.79 570.167 476.483 566.179 481.069 558.504C486.22 549.882 487.777 548.306 487.777 548.306L486.067 544.808C485.318 543.274 485.096 541.542 485.441 539.872C487.304 530.847 493.527 500.828 495.222 494.363C497.226 486.731 497.368 476.542 490.399 468.012C483.43 459.481 476.413 464.79 476.413 464.79Z" fill="url(#paint28_linear_361_1620)"/>
</g>
<mask id="mask36_361_1620" style="mask-type:luminance" maskUnits="userSpaceOnUse" x="463" y="546" width="27" height="27">
<path d="M484.381 572.9C484.648 572.902 484.877 572.71 484.914 572.446C485.201 570.425 486.396 562.325 487.375 560.228C488.496 557.825 492.156 547.714 487.373 546.855C487.373 546.855 475.481 564.228 473.198 566.569C470.915 568.912 468.035 567.389 468.035 567.389C468.035 567.389 465.812 568.045 464.133 570.188C463.336 571.207 464.079 572.706 465.374 572.718L473.384 572.795C475.711 572.816 477.802 571.404 478.667 569.244C480.077 565.723 482.498 560.558 485.321 558.266L483.855 572.31C483.822 572.624 484.065 572.896 484.381 572.9Z" fill="white"/>
</mask>
<g mask="url(#mask36_361_1620)">
<path d="M484.382 572.9C484.648 572.902 484.878 572.71 484.914 572.446C485.202 570.425 486.396 562.325 487.378 560.227C488.496 557.825 492.157 547.714 487.374 546.855C487.374 546.855 475.484 564.228 473.2 566.569C470.916 568.912 468.035 567.388 468.035 567.388C468.035 567.388 465.813 568.045 464.133 570.188C463.338 571.207 464.083 572.706 465.374 572.718L473.387 572.794C475.71 572.815 477.803 571.403 478.667 569.244C480.077 565.722 482.501 560.557 485.32 558.266L483.857 572.309C483.824 572.623 484.065 572.896 484.382 572.9Z" fill="#055B00"/>
</g>
<mask id="mask37_361_1620" style="mask-type:luminance" maskUnits="userSpaceOnUse" x="448" y="387" width="61" height="88">
<path d="M466.464 391.198C466.464 391.198 468.268 396.951 465.496 406.424L448.295 466.488C448.024 467.432 448.534 468.419 449.457 468.751C454.604 470.596 471.518 475.817 494.607 474.225C495.769 474.145 496.743 473.321 496.995 472.184C498.517 465.337 503.709 441.975 504.776 437.174C508.849 418.884 513.397 399.158 493.393 387.23C484.173 391.179 475.574 393.506 466.464 391.198Z" fill="white"/>
</mask>
<g mask="url(#mask37_361_1620)">
<path d="M466.466 391.198C466.466 391.198 468.269 396.951 465.497 406.424L448.296 466.488C448.025 467.432 448.534 468.419 449.458 468.751C454.604 470.596 471.519 475.817 494.608 474.225C495.77 474.145 496.746 473.321 496.994 472.184C498.519 465.337 503.71 441.975 504.778 437.174C508.849 418.884 513.397 399.158 493.391 387.23C484.175 391.179 475.575 393.506 466.466 391.198Z" fill="url(#paint29_linear_361_1620)"/>
</g>
<mask id="mask38_361_1620" style="mask-type:luminance" maskUnits="userSpaceOnUse" x="481" y="329" width="43" height="65">
<path d="M498.304 330.873C498.304 330.873 517.875 347.136 522.733 369.36C527.588 391.584 494.134 393.945 494.134 393.945C494.134 393.945 489.592 388.874 484.2 390.682C478.807 392.49 483.783 381.832 490.092 381.859C496.401 381.888 493.477 386.875 502.402 382.833C511.095 378.897 516.469 366.718 494.287 348.259C493.002 347.187 491.976 345.825 491.357 344.269C487.049 333.423 490.467 326.313 498.304 330.873Z" fill="white"/>
</mask>
<g mask="url(#mask38_361_1620)">
<path d="M498.304 330.874C498.304 330.874 517.872 347.137 522.73 369.361C527.585 391.585 494.133 393.946 494.133 393.946C494.133 393.946 489.59 388.874 484.2 390.683C478.805 392.491 483.781 381.833 490.088 381.86C496.399 381.889 493.476 386.876 502.398 382.834C511.093 378.898 516.469 366.718 494.286 348.26C493.001 347.188 491.974 345.826 491.354 344.269C487.047 333.424 490.465 326.315 498.304 330.874Z" fill="url(#paint30_linear_361_1620)"/>
</g>
<defs>
<linearGradient id="paint0_linear_361_1620" x1="1377.91" y1="791.048" x2="374.23" y2="-455.561" gradientUnits="userSpaceOnUse">
<stop stop-color="#B1ECAD"/>
<stop offset="0.5" stop-color="#B1ECAD"/>
<stop offset="1" stop-color="#B1ECAD"/>
</linearGradient>
<linearGradient id="paint1_linear_361_1620" x1="470.524" y1="335.531" x2="888.163" y2="-364.138" gradientUnits="userSpaceOnUse">
<stop stop-color="#055B00"/>
<stop offset="1" stop-color="#1A0F91"/>
</linearGradient>
<linearGradient id="paint2_linear_361_1620" x1="709.851" y1="19.9702" x2="666.226" y2="346.716" gradientUnits="userSpaceOnUse">
<stop stop-color="#044600"/>
<stop offset="1" stop-color="#054500"/>
</linearGradient>
<linearGradient id="paint3_linear_361_1620" x1="1004.6" y1="-668.142" x2="399.227" y2="395.125" gradientUnits="userSpaceOnUse">
<stop stop-color="#6CC166"/>
<stop offset="1" stop-color="#478E42"/>
</linearGradient>
<linearGradient id="paint4_linear_361_1620" x1="1009.01" y1="-1396.52" x2="904.081" y2="-1123.12" gradientUnits="userSpaceOnUse">
<stop stop-color="#044400"/>
<stop offset="1" stop-color="#044400"/>
</linearGradient>
<linearGradient id="paint5_linear_361_1620" x1="966.55" y1="-1278.02" x2="867.292" y2="-1019.41" gradientUnits="userSpaceOnUse">
<stop stop-color="#044400"/>
<stop offset="1" stop-color="#044400"/>
</linearGradient>
<linearGradient id="paint6_linear_361_1620" x1="717.839" y1="-574.934" x2="564.98" y2="-294.23" gradientUnits="userSpaceOnUse">
<stop stop-color="#4F994A"/>
<stop offset="1" stop-color="#4F994A"/>
</linearGradient>
<linearGradient id="paint7_linear_361_1620" x1="480.629" y1="-253.512" x2="250.823" y2="213.103" gradientUnits="userSpaceOnUse">
<stop stop-color="#FE7062"/>
<stop offset="1" stop-color="#FF928E"/>
</linearGradient>
<linearGradient id="paint8_linear_361_1620" x1="127.291" y1="559.728" x2="136.629" y2="559.728" gradientUnits="userSpaceOnUse">
<stop stop-color="#FEBBBA"/>
<stop offset="1" stop-color="#FF928E"/>
</linearGradient>
<linearGradient id="paint9_linear_361_1620" x1="93.6367" y1="559.249" x2="101.699" y2="559.249" gradientUnits="userSpaceOnUse">
<stop stop-color="#FEBBBA"/>
<stop offset="1" stop-color="#FF928E"/>
</linearGradient>
<linearGradient id="paint10_linear_361_1620" x1="248.62" y1="202.689" x2="229.83" y2="256.38" gradientUnits="userSpaceOnUse">
<stop stop-color="#FEBBBA"/>
<stop offset="1" stop-color="#FF928E"/>
</linearGradient>
<linearGradient id="paint11_linear_361_1620" x1="287.006" y1="179.651" x2="267.054" y2="236.661" gradientUnits="userSpaceOnUse">
<stop stop-color="#FEBBBA"/>
<stop offset="1" stop-color="#FF928E"/>
</linearGradient>
<linearGradient id="paint12_linear_361_1620" x1="261.433" y1="228.762" x2="276.043" y2="199.286" gradientUnits="userSpaceOnUse">
<stop stop-color="#FEBBBA"/>
<stop offset="1" stop-color="#FF928E"/>
</linearGradient>
<linearGradient id="paint13_linear_361_1620" x1="131.362" y1="304.216" x2="-10.1548" y2="448.547" gradientUnits="userSpaceOnUse">
<stop stop-color="#FE7062"/>
<stop offset="1" stop-color="#FF928E"/>
</linearGradient>
<linearGradient id="paint14_linear_361_1620" x1="61.326" y1="383.7" x2="121.698" y2="383.7" gradientUnits="userSpaceOnUse">
<stop stop-color="#FEBBBA"/>
<stop offset="1" stop-color="#FF928E"/>
</linearGradient>
<linearGradient id="paint15_linear_361_1620" x1="147.449" y1="399.785" x2="147.449" y2="344.247" gradientUnits="userSpaceOnUse">
<stop stop-color="#044600"/>
<stop offset="1" stop-color="#054500"/>
</linearGradient>
<linearGradient id="paint16_linear_361_1620" x1="117.215" y1="377.371" x2="136.023" y2="377.371" gradientUnits="userSpaceOnUse">
<stop stop-color="#FEBBBA"/>
<stop offset="1" stop-color="#FF928E"/>
</linearGradient>
<linearGradient id="paint17_linear_361_1620" x1="125.37" y1="288.601" x2="151.307" y2="288.601" gradientUnits="userSpaceOnUse">
<stop stop-color="#FEBBBA"/>
<stop offset="1" stop-color="#FF928E"/>
</linearGradient>
<linearGradient id="paint18_linear_361_1620" x1="172.073" y1="249.122" x2="141.917" y2="230.727" gradientUnits="userSpaceOnUse">
<stop stop-color="#FEBBBA"/>
<stop offset="1" stop-color="#FF928E"/>
</linearGradient>
<linearGradient id="paint19_linear_361_1620" x1="118.873" y1="309.576" x2="118.873" y2="273.484" gradientUnits="userSpaceOnUse">
<stop stop-color="#044600"/>
<stop offset="1" stop-color="#054500"/>
</linearGradient>
<linearGradient id="paint20_linear_361_1620" x1="154.809" y1="270.89" x2="128.65" y2="254.933" gradientUnits="userSpaceOnUse">
<stop stop-color="#FEBBBA"/>
<stop offset="1" stop-color="#FF928E"/>
</linearGradient>
<linearGradient id="paint21_linear_361_1620" x1="746.847" y1="6.26207" x2="834.118" y2="146.139" gradientUnits="userSpaceOnUse">
<stop stop-color="#FEBBBA"/>
<stop offset="1" stop-color="#FF928E"/>
</linearGradient>
<linearGradient id="paint22_linear_361_1620" x1="496.845" y1="343.733" x2="496.845" y2="265.816" gradientUnits="userSpaceOnUse">
<stop stop-color="#044600"/>
<stop offset="1" stop-color="#054500"/>
</linearGradient>
<linearGradient id="paint23_linear_361_1620" x1="931.427" y1="115.385" x2="1157.75" y2="-10.0857" gradientUnits="userSpaceOnUse">
<stop stop-color="#FE7062"/>
<stop offset="1" stop-color="#FF928E"/>
</linearGradient>
<linearGradient id="paint24_linear_361_1620" x1="886.896" y1="83.5405" x2="903.818" y2="45.9565" gradientUnits="userSpaceOnUse">
<stop stop-color="#FEBBBA"/>
<stop offset="1" stop-color="#FF928E"/>
</linearGradient>
<linearGradient id="paint25_linear_361_1620" x1="887.817" y1="-9.03417" x2="922.221" y2="65.4575" gradientUnits="userSpaceOnUse">
<stop stop-color="#FEBBBA"/>
<stop offset="1" stop-color="#FF928E"/>
</linearGradient>
<linearGradient id="paint26_linear_361_1620" x1="911.637" y1="-21.7623" x2="946.303" y2="53.2973" gradientUnits="userSpaceOnUse">
<stop stop-color="#FEBBBA"/>
<stop offset="1" stop-color="#FF928E"/>
</linearGradient>
<linearGradient id="paint27_linear_361_1620" x1="1009" y1="548.536" x2="879.751" y2="315.225" gradientUnits="userSpaceOnUse">
<stop stop-color="#FEBBBA"/>
<stop offset="1" stop-color="#FF928E"/>
</linearGradient>
<linearGradient id="paint28_linear_361_1620" x1="973.178" y1="367.233" x2="1099.33" y2="303.54" gradientUnits="userSpaceOnUse">
<stop stop-color="#FEBBBA"/>
<stop offset="1" stop-color="#FF928E"/>
</linearGradient>
<linearGradient id="paint29_linear_361_1620" x1="478.265" y1="474.523" x2="478.265" y2="387.23" gradientUnits="userSpaceOnUse">
<stop stop-color="#044600"/>
<stop offset="1" stop-color="#054500"/>
</linearGradient>
<linearGradient id="paint30_linear_361_1620" x1="1035.94" y1="171.199" x2="844.008" y2="-113.398" gradientUnits="userSpaceOnUse">
<stop stop-color="#FEBBBA"/>
<stop offset="1" stop-color="#FF928E"/>
</linearGradient>
</defs>
</svg>
